<svg xmlns="http://www.w3.org/2000/svg" width="113" height="193" fill="none" viewBox="0 0 113 193">
  <path fill="#000" d="M14.128 101h1.14v-3.21h1.944c1.824 0 3.066-.99 3.066-2.724 0-1.788-1.356-2.742-3.216-2.742h-2.934V101Zm1.134-4.146v-3.606h1.872c1.218 0 2.064.6 2.064 1.752 0 1.14-.822 1.854-2.01 1.854h-1.926Zm9.824 4.266c2.316 0 3.744-1.62 3.744-4.44 0-2.85-1.44-4.476-3.744-4.476-2.304 0-3.768 1.632-3.768 4.476 0 2.832 1.446 4.44 3.768 4.44Zm0-.966c-1.59 0-2.544-1.068-2.544-3.462 0-2.412.954-3.522 2.544-3.522s2.526 1.098 2.526 3.522c0 2.388-.918 3.462-2.526 3.462Zm6.987.846h.996L35 94.274 36.903 101h1.026l2.532-8.676h-1.116l-1.956 6.906-1.95-6.906h-.87l-1.956 6.906-1.92-6.906H29.57L32.073 101Zm9.805 0h5.586v-.99l-4.476-.012v-2.892h3.924v-.972h-3.918v-2.832h4.35l.006-.978h-5.472V101Zm7.524 0h1.11v-3.738h2.334L54.43 101h1.176l-1.704-3.936c.828-.312 1.68-.96 1.68-2.37 0-1.476-.942-2.37-2.82-2.37h-3.36V101Zm1.11-4.656V93.23h2.154c1.11 0 1.782.51 1.782 1.53 0 1.05-.744 1.584-2.046 1.584h-1.89Zm9.956 4.776c2.226 0 3.174-1.122 3.174-3.12v-5.676h-1.116v5.73c0 1.416-.756 2.094-2.058 2.094-1.302 0-2.016-.69-2.016-2.094v-5.73H57.3v5.562c0 2.094.918 3.234 3.168 3.234Zm5.235-.12h1.14v-3.21h1.944c1.824 0 3.066-.99 3.066-2.724 0-1.788-1.356-2.742-3.216-2.742h-2.934V101Zm1.134-4.146v-3.606h1.872c1.218 0 2.064.6 2.064 1.752 0 1.14-.822 1.854-2.01 1.854h-1.926Zm4.833 5.568 4.71-.006v-.87l-4.71.006v.87ZM78.335 101h1.11v-8.676h-1.11V101Zm3.399 0h1.14v-6.948L85.37 101h1.038l2.514-7.014V101h1.146v-8.676h-1.53l-2.652 7.164-2.616-7.164h-1.536V101Zm13.815.12c1.368 0 2.16-.69 2.616-1.44V101h.834v-4.476l-3.264-.006v.816h2.112l-.036.768a2.154 2.154 0 0 1-2.202 2.016c-1.452 0-2.544-.978-2.544-3.456 0-2.394 1.014-3.474 2.514-3.474 1.098 0 1.92.852 2.094 1.812h1.188c-.096-1.458-1.512-2.796-3.264-2.796-2.298 0-3.732 1.656-3.732 4.482 0 2.808 1.398 4.434 3.684 4.434Z"/>
  <path stroke="#000" stroke-width="3" d="M1.5 41.5h110v110H1.5zm39.778-13L56 3l14.722 25.5H41.278Zm29.444 136L56 190l-14.722-25.5h29.444Z"/>
</svg>
