<svg xmlns="http://www.w3.org/2000/svg" width="169" height="57" fill="none" viewBox="0 0 169 57">
  <rect width="167" height="55" x="1" y="1" stroke="#000" stroke-width="2" rx="27"/>
  <path fill="#000" d="M31.336 37.24c3.9 0 6.456-2.1 6.456-4.98 0-2.1-1.104-3.876-4.188-4.596l-3.48-.9c-1.776-.444-2.7-1.2-2.7-2.628 0-1.56 1.284-2.856 3.768-2.856 2.052 0 3.84.816 4.068 3.18h2.28c-.012-2.628-2.196-5.028-6.276-5.028-3.528 0-6.192 1.944-6.192 4.884 0 2.664 1.68 3.924 4.128 4.512l3.576.924c1.872.504 2.748 1.296 2.748 2.676 0 1.884-1.884 2.964-4.092 2.964-2.292 0-4.116-1.032-4.548-3h-2.328c.444 3.192 3.408 4.848 6.78 4.848Zm14.986 0c2.412 0 4.74-1.332 5.196-3.864H49.43c-.312 1.404-1.56 2.148-3.144 2.148-2.412 0-3.576-1.86-3.576-4.212h8.892v-.816c0-3.768-1.944-6.144-5.436-6.144-3.612 0-5.7 2.652-5.7 6.564 0 3.96 2.388 6.324 5.856 6.324Zm-3.6-7.428c-.012-1.848 1.092-3.78 3.432-3.78 2.244 0 3.312 1.644 3.312 3.78h-6.744Zm17.194 7.428c2.412 0 4.74-1.332 5.196-3.864h-2.088c-.312 1.404-1.56 2.148-3.144 2.148-2.412 0-3.576-1.86-3.576-4.212h8.892v-.816c0-3.768-1.944-6.144-5.436-6.144-3.612 0-5.7 2.652-5.7 6.564 0 3.96 2.388 6.324 5.856 6.324Zm-3.6-7.428c-.012-1.848 1.092-3.78 3.432-3.78 2.244 0 3.312 1.644 3.312 3.78h-6.744ZM78.258 37h2.232V21.688h5.292v-2.04H72.654v2.04h5.604V37Zm13.51.24c2.412 0 4.74-1.332 5.195-3.864h-2.087c-.313 1.404-1.56 2.148-3.145 2.148-2.411 0-3.575-1.86-3.575-4.212h8.891v-.816c0-3.768-1.944-6.144-5.435-6.144-3.612 0-5.7 2.652-5.7 6.564 0 3.96 2.387 6.324 5.855 6.324Zm-3.6-7.428c-.013-1.848 1.091-3.78 3.431-3.78 2.245 0 3.313 1.644 3.313 3.78h-6.745ZM100.117 37h2.208v-7.716c0-2.064 1.608-2.904 3.588-2.772.252 0 .696.036.936.144v-2.148c-.204-.108-.588-.156-.948-.156-1.572 0-3.048.84-3.672 2.628v-2.388h-2.112V37Zm9.375 0h2.208v-8.292c0-1.74 1.524-2.472 2.796-2.472 1.152 0 2.52.744 2.52 2.22V37h2.208v-8.292c0-1.884 1.62-2.472 2.784-2.472 1.308 0 2.544.624 2.544 2.868V37h2.232v-8.112c0-3.672-2.292-4.536-4.044-4.536-1.644 0-3.012.816-3.78 2.028-.648-1.32-2.22-2.028-3.576-2.028-1.932 0-3.072.948-3.756 2.04v-1.8h-2.136V37Zm25.113.24c3.024 0 4.776-1.404 4.776-3.684 0-1.224-.624-2.736-2.904-3.336l-2.496-.624c-1.368-.336-2.088-.78-2.088-1.668 0-1.32 1.092-1.944 2.676-1.944 1.536 0 2.448.744 2.616 1.932h1.968c-.084-2.328-1.872-3.564-4.56-3.564-3.144 0-4.74 1.536-4.728 3.708.012 1.848 1.296 2.796 3.3 3.276l2.568.636c1.128.264 1.656.792 1.656 1.704 0 1.296-1.116 1.908-2.796 1.908-1.572 0-2.82-.744-3.132-2.196h-2.016c.36 2.676 2.568 3.852 5.16 3.852Zm7.16-.24h2.64v-2.832h-2.64V37Z"/>
</svg>
