<svg xmlns="http://www.w3.org/2000/svg" width="113" height="113" fill="none" viewBox="0 0 113 113">
  <rect width="110" height="110" x="1.5" y="1.5" stroke="#000" stroke-width="3" rx="55"/>
  <path fill="#000" d="M31.703 70.36c5.85 0 9.684-3.15 9.684-7.47 0-3.15-1.656-5.814-6.282-6.894l-5.22-1.35c-2.664-.666-4.05-1.8-4.05-3.942 0-2.34 1.926-4.284 5.652-4.284 3.078 0 5.76 1.224 6.102 4.77h3.42c-.018-3.942-3.294-7.542-9.414-7.542-5.292 0-9.288 2.916-9.288 7.326 0 3.996 2.52 5.886 6.192 6.768l5.364 1.386c2.808.756 4.122 1.944 4.122 4.014 0 2.826-2.826 4.446-6.138 4.446-3.438 0-6.174-1.548-6.822-4.5h-3.492c.666 4.788 5.112 7.272 10.17 7.272Zm24.65 0c6.948 0 11.232-4.86 11.232-13.32 0-8.55-4.32-13.428-11.231-13.428-6.913 0-11.304 4.896-11.304 13.428 0 8.496 4.338 13.32 11.303 13.32Zm0-2.898c-4.77 0-7.632-3.204-7.632-10.386 0-7.236 2.863-10.566 7.633-10.566s7.578 3.294 7.578 10.566c0 7.164-2.755 10.386-7.579 10.386Zm25.342 2.898c5.85 0 9.684-3.15 9.684-7.47 0-3.15-1.656-5.814-6.282-6.894l-5.22-1.35c-2.663-.666-4.05-1.8-4.05-3.942 0-2.34 1.927-4.284 5.653-4.284 3.078 0 5.76 1.224 6.102 4.77h3.42c-.018-3.942-3.294-7.542-9.414-7.542-5.292 0-9.288 2.916-9.288 7.326 0 3.996 2.52 5.886 6.192 6.768l5.364 1.386c2.808.756 4.122 1.944 4.122 4.014 0 2.826-2.826 4.446-6.138 4.446-3.439 0-6.175-1.548-6.823-4.5h-3.492c.666 4.788 5.112 7.272 10.17 7.272Z"/>
</svg>
