<svg xmlns="http://www.w3.org/2000/svg" width="134" height="34" fill="none" viewBox="0 0 134 34">
  <g filter="url(#a)">
    <path fill="#fff" d="M12.16 19h2.91V4.54h-2.91V19Zm5.781 0h2.92v-6.62c0-1.01.97-1.52 1.93-1.52.95 0 1.72.56 1.72 1.68V19h2.92v-6.82c0-2.56-1.73-3.61-3.62-3.61-1.63 0-2.53.8-3 1.55V8.66h-2.87V19ZM29.797 7.18h2.84V4.55h-2.84v2.63Zm.03 11.82h2.79V8.66h-2.79V19Zm9.762.11c1.01 0 1.53-.13 1.81-.25v-1.8h-1.39c-.64 0-.92-.1-.92-.86l-.02-5.51h2.3V8.65h-2.3V5.54h-2.08l-.74 3.12h-1.77v2.03h1.68v5.63c0 1.66.7 2.79 3.43 2.79Zm3.86-11.93h2.84V4.55h-2.84v2.63ZM43.48 19h2.79V8.66h-2.79V19Zm8.372.2c1.45 0 2.5-.48 3.21-1.98l.24 1.78h2.44v-7.27c0-2.03-1.21-3.27-4.37-3.27-2.59 0-4.46 1.04-4.57 3.28h2.43c.29-.95 1.15-1.3 2-1.31 1.17-.01 1.71.52 1.71 1.47v.62l-1.3.02c-3.65.04-5.28 1.24-5.28 3.5 0 2.02 1.52 3.16 3.49 3.16Zm.99-1.92c-.96 0-1.71-.57-1.71-1.53 0-1.26 1.3-1.69 2.76-1.71l1.05-.02v1.53c-.01.89-1.05 1.73-2.1 1.73Zm10.568 1.9c.39 0 .82-.11 1.22-.25v-1.8l-.49-.03c-.9-.1-1.17-.6-1.17-1.36V4.14h-2.86V16.1c0 1.49.24 3.08 3.3 3.08Zm3.185-12h2.84V4.55h-2.84v2.63Zm.03 11.82h2.79V8.66h-2.79V19Zm4.682 0h8.67v-2.04h-5.14l5.11-6.67V8.66h-8.38v2.04h4.84l-5.1 6.67V19ZM81.848 7.18h2.84V4.55h-2.84v2.63Zm.03 11.82h2.79V8.66h-2.79V19Zm5.36 0h2.92v-6.62c0-1.01.97-1.52 1.93-1.52.95 0 1.72.56 1.72 1.68V19h2.92v-6.82c0-2.56-1.73-3.61-3.62-3.61-1.63 0-2.53.8-3 1.55V8.66h-2.87V19Zm16.656 3.42c3.68 0 5.51-1.4 5.51-3.34 0-1.63-1.24-2.79-3.77-2.96-.91-.06-1.71-.1-2.15-.13-1.22-.07-1.81-.12-1.81-.45 0-.21.25-.39 1.03-.43.26.03.78.04 1.02.04 3.09 0 4.68-1.62 4.68-3.42 0-.27-.08-.72-.22-1.09l1.78-.29.02-2.26c-.87.36-2.42.98-3.04 1.22-.77-.48-1.59-.81-3.01-.81-2.81 0-4.9 1.2-4.9 3.24 0 1.15.72 2.35 2.09 2.98-1.43.25-2.12.94-2.12 1.67 0 .98.95 1.35 1.27 1.54-.2.11-2.01.54-2.01 1.95 0 1.52 1.95 2.54 5.63 2.54Zm-.08-8.9c-1.15 0-1.85-.66-1.85-1.69 0-1.07.74-1.79 1.85-1.79 1.1 0 1.83.71 1.83 1.79 0 1.05-.73 1.69-1.83 1.69Zm.55 7.27c-2.22 0-3.24-.38-3.24-1.25 0-.64.62-1.23 1.56-1.18l2.37.16c1.02.07 1.57.49 1.57 1.11 0 .75-.64 1.16-2.26 1.16Zm7.048-1.79h3.2v-3.18h-3.2V19Zm6.094 0h3.2v-3.18h-3.2V19Zm6.093 0h3.2v-3.18h-3.2V19Z"/>
  </g>
  <defs>
    <filter id="a" width="128.64" height="32.28" x="5.159" y="1.14" color-interpolation-filters="sRGB" filterUnits="userSpaceOnUse">
      <feFlood flood-opacity="0" result="BackgroundImageFix"/>
      <feColorMatrix in="SourceAlpha" result="hardAlpha" values="0 0 0 0 0 0 0 0 0 0 0 0 0 0 0 0 0 0 127 0"/>
      <feOffset dy="4"/>
      <feGaussianBlur stdDeviation="3.5"/>
      <feComposite in2="hardAlpha" operator="out"/>
      <feColorMatrix values="0 0 0 0 0 0 0 0 0 0 0 0 0 0 0 0 0 0 0.25 0"/>
      <feBlend in2="BackgroundImageFix" result="effect1_dropShadow_103_392"/>
      <feBlend in="SourceGraphic" in2="effect1_dropShadow_103_392" result="shape"/>
    </filter>
  </defs>
</svg>
