<svg xmlns="http://www.w3.org/2000/svg" width="1920" height="188" fill="none" viewBox="0 0 1920 188">
  <path fill="#D9D9D9" d="M1733.5.5h186v62h-186z"/>
  <path fill="#000" d="M1815.78 37h8.02v-1.984l-5.7-.008v-2.872h4.88v-1.928h-4.86V27.4h5.59l.01-1.968h-7.94V37Zm10.2 0h2.33v-7.96l5.49 7.96h2.11V25.432h-2.34v7.656l-5.28-7.656h-2.31V37Zm12.52 0h3.37c4.15 0 6.08-2.24 6.08-5.84 0-3.456-1.79-5.608-6-5.712-.99-.024-3.21-.016-3.45-.016V37Zm2.35-1.888V27.32h1.1c2.19 0 3.56 1.12 3.56 3.824 0 2.912-1.61 3.968-3.59 3.968h-1.07Zm17.45 2.048c1.87 0 2.79-.88 3.39-1.672V37h1.59v-6.04l-4.84-.024v1.616h2.4l-.09.704c-.12.824-.91 1.848-2.28 1.848-1.45 0-2.83-.864-2.83-3.92 0-2.824 1.19-3.936 2.73-3.936 1.27 0 2.11.912 2.32 2.016h2.47c-.09-2.056-1.99-3.992-4.73-3.992-3.2 0-5.34 2.296-5.34 5.976 0 3.616 2.03 5.912 5.21 5.912Zm6.71-.16h2.35l.96-2.68h4.17l.94 2.68h2.33l-4.14-11.568h-2.47L1865.01 37Zm3.84-4.72 1.54-4.6 1.53 4.6h-3.07Zm8.65 4.72h2.35v-8.808l2.77 8.808h1.83l2.78-8.848V37h2.36V25.432h-3.38l-2.67 8.248-2.65-8.248h-3.39V37Zm14.68 0h8.03v-1.984l-5.7-.008v-2.872h4.87v-1.928h-4.85V27.4h5.59l.01-1.968h-7.95V37Z"/>
  <path stroke="#000" d="M1733.5.5h186v62h-186z"/>
  <path fill="#D9D9D9" d="M1733.5 64.5h186v62h-186z"/>
  <path fill="#000" d="M1782.14 101h2.34v-9.488h3.42v-2.08h-9.26v2.08h3.5V101Zm12.12.16c3.25 0 5.29-2.256 5.29-5.92 0-3.704-2.08-5.968-5.29-5.968-3.24 0-5.34 2.272-5.34 5.968 0 3.68 2.06 5.92 5.34 5.92Zm0-1.92c-1.68 0-2.78-1.144-2.78-3.968 0-2.88 1.1-4.08 2.78-4.08 1.68 0 2.76 1.192 2.76 4.08 0 2.824-1.08 3.968-2.76 3.968Zm11.93 1.92c1.87 0 2.79-.88 3.39-1.672V101h1.59v-6.04l-4.84-.024v1.616h2.4l-.09.704c-.12.824-.91 1.848-2.28 1.848-1.45 0-2.83-.864-2.83-3.92 0-2.824 1.19-3.936 2.73-3.936 1.27 0 2.11.912 2.32 2.016h2.47c-.09-2.056-1.99-3.992-4.73-3.992-3.2 0-5.34 2.296-5.34 5.976 0 3.616 2.03 5.912 5.21 5.912Zm12.14 0c1.87 0 2.79-.88 3.39-1.672V101h1.6v-6.04l-4.84-.024v1.616h2.39l-.09.704c-.12.824-.91 1.848-2.28 1.848-1.45 0-2.83-.864-2.83-3.92 0-2.824 1.19-3.936 2.73-3.936 1.28 0 2.11.912 2.32 2.016h2.47c-.09-2.056-1.99-3.992-4.73-3.992-3.2 0-5.34 2.296-5.34 5.976 0 3.616 2.03 5.912 5.21 5.912Zm7.46-.16h7.38v-1.976h-5.03v-9.592h-2.35V101Zm9.24 0h8.02v-1.984l-5.7-.008v-2.872h4.88v-1.928h-4.86V91.4h5.59l.01-1.968h-7.94V101Zm13.76 0h2.35v-8.808l2.77 8.808h1.83l2.79-8.848V101h2.36V89.432h-3.39l-2.67 8.248-2.65-8.248h-3.39V101Zm19.14.16c3.37 0 4.63-1.76 4.63-4.568v-7.16h-2.36v7.256c0 1.744-.94 2.488-2.27 2.488s-2.25-.76-2.25-2.488v-7.256h-2.37v7.08c0 2.88 1.24 4.648 4.62 4.648Zm11.29 0c2.73 0 4.66-1.44 4.66-3.536 0-1.64-.91-2.864-3.15-3.304l-2.01-.432c-1.08-.224-1.54-.64-1.54-1.344 0-.744.62-1.408 2.01-1.408 1.21 0 2.1.456 2.23 1.656h2.34c-.03-1.952-1.63-3.504-4.51-3.504-2.56 0-4.52 1.328-4.52 3.488 0 1.872 1.16 2.856 3.02 3.24l2.17.472c1 .232 1.61.576 1.61 1.368 0 1-1.08 1.472-2.17 1.472-1.39 0-2.35-.584-2.58-1.632h-2.39c.24 2.32 2.52 3.464 4.83 3.464Zm6.71-.16h2.33V89.432h-2.33V101Zm9.64.16c3.25 0 4.43-1.96 4.71-4.16h-2.45c-.22 1.208-1 2.24-2.34 2.24-1.61 0-2.6-1.208-2.6-4.088 0-2.856.99-3.96 2.6-3.96 1.34 0 2.12.864 2.34 2.072h2.45c-.23-2.272-2.11-3.992-4.71-3.992-3.26 0-5.24 2.208-5.24 5.848 0 3.64 2 6.04 5.24 6.04Z"/>
  <path stroke="#000" d="M1733.5 64.5h186v62h-186z"/>
  <path fill="#D9D9D9" d="M1733.5 125.5h186v62h-186z"/>
  <path fill="#000" d="M1849.25 162h2.35v-4.128h2.21c2.48 0 4.12-1.344 4.12-3.648 0-2.448-1.91-3.792-4.43-3.792h-4.25V162Zm2.32-5.936v-3.84h2.14c1.13 0 2.03.728 2.03 1.88 0 1.112-.83 1.96-2 1.96h-2.17Zm6.15 5.936h2.34l.96-2.68h4.17l.94 2.68h2.33l-4.13-11.568h-2.48L1857.72 162Zm3.83-4.72 1.54-4.6 1.53 4.6h-3.07Zm12.63 4.88c3.37 0 4.63-1.76 4.63-4.568v-7.16h-2.36v7.256c0 1.744-.94 2.488-2.27 2.488s-2.25-.76-2.25-2.488v-7.256h-2.37v7.08c0 2.88 1.24 4.648 4.62 4.648Zm11.29 0c2.73 0 4.66-1.44 4.66-3.536 0-1.64-.91-2.864-3.15-3.304l-2.01-.432c-1.08-.224-1.54-.64-1.54-1.344 0-.744.62-1.408 2.01-1.408 1.21 0 2.1.456 2.23 1.656h2.34c-.03-1.952-1.63-3.504-4.51-3.504-2.56 0-4.52 1.328-4.52 3.488 0 1.872 1.16 2.856 3.02 3.24l2.17.472c1 .232 1.61.576 1.61 1.368 0 1-1.08 1.472-2.17 1.472-1.39 0-2.35-.584-2.58-1.632h-2.39c.24 2.32 2.52 3.464 4.83 3.464Zm6.71-.16h8.03v-1.984l-5.7-.008v-2.872h4.87v-1.928h-4.85V152.4h5.59l.01-1.968h-7.95V162Z"/>
  <path stroke="#000" d="M1733.5 125.5h186v62h-186z"/>
  <path fill="#fff" d="M1 1h432v92H1z"/>
  <path fill="#000" d="M42.75 56.24c4.092 0 6.984-2.16 6.984-5.304 0-2.46-1.368-4.296-4.728-4.956l-3.012-.648c-1.62-.336-2.304-.96-2.304-2.016 0-1.116.924-2.112 3.012-2.112 1.812 0 3.156.684 3.348 2.484h3.504c-.036-2.928-2.436-5.256-6.756-5.256-3.852 0-6.792 1.992-6.792 5.232 0 2.808 1.752 4.284 4.536 4.86l3.252.708c1.5.348 2.412.864 2.412 2.052 0 1.5-1.62 2.208-3.252 2.208-2.088 0-3.516-.876-3.864-2.448h-3.588c.36 3.48 3.78 5.196 7.248 5.196ZM52.817 56h12.036v-2.976l-8.544-.012v-4.308h7.308v-2.892h-7.284V41.6h8.388l.012-2.952H52.817V56Zm19.576 0h3.516V41.768h5.124v-3.12H67.15v3.12h5.244V56Zm15.61 0h3.515V41.768h5.124v-3.12H82.758v3.12h5.244V56Zm11.032 0h3.492V38.648h-3.492V56Zm7.383 0h3.492V44.06L118.154 56h3.156V38.648h-3.504v11.484l-7.92-11.484h-3.468V56Zm25.794.24c2.808 0 4.188-1.32 5.088-2.508V56h2.388v-9.06l-7.26-.036v2.424h3.588l-.132 1.056c-.18 1.236-1.368 2.772-3.42 2.772-2.172 0-4.248-1.296-4.248-5.88 0-4.236 1.788-5.904 4.104-5.904 1.908 0 3.156 1.368 3.48 3.024h3.696c-.132-3.084-2.976-5.988-7.092-5.988-4.8 0-8.004 3.444-8.004 8.964 0 5.424 3.036 8.868 7.812 8.868Zm17.648 0c4.092 0 6.984-2.16 6.984-5.304 0-2.46-1.368-4.296-4.728-4.956l-3.012-.648c-1.62-.336-2.304-.96-2.304-2.016 0-1.116.924-2.112 3.012-2.112 1.812 0 3.156.684 3.348 2.484h3.504c-.036-2.928-2.436-5.256-6.756-5.256-3.852 0-6.792 1.992-6.792 5.232 0 2.808 1.752 4.284 4.536 4.86l3.252.708c1.5.348 2.412.864 2.412 2.052 0 1.5-1.62 2.208-3.252 2.208-2.088 0-3.516-.876-3.864-2.448h-3.588c.36 3.48 3.78 5.196 7.248 5.196ZM417 43.022l-54 28.512V14.51l54 28.512Z"/>
  <path stroke="#000" stroke-width="2" d="M1 1h432v92H1z"/>
  <path fill="#fff" d="M431 1h432v92H431z"/>
  <path fill="#000" d="M466.246 56h3.492v-7.452h7.596V56h3.504V38.648h-3.504v6.96h-7.596v-6.96h-3.492V56Zm18.469 0h12.036v-2.976l-8.544-.012v-4.308h7.308v-2.892h-7.284V41.6h8.388l.012-2.952h-11.916V56Zm15.305 0h11.064v-2.964h-7.536V38.648h-3.528V56Zm13.851 0h3.528v-6.192h3.312c3.732 0 6.18-2.016 6.18-5.472 0-3.672-2.856-5.688-6.636-5.688h-6.384V56Zm3.492-8.904v-5.76h3.204c1.692 0 3.048 1.092 3.048 2.82 0 1.668-1.248 2.94-3 2.94h-3.252ZM847 43.022l-54 28.512V14.51l54 28.512Z"/>
  <path stroke="#000" stroke-width="2" d="M431 1h432v92H431z"/>
  <path fill="#fff" d="M431 95h432v92H431z"/>
  <path fill="#000" d="M466.246 150h11.064v-2.964h-7.536v-14.388h-3.528V150Zm13.852 0h12.036v-2.976l-8.544-.012v-4.308h7.308v-2.892h-7.284V135.6h8.388l.012-2.952h-11.916V150Zm13.997 0h3.516l1.44-4.02h6.252l1.416 4.02h3.492l-6.204-17.352h-3.708L494.095 150Zm5.748-7.08 2.316-6.9 2.292 6.9h-4.608Zm12.974 7.08h5.064c6.216 0 9.12-3.36 9.12-8.76 0-5.184-2.688-8.412-9-8.568-1.488-.036-4.824-.024-5.184-.024V150Zm3.528-2.832V135.48h1.656c3.288 0 5.34 1.68 5.34 5.736 0 4.368-2.412 5.952-5.388 5.952h-1.608ZM530.09 150h12.036v-2.976l-8.544-.012v-4.308h7.308v-2.892h-7.284V135.6h8.388l.012-2.952H530.09V150Zm15.305 0h3.492v-6.684h3.516l2.82 6.684h3.636l-3.228-7.272c1.632-.804 3.048-2.16 3.048-4.896 0-3.048-1.812-5.184-5.964-5.184h-7.32V150Zm3.492-9.384v-5.292h3.456c1.608 0 2.796.996 2.796 2.592s-1.176 2.7-3.048 2.7h-3.204ZM562.106 150h6.576c4.74 0 6.828-1.5 6.828-4.704 0-1.608-.528-3.42-3.42-4.188 2.256-.948 3.012-2.184 3.012-3.912 0-2.928-2.16-4.548-6.708-4.548h-6.288V150Zm3.492-10.176v-4.464h3.108c1.752 0 3.012.792 3.012 2.292 0 1.524-1.344 2.172-2.772 2.172h-3.348Zm0 7.464v-4.68h3.348c1.716 0 3.012.804 3.012 2.34 0 1.428-1.104 2.34-3.204 2.34h-3.156Zm20.103 2.952c4.884 0 7.944-3.384 7.944-8.88 0-5.556-3.12-8.952-7.944-8.952-4.848 0-8.004 3.408-8.004 8.952 0 5.52 3.084 8.88 8.004 8.88Zm0-2.88c-2.52 0-4.164-1.716-4.164-5.952 0-4.32 1.644-6.12 4.164-6.12 2.52 0 4.14 1.788 4.14 6.12 0 4.236-1.608 5.952-4.14 5.952Zm8.918 2.64h3.516l1.44-4.02h6.252l1.416 4.02h3.492l-6.204-17.352h-3.708L594.619 150Zm5.748-7.08 2.316-6.9 2.292 6.9h-4.608ZM613.34 150h3.492v-6.684h3.516l2.82 6.684h3.636l-3.228-7.272c1.632-.804 3.048-2.16 3.048-4.896 0-3.048-1.812-5.184-5.964-5.184h-7.32V150Zm3.492-9.384v-5.292h3.456c1.608 0 2.796.996 2.796 2.592s-1.176 2.7-3.048 2.7h-3.204ZM630.051 150h5.064c6.216 0 9.12-3.36 9.12-8.76 0-5.184-2.688-8.412-9-8.568-1.488-.036-4.824-.024-5.184-.024V150Zm3.528-2.832V135.48h1.656c3.288 0 5.34 1.68 5.34 5.736 0 4.368-2.412 5.952-5.388 5.952h-1.608ZM847 137.022l-54 28.512V108.51l54 28.512Z"/>
  <path stroke="#000" stroke-width="2" d="M431 95h432v92H431z"/>
  <path fill="#fff" d="M1 95h432v92H1z"/>
  <path fill="#000" d="M36.246 150h12.036v-2.976l-8.544-.012v-4.308h7.308v-2.892h-7.284V135.6h8.388l.012-2.952H36.246V150Zm14.42 0h3.768l3.84-6.264L62.186 150h4.368l-6.108-9.264 5.352-8.088h-3.72l-3.432 5.616-3.468-5.616h-4.332l5.592 8.544L50.666 150Zm18.487 0h3.528v-6.192h3.312c3.732 0 6.18-2.016 6.18-5.472 0-3.672-2.856-5.688-6.636-5.688h-6.384V150Zm3.492-8.904v-5.76h3.204c1.692 0 3.048 1.092 3.048 2.82 0 1.668-1.248 2.94-3 2.94h-3.252ZM81.86 150h3.516l1.44-4.02h6.252l1.416 4.02h3.492l-6.204-17.352h-3.708L81.86 150Zm5.748-7.08 2.316-6.9 2.292 6.9h-4.608Zm12.973 7.08h3.492v-11.94l8.244 11.94h3.156v-17.352h-3.504v11.484l-7.92-11.484h-3.468V150Zm18.774 0h5.064c6.216 0 9.12-3.36 9.12-8.76 0-5.184-2.688-8.412-9-8.568-1.488-.036-4.824-.024-5.184-.024V150Zm3.528-2.832V135.48h1.656c3.288 0 5.34 1.68 5.34 5.736 0 4.368-2.412 5.952-5.388 5.952h-1.608Zm19.16 2.832h3.528v-13.212L149.723 150h2.748l4.176-13.272V150h3.54v-17.352h-5.076l-4.008 12.372-3.972-12.372h-5.088V150Zm20.748 0h3.516l1.44-4.02h6.252l1.416 4.02h3.492l-6.204-17.352h-3.708L162.791 150Zm5.748-7.08 2.316-6.9 2.292 6.9h-4.608Zm12.973 7.08h3.528v-6.192h3.312c3.732 0 6.18-2.016 6.18-5.472 0-3.672-2.856-5.688-6.636-5.688h-6.384V150Zm3.492-8.904v-5.76h3.204c1.692 0 3.048 1.092 3.048 2.82 0 1.668-1.248 2.94-3 2.94h-3.252ZM417 137.022l-54 28.512V108.51l54 28.512Z"/>
  <path stroke="#000" stroke-width="2" d="M1 95h432v92H1z"/>
  <path fill="#fff" d="M865 1h432v61H865z"/>
  <path fill="#000" d="M1156.9 37h1.48v-4.984h3.12l2.11 4.984h1.57l-2.28-5.248c1.11-.416 2.24-1.28 2.24-3.16 0-1.968-1.25-3.16-3.76-3.16h-4.48V37Zm1.48-6.208V26.64h2.88c1.48 0 2.37.68 2.37 2.04 0 1.4-.99 2.112-2.73 2.112h-2.52Zm9.35 6.208h7.45v-1.32l-5.97-.016v-3.856h5.23v-1.296h-5.22v-3.776h5.8l.01-1.304h-7.3V37Zm10.03 0h1.52v-4.28h2.59c2.44 0 4.09-1.32 4.09-3.632 0-2.384-1.81-3.656-4.29-3.656h-3.91V37Zm1.51-5.528v-4.808h2.5c1.62 0 2.75.8 2.75 2.336 0 1.52-1.09 2.472-2.68 2.472h-2.57ZM1190.98 37h1.5l1.14-3.168h4.75L1199.5 37h1.52l-4.19-11.568h-1.67L1190.98 37Zm3.04-4.528 1.97-5.592 1.97 5.592h-3.94Zm12.87 4.688c2.76 0 4.13-1.824 4.37-3.8h-1.57c-.27 1.352-1.21 2.512-2.84 2.512-2.11 0-3.24-1.456-3.24-4.68 0-3.2 1.13-4.632 3.24-4.632 1.63 0 2.57 1.08 2.84 2.44h1.57c-.21-2.024-1.93-3.728-4.37-3.728-3.13 0-4.92 2.136-4.92 5.904 0 3.776 1.8 5.984 4.92 5.984Zm11.02 0c2.76 0 4.13-1.824 4.37-3.8h-1.58c-.26 1.352-1.21 2.512-2.83 2.512-2.11 0-3.24-1.456-3.24-4.68 0-3.2 1.13-4.632 3.24-4.632 1.62 0 2.57 1.08 2.83 2.44h1.58c-.22-2.024-1.93-3.728-4.37-3.728-3.14 0-4.92 2.136-4.92 5.904 0 3.776 1.8 5.984 4.92 5.984Zm6.76-.16h1.48v-4.984h3.11l2.11 4.984h1.57l-2.27-5.248c1.1-.416 2.24-1.28 2.24-3.16 0-1.968-1.26-3.16-3.76-3.16h-4.48V37Zm1.48-6.208V26.64h2.87c1.48 0 2.38.68 2.38 2.04 0 1.4-1 2.112-2.73 2.112h-2.52Zm13.27 6.368c2.97 0 4.24-1.496 4.24-4.16v-7.568h-1.49v7.64c0 1.888-1.01 2.792-2.75 2.792-1.73 0-2.68-.92-2.68-2.792v-7.64h-1.54v7.416c0 2.792 1.22 4.312 4.22 4.312Zm6.98-.16h7.45v-1.32l-5.97-.016v-3.856h5.24v-1.296h-5.23v-3.776h5.8l.01-1.304h-7.3V37Zm10.03 0h2.54c4.2 0 6.17-2.016 6.17-5.856 0-3.656-1.77-5.64-6.02-5.696-.97-.008-2.55-.016-2.69-.016V37Zm1.52-1.272v-9.024h1.08c2.87 0 4.55 1.12 4.55 4.464 0 3.344-1.75 4.56-4.61 4.56h-1.02Zm-213.78 1.448c2.61 0 4.4-1.68 4.4-3.952 0-2.144-1.59-3.544-3.93-3.544-1.1 0-2.1.448-2.63 1.208-.23-2.248.64-3.768 2.3-3.768 1.02 0 1.68.512 1.96 1.488h2.14c-.12-2.104-1.98-3.336-4.15-3.336-3.04 0-4.85 2.36-4.85 6.168 0 3.472 1.8 5.736 4.76 5.736Zm-.08-1.792c-1.19 0-2.01-.936-1.99-2.488 0-.704 1-1.472 2-1.472 1.13 0 2 .64 2 1.912 0 1.2-.9 2.048-2.01 2.048Zm10.25 1.792c2.65.008 4.81-1.184 4.81-3.456 0-1.56-1.09-2.448-2.38-2.8 1.49-.504 2.11-1.4 2.11-2.544 0-2.12-1.9-3.104-4.49-3.104-2.46 0-4.4 1.232-4.4 3.72h2.24c.08-1.408 1.01-1.912 2.12-1.912 1.2 0 2.05.56 2.05 1.4 0 .888-.82 1.52-2.07 1.576l-.99.056v1.856l1.1.04c1.3.032 2.23.648 2.23 1.64 0 .96-.88 1.64-2.31 1.64-1.1 0-1.97-.544-2.19-1.864h-2.25c.03 2.328 1.63 3.744 4.42 3.752Zm10.94 0c2.6 0 4.4-1.68 4.4-3.952 0-2.144-1.59-3.544-3.93-3.544-1.1 0-2.11.448-2.63 1.208-.23-2.248.64-3.768 2.3-3.768 1.02 0 1.68.512 1.96 1.488h2.14c-.12-2.104-1.98-3.336-4.15-3.336-3.04 0-4.85 2.36-4.85 6.168 0 3.472 1.8 5.736 4.76 5.736Zm-.08-1.792c-1.2 0-2.01-.936-2-2.488 0-.704 1.01-1.472 2-1.472 1.14 0 2 .64 2 1.912 0 1.2-.89 2.048-2 2.048Zm5.97 1.616h2.56v-2.544h-2.56V37Zm8.69.176c2.78 0 4.44-2.104 4.44-5.936 0-3.848-1.69-5.968-4.44-5.968-2.76 0-4.47 2.128-4.47 5.976 0 3.824 1.67 5.928 4.47 5.928Zm0-1.912c-1.4 0-2.04-1.136-2.04-4.016 0-2.936.66-4.136 2.03-4.136 1.37 0 2 1.184 2 4.136 0 2.896-.61 4.016-1.99 4.016Z"/>
  <path stroke="#000" stroke-width="2" d="M865 1h432v61H865z"/>
  <path fill="#fff" d="M865 63h432v61H865z"/>
  <path fill="#000" d="M1137.47 99h1.52v-9.264l3.32 9.264h1.39l3.35-9.352V99h1.53V87.432h-2.04l-3.54 9.552-3.49-9.552h-2.04V99Zm13.3 0h1.51l1.14-3.168h4.75L1159.3 99h1.51l-4.18-11.568h-1.67L1150.77 99Zm3.04-4.528 1.98-5.592 1.97 5.592h-3.95ZM1163 99h1.48V87.432H1163V99Zm4.53 0h1.48v-9.12l6.21 9.12h1.32V87.432h-1.48v8.992l-6.12-8.992h-1.41V99Zm20.31.16c3.09 0 4.99-2.16 4.99-5.92 0-3.8-1.92-5.968-4.99-5.968-3.07 0-5.02 2.176-5.02 5.968 0 3.776 1.93 5.92 5.02 5.92Zm0-1.288c-2.12 0-3.39-1.424-3.39-4.616 0-3.216 1.27-4.696 3.39-4.696s3.37 1.464 3.37 4.696c0 3.184-1.22 4.616-3.37 4.616Zm7.39 1.128h3.84c2.95 0 4.45-1.016 4.45-3.112 0-1.304-.61-2.392-2.43-2.784 1.58-.56 2.14-1.432 2.14-2.656 0-1.952-1.47-3.016-4.28-3.016h-3.72V99Zm1.48-6.48v-3.864h2.31c1.64 0 2.78.632 2.78 1.976 0 1.464-1.37 1.888-2.57 1.888h-2.52Zm0 5.248v-3.992h2.52c1.55 0 2.79.6 2.79 2.048 0 1.32-1.04 1.944-2.96 1.944h-2.35Zm10.26 1.392c1.96 0 2.46-1.04 2.46-2.888v-8.84h-1.48v8.416c0 1.368-.33 1.888-1.37 1.888-.65 0-1.05-.232-1.37-.352l-.11 1.416c.23.096 1.05.36 1.87.36Zm5.21-.16h7.45v-1.32l-5.97-.016v-3.856h5.24v-1.296h-5.23v-3.776h5.8l.01-1.304h-7.3V99Zm14.15.16c2.76 0 4.13-1.824 4.37-3.8h-1.58c-.26 1.352-1.21 2.512-2.83 2.512-2.11 0-3.24-1.456-3.24-4.68 0-3.2 1.13-4.632 3.24-4.632 1.62 0 2.57 1.08 2.83 2.44h1.58c-.22-2.024-1.93-3.728-4.37-3.728-3.14 0-4.92 2.136-4.92 5.904 0 3.776 1.8 5.984 4.92 5.984Zm9.06-.16h1.48V88.792h3.53v-1.36h-8.75v1.36h3.74V99Zm6.92 0h1.48V87.432h-1.48V99Zm7.49 0h1.78l4.12-11.568h-1.47l-3.54 9.888-3.55-9.888h-1.46L1249.8 99Zm7.81 0h7.44v-1.32l-5.96-.016v-3.856h5.23v-1.296h-5.23v-3.776h5.8l.01-1.304h-7.29V99Zm-277.33 0h2.328V87.432h-2.328V99Zm4.922 0h2.328v-7.96l5.496 7.96h2.104V87.432h-2.336v7.656l-5.28-7.656h-2.312V99Zm17.228.16c3.26 0 4.43-1.96 4.71-4.16h-2.45c-.21 1.208-1 2.24-2.33 2.24-1.62 0-2.602-1.208-2.602-4.088 0-2.856.982-3.96 2.602-3.96 1.33 0 2.12.864 2.33 2.072h2.45c-.23-2.272-2.1-3.992-4.71-3.992-3.256 0-5.24 2.208-5.24 5.848 0 3.64 2.008 6.04 5.24 6.04Zm11.58 0c3.26 0 5.3-2.256 5.3-5.92 0-3.704-2.08-5.968-5.3-5.968-3.23 0-5.34 2.272-5.34 5.968 0 3.68 2.06 5.92 5.34 5.92Zm0-1.92c-1.68 0-2.78-1.144-2.78-3.968 0-2.88 1.1-4.08 2.78-4.08 1.68 0 2.76 1.192 2.76 4.08 0 2.824-1.07 3.968-2.76 3.968Zm7.36 1.76h2.36v-8.808l2.76 8.808h1.84l2.78-8.848V99h2.36V87.432h-3.38l-2.68 8.248-2.64-8.248h-3.4V99Zm14.69 0h2.35v-4.128h2.21c2.49 0 4.12-1.344 4.12-3.648 0-2.448-1.9-3.792-4.42-3.792h-4.26V99Zm2.33-5.936v-3.84h2.14c1.12 0 2.03.728 2.03 1.88 0 1.112-.83 1.96-2 1.96h-2.17ZM1046.5 99h7.38v-1.976h-5.03v-9.592h-2.35V99Zm9.23 0h8.03v-1.984l-5.7-.008v-2.872h4.87v-1.928h-4.85V89.4h5.59l.01-1.968h-7.95V99Zm13.05 0h2.35v-9.488h3.41v-2.08h-9.25v2.08h3.49V99Zm7.36 0h8.02v-1.984l-5.69-.008v-2.872h4.87v-1.928h-4.86V89.4h5.6v-1.968h-7.94V99Z"/>
  <path stroke="#000" stroke-width="2" d="M865 63h432v61H865z"/>
  <path fill="#fff" d="M865 126h432v61H865z"/>
  <path fill="#000" d="M1136.78 162h1.48v-10.208h3.53v-1.36h-8.75v1.36h3.74V162Zm6.92 0h1.48v-11.568h-1.48V162Zm4.53 0h1.52v-9.264l3.33 9.264h1.38l3.36-9.352V162h1.52v-11.568h-2.04l-3.53 9.552-3.49-9.552h-2.05V162Zm14.17 0h7.45v-1.32l-5.97-.016v-3.856h5.24v-1.296h-5.23v-3.776h5.8l.01-1.304h-7.3V162Zm13.82 0h1.48v-4.984h3.11l2.11 4.984h1.57l-2.27-5.248c1.1-.416 2.24-1.28 2.24-3.16 0-1.968-1.26-3.16-3.76-3.16h-4.48V162Zm1.48-6.208v-4.152h2.87c1.48 0 2.37.68 2.37 2.04 0 1.4-.99 2.112-2.72 2.112h-2.52Zm9.34 6.208h7.45v-1.32l-5.97-.016v-3.856h5.24v-1.296h-5.23v-3.776h5.8l.01-1.304h-7.3V162Zm10.03 0h1.52v-9.264l3.33 9.264h1.39l3.35-9.352V162h1.53v-11.568h-2.04l-3.54 9.552-3.49-9.552h-2.05V162Zm13.31 0h1.51l1.14-3.168h4.74l1.14 3.168h1.51l-4.18-11.568h-1.67L1210.38 162Zm3.04-4.528 1.98-5.592 1.97 5.592h-3.95Zm9.19 4.528h1.48v-11.568h-1.48V162Zm4.53 0h1.48v-9.12l6.21 9.12h1.32v-11.568h-1.48v8.992l-6.12-8.992h-1.41V162Zm12.06 0h1.48v-11.568h-1.48V162Zm4.53 0h1.48v-9.12l6.21 9.12h1.32v-11.568h-1.48v8.992l-6.11-8.992h-1.42V162Zm16.31.16c1.83 0 2.88-.92 3.49-1.92V162h1.11v-5.968l-4.35-.008v1.088h2.82l-.05 1.024c-.06 1.152-1.01 2.688-2.94 2.688s-3.39-1.304-3.39-4.608c0-3.192 1.35-4.632 3.35-4.632 1.47 0 2.56 1.136 2.79 2.416h1.59c-.13-1.944-2.02-3.728-4.35-3.728-3.07 0-4.98 2.208-4.98 5.976 0 3.744 1.86 5.912 4.91 5.912ZM900.518 162h2.368v-11.568h-1.552c-.104.992-.896 1.584-2.88 1.584v1.32h2.064V162Zm8.997 0h2.352v-8.808l2.768 8.808h1.832l2.784-8.848V162h2.36v-11.568h-3.384l-2.672 8.248-2.648-8.248h-3.392V162Zm14.687 0h2.328v-11.568h-2.328V162Zm4.922 0h2.328v-7.96l5.496 7.96h2.104v-11.568h-2.336v7.656l-5.28-7.656h-2.312V162Zm16.968.16c3.368 0 4.632-1.76 4.632-4.568v-7.16h-2.36v7.256c0 1.744-.944 2.488-2.272 2.488-1.336 0-2.248-.76-2.248-2.488v-7.256h-2.376v7.08c0 2.88 1.24 4.648 4.624 4.648Zm9.458-.16h2.344v-9.488h3.416v-2.08h-9.256v2.08h3.496V162Zm7.355 0h8.024v-1.984l-5.696-.008v-2.872h4.872v-1.928h-4.856V152.4h5.592l.008-1.968h-7.944V162Zm15.206-3.872a2.021 2.021 0 0 0 2.008-2.016c0-1.096-.904-2-2.008-2a2 2 0 0 0-2 2 2.01 2.01 0 0 0 2 2.016Zm9.266 3.872h2.368v-11.568h-1.552c-.104.992-.896 1.584-2.88 1.584v1.32h2.064V162Zm4.996 0h8.497v-1.968h-5.897v-.104c0-2.456 5.907-2.064 5.907-6.16 0-2.088-1.603-3.496-4.195-3.496-3.016 0-4.512 1.752-4.528 3.96h2.232c.184-1.352 1.064-2.024 2.232-2.024 1.112 0 1.808.656 1.808 1.576 0 2.52-6.056 2.368-6.056 6.472V162Zm18.497.16c2.72 0 4.65-1.44 4.65-3.536 0-1.64-.91-2.864-3.15-3.304l-2.01-.432c-1.08-.224-1.53-.64-1.53-1.344 0-.744.61-1.408 2-1.408 1.21 0 2.11.456 2.24 1.656h2.33c-.02-1.952-1.62-3.504-4.5-3.504-2.57 0-4.53 1.328-4.53 3.488 0 1.872 1.17 2.856 3.02 3.24l2.17.472c1 .232 1.61.576 1.61 1.368 0 1-1.08 1.472-2.17 1.472-1.39 0-2.34-.584-2.57-1.632h-2.4c.24 2.32 2.52 3.464 4.84 3.464Zm6.71-.16h8.02v-1.984l-5.69-.008v-2.872h4.87v-1.928h-4.86V152.4h5.59l.01-1.968h-7.94V162Zm14.8.16c3.26 0 4.44-1.96 4.72-4.16h-2.45c-.22 1.208-1 2.24-2.34 2.24-1.61 0-2.6-1.208-2.6-4.088 0-2.856.99-3.96 2.6-3.96 1.34 0 2.12.864 2.34 2.072h2.45c-.24-2.272-2.11-3.992-4.72-3.992-3.25 0-5.24 2.208-5.24 5.848 0 3.64 2.01 6.04 5.24 6.04Zm11.58 0c3.26 0 5.3-2.256 5.3-5.92 0-3.704-2.08-5.968-5.3-5.968-3.23 0-5.33 2.272-5.33 5.968 0 3.68 2.05 5.92 5.33 5.92Zm0-1.92c-1.68 0-2.77-1.144-2.77-3.968 0-2.88 1.09-4.08 2.77-4.08s2.76 1.192 2.76 4.08c0 2.824-1.07 3.968-2.76 3.968Zm7.37 1.76h2.33v-7.96l5.49 7.96h2.11v-11.568h-2.34v7.656l-5.28-7.656h-2.31V162Zm12.51 0h3.38c4.14 0 6.08-2.24 6.08-5.84 0-3.456-1.79-5.608-6-5.712-.99-.024-3.22-.016-3.46-.016V162Zm2.35-1.888v-7.792h1.11c2.19 0 3.56 1.12 3.56 3.824 0 2.912-1.61 3.968-3.59 3.968h-1.08Zm13.36 2.048c2.73 0 4.66-1.44 4.66-3.536 0-1.64-.91-2.864-3.15-3.304l-2.01-.432c-1.08-.224-1.54-.64-1.54-1.344 0-.744.62-1.408 2.01-1.408 1.21 0 2.11.456 2.23 1.656h2.34c-.02-1.952-1.62-3.504-4.5-3.504-2.57 0-4.53 1.328-4.53 3.488 0 1.872 1.17 2.856 3.02 3.24l2.17.472c1 .232 1.61.576 1.61 1.368 0 1-1.08 1.472-2.17 1.472-1.39 0-2.34-.584-2.58-1.632h-2.39c.24 2.32 2.52 3.464 4.83 3.464Z"/>
  <path stroke="#000" stroke-width="2" d="M865 126h432v61H865z"/>
  <path fill="#fff" d="M1299 1h432v61h-432z"/>
  <path fill="#000" d="M1633.25 37h1.48v-5.336h6.24V37h1.48V25.432h-1.48v4.928h-6.24v-4.928h-1.48V37Zm12.25 0h7.45v-1.32l-5.97-.016v-3.856h5.24v-1.296h-5.23v-3.776h5.8l.01-1.304h-7.3V37Zm8.95 0h1.51l1.14-3.168h4.75l1.13 3.168h1.51l-4.18-11.568h-1.67L1654.45 37Zm3.04-4.528 1.98-5.592 1.97 5.592h-3.95Zm9.19 4.528h6.98v-1.328h-5.46v-10.24h-1.52V37Zm10.31 0h1.48V26.792h3.53v-1.36h-8.75v1.36h3.74V37Zm6.92 0h1.48v-5.336h6.24V37h1.48V25.432h-1.48v4.928h-6.24v-4.928h-1.48V37Zm-325.07 3.576c4.97 0 9.04-4.104 9.04-9.072 0-4.932-4.07-9-9.04-9-5 0-9 4.068-9 9 0 4.968 4 9.072 9 9.072Zm25.38 0c4.97 0 9.04-4.104 9.04-9.072 0-4.932-4.07-9-9.04-9-5 0-9 4.068-9 9 0 4.968 4 9.072 9 9.072Zm25.39 0c4.96 0 9.03-4.104 9.03-9.072 0-4.932-4.07-9-9.03-9-5.01 0-9 4.068-9 9 0 4.968 3.99 9.072 9 9.072Zm25.38 0c4.97 0 9.03-4.104 9.03-9.072 0-4.932-4.06-9-9.03-9-5.01 0-9 4.068-9 9 0 4.968 3.99 9.072 9 9.072Zm25.38 0c4.97 0 9.04-4.104 9.04-9.072 0-4.932-4.07-9-9.04-9-5 0-9 4.068-9 9 0 4.968 4 9.072 9 9.072Zm25.38 0c4.97 0 9.04-4.104 9.04-9.072 0-4.932-4.07-9-9.04-9-5 0-9 4.068-9 9 0 4.968 4 9.072 9 9.072Zm25.39 0c4.96 0 9.03-4.104 9.03-9.072 0-4.932-4.07-9-9.03-9-5.01 0-9 4.068-9 9 0 4.968 3.99 9.072 9 9.072Zm25.38 0c4.97 0 9.04-4.104 9.04-9.072 0-4.932-4.07-9-9.04-9-5 0-9 4.068-9 9 0 4.968 4 9.072 9 9.072Zm25.38 0c4.97 0 9.04-4.104 9.04-9.072 0-4.932-4.07-9-9.04-9-5 0-9 4.068-9 9 0 4.968 4 9.072 9 9.072Zm25.39 0c4.96 0 9.03-4.104 9.03-9.072 0-4.932-4.07-9-9.03-9-5.01 0-9 4.068-9 9 0 4.968 3.99 9.072 9 9.072Z"/>
  <path stroke="#000" stroke-width="2" d="M1299 1h432v61h-432z"/>
  <path fill="#fff" d="M1299 63h432v61h-432z"/>
  <path fill="#000" d="M1649.85 99.16c2.6 0 4.3-1.4 4.3-3.32 0-1.4-.74-2.584-2.79-3.064l-2.32-.6c-1.19-.296-1.8-.8-1.8-1.752 0-1.04.85-1.904 2.51-1.904 1.37 0 2.56.544 2.71 2.12h1.52c-.01-1.752-1.46-3.352-4.18-3.352-2.35 0-4.13 1.296-4.13 3.256 0 1.776 1.12 2.616 2.75 3.008l2.39.616c1.24.336 1.83.864 1.83 1.784 0 1.256-1.26 1.976-2.73 1.976-1.53 0-2.74-.688-3.03-2h-1.55c.29 2.128 2.27 3.232 4.52 3.232Zm6.73-.16h1.52v-4.28h2.59c2.44 0 4.09-1.32 4.09-3.632 0-2.384-1.81-3.656-4.29-3.656h-3.91V99Zm1.51-5.528v-4.808h2.5c1.62 0 2.75.8 2.75 2.336 0 1.52-1.09 2.472-2.68 2.472h-2.57Zm8.68 5.528h1.48V87.432h-1.48V99Zm4.53 0h1.48v-4.984h3.11l2.12 4.984h1.56l-2.27-5.248c1.11-.416 2.24-1.28 2.24-3.16 0-1.968-1.25-3.16-3.76-3.16h-4.48V99Zm1.48-6.208V88.64h2.87c1.48 0 2.38.68 2.38 2.04 0 1.4-.99 2.112-2.73 2.112h-2.52Zm9.35 6.208h1.48V87.432h-1.48V99Zm7.11 0h1.48V88.792h3.53v-1.36h-8.75v1.36h3.74V99Zm-330.4 3.576c4.97 0 9.04-4.104 9.04-9.072 0-4.932-4.07-9-9.04-9-5 0-9 4.068-9 9 0 4.968 4 9.072 9 9.072Zm25.38 0c4.97 0 9.04-4.104 9.04-9.072 0-4.932-4.07-9-9.04-9-5 0-9 4.068-9 9 0 4.968 4 9.072 9 9.072Zm25.39 0c4.96 0 9.03-4.104 9.03-9.072 0-4.932-4.07-9-9.03-9-5.01 0-9 4.068-9 9 0 4.968 3.99 9.072 9 9.072Zm25.38 0c4.97 0 9.03-4.104 9.03-9.072 0-4.932-4.06-9-9.03-9-5.01 0-9 4.068-9 9 0 4.968 3.99 9.072 9 9.072Zm25.38 0c4.97 0 9.04-4.104 9.04-9.072 0-4.932-4.07-9-9.04-9-5 0-9 4.068-9 9 0 4.968 4 9.072 9 9.072Zm25.38 0c4.97 0 9.04-4.104 9.04-9.072 0-4.932-4.07-9-9.04-9-5 0-9 4.068-9 9 0 4.968 4 9.072 9 9.072Zm25.39 0c4.96 0 9.03-4.104 9.03-9.072 0-4.932-4.07-9-9.03-9-5.01 0-9 4.068-9 9 0 4.968 3.99 9.072 9 9.072Zm25.38 0c4.97 0 9.04-4.104 9.04-9.072 0-4.932-4.07-9-9.04-9-5 0-9 4.068-9 9 0 4.968 4 9.072 9 9.072Zm25.38 0c4.97 0 9.04-4.104 9.04-9.072 0-4.932-4.07-9-9.04-9-5 0-9 4.068-9 9 0 4.968 4 9.072 9 9.072Zm25.39 0c4.96 0 9.03-4.104 9.03-9.072 0-4.932-4.07-9-9.03-9-5.01 0-9 4.068-9 9 0 4.968 3.99 9.072 9 9.072Z"/>
  <path stroke="#000" stroke-width="2" d="M1299 63h432v61h-432z"/>
  <path fill="#fff" d="M1299 126h432v61h-432z"/>
  <path fill="#000" d="M1643.84 162h1.51l1.14-3.168h4.75l1.13 3.168h1.51l-4.18-11.568h-1.67L1643.84 162Zm3.04-4.528 1.98-5.592 1.97 5.592h-3.95Zm9.19 4.528h1.52v-9.264l3.33 9.264h1.38l3.35-9.352V162h1.53v-11.568h-2.04l-3.54 9.552-3.48-9.552h-2.05V162Zm14.17 0h1.52v-9.264l3.33 9.264h1.38l3.35-9.352V162h1.53v-11.568h-2.04l-3.53 9.552-3.49-9.552h-2.05V162Zm18.53.16c3.09 0 4.99-2.16 4.99-5.92 0-3.8-1.92-5.968-4.99-5.968-3.07 0-5.02 2.176-5.02 5.968 0 3.776 1.92 5.92 5.02 5.92Zm0-1.288c-2.12 0-3.39-1.424-3.39-4.616 0-3.216 1.27-4.696 3.39-4.696s3.37 1.464 3.37 4.696c0 3.184-1.23 4.616-3.37 4.616Zm-329.93 4.704c4.97 0 9.04-4.104 9.04-9.072 0-4.932-4.07-9-9.04-9-5 0-9 4.068-9 9 0 4.968 4 9.072 9 9.072Zm25.38 0c4.97 0 9.04-4.104 9.04-9.072 0-4.932-4.07-9-9.04-9-5 0-9 4.068-9 9 0 4.968 4 9.072 9 9.072Zm25.39 0c4.96 0 9.03-4.104 9.03-9.072 0-4.932-4.07-9-9.03-9-5.01 0-9 4.068-9 9 0 4.968 3.99 9.072 9 9.072Zm25.38 0c4.97 0 9.03-4.104 9.03-9.072 0-4.932-4.06-9-9.03-9-5.01 0-9 4.068-9 9 0 4.968 3.99 9.072 9 9.072Zm25.38 0c4.97 0 9.04-4.104 9.04-9.072 0-4.932-4.07-9-9.04-9-5 0-9 4.068-9 9 0 4.968 4 9.072 9 9.072Zm25.38 0c4.97 0 9.04-4.104 9.04-9.072 0-4.932-4.07-9-9.04-9-5 0-9 4.068-9 9 0 4.968 4 9.072 9 9.072Zm25.39 0c4.96 0 9.03-4.104 9.03-9.072 0-4.932-4.07-9-9.03-9-5.01 0-9 4.068-9 9 0 4.968 3.99 9.072 9 9.072Zm25.38 0c4.97 0 9.04-4.104 9.04-9.072 0-4.932-4.07-9-9.04-9-5 0-9 4.068-9 9 0 4.968 4 9.072 9 9.072Zm25.38 0c4.97 0 9.04-4.104 9.04-9.072 0-4.932-4.07-9-9.04-9-5 0-9 4.068-9 9 0 4.968 4 9.072 9 9.072Zm25.39 0c4.96 0 9.03-4.104 9.03-9.072 0-4.932-4.07-9-9.03-9-5.01 0-9 4.068-9 9 0 4.968 3.99 9.072 9 9.072Z"/>
  <path stroke="#000" stroke-width="2" d="M1299 126h432v61h-432z"/>
</svg>
