<svg xmlns="http://www.w3.org/2000/svg" width="434" height="63" fill="none" viewBox="0 0 434 63">
  <path fill="#fff" d="M1 1h432v61H1z"/>
  <path fill="#000" d="M335.255 37h1.48v-5.336h6.24V37h1.48V25.432h-1.48v4.928h-6.24v-4.928h-1.48V37Zm12.25 0h7.448v-1.32l-5.968-.016v-3.856h5.232v-1.296h-5.224v-3.776h5.8l.008-1.304h-7.296V37Zm8.948 0h1.504l1.144-3.168h4.744L364.981 37h1.512l-4.184-11.568h-1.672L356.453 37Zm3.04-4.528 1.976-5.592 1.968 5.592h-3.944ZM368.677 37h6.984v-1.328h-5.464v-10.24h-1.512L368.677 37Zm10.31 0h1.488V26.792h3.528v-1.36h-8.752v1.36h3.736V37Zm6.924 0h1.48v-5.336h6.24V37h1.48V25.432h-1.48v4.928h-6.24v-4.928h-1.48V37ZM60.84 40.576c4.968 0 9.036-4.104 9.036-9.072 0-4.932-4.068-9-9.036-9-5.004 0-9 4.068-9 9 0 4.968 3.996 9.072 9 9.072Zm25.383 0c4.968 0 9.036-4.104 9.036-9.072 0-4.932-4.068-9-9.036-9-5.004 0-9 4.068-9 9 0 4.968 3.996 9.072 9 9.072Zm25.383 0c4.968 0 9.036-4.104 9.036-9.072 0-4.932-4.068-9-9.036-9-5.004 0-9 4.068-9 9 0 4.968 3.996 9.072 9 9.072Zm25.382 0c4.968 0 9.036-4.104 9.036-9.072 0-4.932-4.068-9-9.036-9-5.004 0-9 4.068-9 9 0 4.968 3.996 9.072 9 9.072Zm25.383 0c4.968 0 9.036-4.104 9.036-9.072 0-4.932-4.068-9-9.036-9-5.004 0-9 4.068-9 9 0 4.968 3.996 9.072 9 9.072Zm25.383 0c4.968 0 9.036-4.104 9.036-9.072 0-4.932-4.068-9-9.036-9-5.004 0-9 4.068-9 9 0 4.968 3.996 9.072 9 9.072Zm25.383 0c4.968 0 9.036-4.104 9.036-9.072 0-4.932-4.068-9-9.036-9-5.004 0-9 4.068-9 9 0 4.968 3.996 9.072 9 9.072Zm25.383 0c4.968 0 9.036-4.104 9.036-9.072 0-4.932-4.068-9-9.036-9-5.004 0-9 4.068-9 9 0 4.968 3.996 9.072 9 9.072Zm25.383 0c4.968 0 9.036-4.104 9.036-9.072 0-4.932-4.068-9-9.036-9-5.004 0-9 4.068-9 9 0 4.968 3.996 9.072 9 9.072Zm25.382 0c4.968 0 9.036-4.104 9.036-9.072 0-4.932-4.068-9-9.036-9-5.004 0-9 4.068-9 9 0 4.968 3.996 9.072 9 9.072Z"/>
  <path stroke="#000" stroke-width="2" d="M1 1h432v61H1z"/>
</svg>
