<svg xmlns="http://www.w3.org/2000/svg" width="434" height="63" fill="none" viewBox="0 0 434 63">
  <path fill="#fff" d="M1 1h432v61H1z"/>
  <path fill="#000" d="M292.903 37h1.48v-4.984h3.112L299.607 37h1.568l-2.272-5.248c1.104-.416 2.24-1.28 2.24-3.16 0-1.968-1.256-3.16-3.76-3.16h-4.48V37Zm1.48-6.208V26.64h2.872c1.48 0 2.376.68 2.376 2.04 0 1.4-.992 2.112-2.728 2.112h-2.52ZM303.731 37h7.448v-1.32l-5.968-.016v-3.856h5.232v-1.296h-5.224v-3.776h5.8l.008-1.304h-7.296V37Zm10.031 0h1.52v-4.28h2.592c2.432 0 4.088-1.32 4.088-3.632 0-2.384-1.808-3.656-4.288-3.656h-3.912V37Zm1.512-5.528v-4.808h2.496c1.624 0 2.752.8 2.752 2.336 0 1.52-1.096 2.472-2.68 2.472h-2.568ZM326.977 37h1.504l1.144-3.168h4.744L335.505 37h1.512l-4.184-11.568h-1.672L326.977 37Zm3.04-4.528 1.976-5.592 1.968 5.592h-3.944Zm12.876 4.688c2.76 0 4.128-1.824 4.368-3.8h-1.576c-.264 1.352-1.208 2.512-2.832 2.512-2.112 0-3.24-1.456-3.24-4.68 0-3.2 1.128-4.632 3.24-4.632 1.624 0 2.568 1.08 2.832 2.44h1.576c-.216-2.024-1.928-3.728-4.368-3.728-3.136 0-4.92 2.136-4.92 5.904 0 3.776 1.8 5.984 4.92 5.984Zm11.016 0c2.76 0 4.128-1.824 4.368-3.8h-1.576c-.264 1.352-1.208 2.512-2.832 2.512-2.112 0-3.24-1.456-3.24-4.68 0-3.2 1.128-4.632 3.24-4.632 1.624 0 2.568 1.08 2.832 2.44h1.576c-.216-2.024-1.928-3.728-4.368-3.728-3.136 0-4.92 2.136-4.92 5.904 0 3.776 1.8 5.984 4.92 5.984Zm6.76-.16h1.48v-4.984h3.112L367.373 37h1.568l-2.272-5.248c1.104-.416 2.24-1.28 2.24-3.16 0-1.968-1.256-3.16-3.76-3.16h-4.48V37Zm1.48-6.208V26.64h2.872c1.48 0 2.376.68 2.376 2.04 0 1.4-.992 2.112-2.728 2.112h-2.52Zm13.275 6.368c2.968 0 4.232-1.496 4.232-4.16v-7.568h-1.488v7.64c0 1.888-1.008 2.792-2.744 2.792-1.736 0-2.688-.92-2.688-2.792v-7.64H371.2v7.416c0 2.792 1.224 4.312 4.224 4.312Zm6.979-.16h7.448v-1.32l-5.968-.016v-3.856h5.232v-1.296h-5.224v-3.776h5.8l.008-1.304h-7.296V37Zm10.031 0h2.536c4.2 0 6.168-2.016 6.168-5.856 0-3.656-1.768-5.64-6.016-5.696-.976-.008-2.552-.016-2.688-.016V37Zm1.52-1.272v-9.024h1.08c2.864 0 4.544 1.12 4.544 4.464 0 3.344-1.744 4.56-4.608 4.56h-1.016Zm-213.787 1.448c2.608 0 4.4-1.68 4.4-3.952 0-2.144-1.584-3.544-3.928-3.544-1.096 0-2.104.448-2.632 1.208-.224-2.248.64-3.768 2.304-3.768 1.016 0 1.68.512 1.96 1.488h2.136c-.12-2.104-1.976-3.336-4.144-3.336-3.04 0-4.856 2.36-4.856 6.168 0 3.472 1.8 5.736 4.76 5.736Zm-.08-1.792c-1.192 0-2.008-.936-1.992-2.488 0-.704 1.008-1.472 2-1.472 1.136 0 2 .64 2 1.912 0 1.2-.896 2.048-2.008 2.048Zm10.252 1.792c2.648.008 4.816-1.184 4.816-3.456 0-1.56-1.096-2.448-2.384-2.8 1.488-.504 2.112-1.4 2.112-2.544 0-2.12-1.904-3.104-4.488-3.104-2.464 0-4.4 1.232-4.4 3.72h2.232c.088-1.408 1.016-1.912 2.12-1.912 1.2 0 2.056.56 2.056 1.4 0 .888-.824 1.52-2.072 1.576l-.992.056v1.856l1.104.04c1.296.032 2.224.648 2.224 1.64 0 .96-.872 1.64-2.304 1.64-1.104 0-1.968-.544-2.192-1.864h-2.248c.032 2.328 1.632 3.744 4.416 3.752Zm10.938 0c2.608 0 4.4-1.68 4.4-3.952 0-2.144-1.584-3.544-3.928-3.544-1.096 0-2.104.448-2.632 1.208-.224-2.248.64-3.768 2.304-3.768 1.016 0 1.68.512 1.96 1.488h2.136c-.12-2.104-1.976-3.336-4.144-3.336-3.04 0-4.856 2.36-4.856 6.168 0 3.472 1.8 5.736 4.76 5.736Zm-.08-1.792c-1.192 0-2.008-.936-1.992-2.488 0-.704 1.008-1.472 2-1.472 1.136 0 2 .64 2 1.912 0 1.2-.896 2.048-2.008 2.048Zm5.97 1.616h2.56v-2.544h-2.56V37Zm8.689.176c2.784 0 4.448-2.104 4.448-5.936 0-3.848-1.696-5.968-4.448-5.968-2.76 0-4.464 2.128-4.464 5.976 0 3.824 1.664 5.928 4.464 5.928Zm0-1.912c-1.392 0-2.032-1.136-2.032-4.016 0-2.936.656-4.136 2.024-4.136 1.368 0 2 1.184 2 4.136 0 2.896-.608 4.016-1.992 4.016Z"/>
  <path stroke="#000" stroke-width="2" d="M1 1h432v61H1z"/>
</svg>
