<svg xmlns="http://www.w3.org/2000/svg" width="187" height="63" fill="none" viewBox="0 0 187 63">
  <path fill="#D9D9D9" d="M.5.5h186v62H.5z"/>
  <path fill="#000" d="M82.776 37H90.8v-1.984l-5.696-.008v-2.872h4.872v-1.928H85.12V27.4h5.592l.008-1.968h-7.944V37Zm10.204 0h2.328v-7.96l5.496 7.96h2.104V25.432h-2.336v7.656l-5.28-7.656h-2.313V37Zm12.515 0h3.376c4.144 0 6.08-2.24 6.08-5.84 0-3.456-1.792-5.608-6-5.712-.992-.024-3.216-.016-3.456-.016V37Zm2.352-1.888V27.32h1.104c2.192 0 3.56 1.12 3.56 3.824 0 2.912-1.608 3.968-3.592 3.968h-1.072ZM125.3 37.16c1.872 0 2.792-.88 3.392-1.672V37h1.592v-6.04l-4.84-.024v1.616h2.392l-.088.704c-.12.824-.912 1.848-2.28 1.848-1.448 0-2.832-.864-2.832-3.92 0-2.824 1.192-3.936 2.736-3.936 1.272 0 2.104.912 2.32 2.016h2.464c-.088-2.056-1.984-3.992-4.728-3.992-3.2 0-5.336 2.296-5.336 5.976 0 3.616 2.024 5.912 5.208 5.912Zm6.714-.16h2.344l.96-2.68h4.168l.944 2.68h2.328l-4.136-11.568h-2.472L132.014 37Zm3.832-4.72 1.544-4.6 1.528 4.6h-3.072Zm8.649 4.72h2.352v-8.808L149.615 37h1.832l2.784-8.848V37h2.36V25.432h-3.384l-2.672 8.248-2.648-8.248h-3.392V37Zm14.688 0h8.024v-1.984l-5.696-.008v-2.872h4.872v-1.928h-4.856V27.4h5.592l.008-1.968h-7.944V37Z"/>
  <path stroke="#000" d="M.5.5h186v62H.5z"/>
</svg>
