<svg xmlns="http://www.w3.org/2000/svg" width="434" height="94" fill="none" viewBox="0 0 434 94">
  <path fill="#fff" d="M1 1h432v92H1z"/>
  <path fill="#000" d="M42.75 56.24c4.093 0 6.984-2.16 6.984-5.304 0-2.46-1.367-4.296-4.727-4.956l-3.012-.648c-1.62-.336-2.304-.96-2.304-2.016 0-1.116.923-2.112 3.011-2.112 1.813 0 3.157.684 3.349 2.484h3.503c-.035-2.928-2.436-5.256-6.756-5.256-3.852 0-6.791 1.992-6.791 5.232 0 2.808 1.752 4.284 4.535 4.86l3.252.708c1.5.348 2.413.864 2.413 2.052 0 1.5-1.62 2.208-3.252 2.208-2.088 0-3.517-.876-3.864-2.448h-3.589c.36 3.48 3.78 5.196 7.248 5.196ZM52.818 56h12.036v-2.976l-8.544-.012v-4.308h7.308v-2.892h-7.284V41.6h8.388l.012-2.952H52.817V56Zm19.576 0h3.516V41.768h5.124v-3.12H67.15v3.12h5.244V56Zm15.61 0h3.516V41.768h5.123v-3.12H82.76v3.12h5.243V56Zm11.033 0h3.492V38.648h-3.492V56Zm7.382 0h3.492V44.06L118.154 56h3.156V38.648h-3.504v11.484l-7.92-11.484h-3.468V56Zm25.794.24c2.808 0 4.188-1.32 5.088-2.508V56h2.388v-9.06l-7.26-.036v2.424h3.588l-.132 1.056c-.18 1.236-1.368 2.772-3.42 2.772-2.172 0-4.248-1.296-4.248-5.88 0-4.236 1.788-5.904 4.104-5.904 1.908 0 3.156 1.368 3.48 3.024h3.696c-.132-3.084-2.976-5.988-7.092-5.988-4.8 0-8.004 3.444-8.004 8.964 0 5.424 3.036 8.868 7.812 8.868Zm17.648 0c4.092 0 6.984-2.16 6.984-5.304 0-2.46-1.368-4.296-4.728-4.956l-3.012-.648c-1.62-.336-2.304-.96-2.304-2.016 0-1.116.924-2.112 3.012-2.112 1.812 0 3.156.684 3.348 2.484h3.504c-.036-2.928-2.436-5.256-6.756-5.256-3.852 0-6.792 1.992-6.792 5.232 0 2.808 1.752 4.284 4.536 4.86l3.252.708c1.5.348 2.412.864 2.412 2.052 0 1.5-1.62 2.208-3.252 2.208-2.088 0-3.516-.876-3.864-2.448h-3.588c.36 3.48 3.78 5.196 7.248 5.196ZM417 43.022l-54 28.512V14.51l54 28.512Z"/>
  <path stroke="#000" stroke-width="2" d="M1 1h432v92H1z"/>
</svg>
