<svg xmlns="http://www.w3.org/2000/svg" width="184" height="181" fill="none" viewBox="0 0 184 181">
  <path fill="#000" d="M122.694 63.935h3.89v-10.48l2.83 10.48h2.8l2.82-10.48v10.48h3.9v-14.46h-5.76l-2.36 8.82-2.34-8.82h-5.78v14.46Zm18.945 0h10.7v-3.24h-6.81v-2.46h5.67v-3.14h-5.64v-2.4h6.74l.02-3.22h-10.68v14.46Zm12.949 0h3.89v-8.62l6.05 8.62h3.51v-14.46h-3.89v8.06l-5.64-8.06h-3.92v14.46Zm22.1.2c4.66 0 6.24-2.5 6.24-6.18v-8.48h-3.94v8.64c0 2-1.1 2.76-2.3 2.76-1.22 0-2.3-.76-2.3-2.76v-8.64h-3.94v8.48c0 3.68 1.58 6.18 6.24 6.18Zm-141.54 42c3.63 0 5.27-2.32 5.59-4.87h-2.28c-.31 1.64-1.43 3.04-3.36 3.04-2.47 0-3.84-1.73-3.84-5.64 0-3.89 1.37-5.56 3.84-5.56 1.93 0 3.05 1.27 3.36 2.92h2.28c-.28-2.62-2.48-4.75-5.59-4.75-3.95 0-6.25 2.69-6.25 7.36s2.32 7.5 6.25 7.5Zm14.065 0c3.91 0 6.34-2.73 6.34-7.4 0-4.72-2.46-7.46-6.34-7.46-3.9 0-6.39 2.75-6.39 7.46 0 4.69 2.45 7.4 6.39 7.4Zm0-1.83c-2.5 0-4.04-1.68-4.04-5.54 0-3.91 1.54-5.66 4.04-5.66s3.99 1.73 3.99 5.66c0 3.85-1.47 5.54-3.99 5.54Zm9.215 1.63h2.14v-11.01l7.52 11.01h1.92v-14.46h-2.15v10.78l-7.36-10.78h-2.07v14.46Zm15.234 0h2.14v-11.01l7.52 11.01h1.92v-14.46h-2.15v10.78l-7.36-10.78h-2.07v14.46Zm15.234 0h9.51v-1.88l-7.37-.01v-4.49h6.42v-1.83h-6.41v-4.39h7.18l.01-1.86h-9.34v14.46Zm17.912.2c3.63 0 5.27-2.32 5.59-4.87h-2.28c-.31 1.64-1.43 3.04-3.36 3.04-2.47 0-3.84-1.73-3.84-5.64 0-3.89 1.37-5.56 3.84-5.56 1.93 0 3.05 1.27 3.36 2.92h2.28c-.28-2.62-2.48-4.75-5.59-4.75-3.95 0-6.25 2.69-6.25 7.36s2.32 7.5 6.25 7.5Zm11.333-.2h2.16v-12.51h4.37v-1.95h-11.11v1.95h4.58v12.51Zm8.802 0h9.51v-1.88l-7.37-.01v-4.49h6.42v-1.83h-6.41v-4.39h7.18l.01-1.86h-9.34v14.46Zm12.598 0h3.46c5.23 0 7.68-2.6 7.68-7.31 0-4.51-2.22-7.04-7.52-7.13-1.22-.02-3.42-.02-3.62-.02v14.46Zm2.18-1.8v-10.86h1.36c3.36 0 5.35 1.4 5.35 5.36 0 4.03-2.14 5.5-5.41 5.5h-1.3Zm15.509 1.8h2.17l1.37-3.79h5.73l1.36 3.79h2.16l-5.21-14.46h-2.36l-5.22 14.46Zm4.07-5.73 2.32-6.65 2.32 6.65h-4.64Zm16.054 5.93c3.29 0 5.5-1.76 5.5-4.23 0-1.83-.98-3.32-3.61-3.91l-2.8-.69c-1.44-.35-2.16-.94-2.16-2.05 0-1.2.99-2.21 2.97-2.21 1.66 0 3.05.65 3.23 2.49h2.18c-.02-2.26-1.89-4.24-5.34-4.24-3.02 0-5.29 1.63-5.29 4.15 0 2.25 1.41 3.35 3.53 3.84l2.9.72c1.48.39 2.22.98 2.22 2.09 0 1.48-1.51 2.3-3.22 2.3-1.86 0-3.3-.83-3.64-2.38h-2.23c.36 2.73 2.93 4.12 5.76 4.12Zm-76.569 23.8h2.35l3.68-5.76 3.73 5.76h2.66l-5.07-7.61 4.57-6.85h-2.32l-3.38 5.29-3.41-5.29h-2.64l4.71 7.09-4.88 7.37Zm18.004 0h2.14v-6.13l4.93-8.33h-2.34l-3.65 6.43-3.7-6.43h-2.34l4.96 8.32v6.14Zm8.501 0h10.73v-1.86h-7.79l7.84-11.52v-1.08h-10.4v1.84h7.38l-7.76 11.49v1.13Zm12.76 0h2.47v-2.58h-2.47v2.58Zm5.604 0h9.51v-1.88l-7.37-.01v-4.49h6.42v-1.83h-6.41v-4.39h7.18l.01-1.86h-9.34v14.46Zm16.042 0h2.16v-12.51h4.37v-1.95h-11.11v1.95h4.58v12.51Zm8.802 0h2.14v-6.54h7.4v6.54h2.14v-14.46h-2.14v6.06h-7.4v-6.06h-2.14v14.46Z"/>
</svg>
