<svg xmlns="http://www.w3.org/2000/svg" width="434" height="120" fill="none" viewBox="0 0 434 120">
  <path fill="#fff" stroke="#000" d="M.5.5h433v119H.5z"/>
  <path fill="#000" d="M36.246 69H47.31v-2.964h-7.536V51.648h-3.528V69Zm20.595.24c4.884 0 7.944-3.384 7.944-8.88 0-5.556-3.12-8.952-7.944-8.952-4.848 0-8.004 3.408-8.004 8.952 0 5.52 3.084 8.88 8.004 8.88Zm0-2.88c-2.52 0-4.164-1.716-4.164-5.952 0-4.32 1.644-6.12 4.164-6.12 2.52 0 4.14 1.788 4.14 6.12 0 4.236-1.608 5.952-4.14 5.952ZM65.76 69h3.516l1.44-4.02h6.252L78.383 69h3.492l-6.204-17.352h-3.708L65.76 69Zm5.748-7.08 2.316-6.9 2.292 6.9h-4.608ZM84.481 69h5.064c6.216 0 9.12-3.36 9.12-8.76 0-5.184-2.688-8.412-9-8.568-1.488-.036-4.824-.024-5.184-.024V69Zm3.528-2.832V54.48h1.656c3.288 0 5.34 1.68 5.34 5.736 0 4.368-2.412 5.952-5.388 5.952h-1.608Zm26.179 3.072c2.808 0 4.188-1.32 5.088-2.508V69h2.388v-9.06l-7.26-.036v2.424h3.588l-.132 1.056c-.18 1.236-1.368 2.772-3.42 2.772-2.172 0-4.248-1.296-4.248-5.88 0-4.236 1.788-5.904 4.104-5.904 1.908 0 3.156 1.368 3.48 3.024h3.696c-.132-3.084-2.976-5.988-7.092-5.988-4.8 0-8.004 3.444-8.004 8.964 0 5.424 3.036 8.868 7.812 8.868Zm10.071-.24h3.516l1.44-4.02h6.252l1.416 4.02h3.492l-6.204-17.352h-3.708L124.259 69Zm5.748-7.08 2.316-6.9 2.292 6.9h-4.608ZM142.981 69h3.528V55.788L150.661 69h2.748l4.176-13.272V69h3.54V51.648h-5.076l-4.008 12.372-3.972-12.372h-5.088V69Zm22.031 0h12.036v-2.976l-8.544-.012v-4.308h7.308v-2.892h-7.284V54.6h8.388l.012-2.952h-11.916V69ZM417 60.38l-54 36.702V23.678l54 36.702Z"/>
</svg>
