<svg xmlns="http://www.w3.org/2000/svg" width="434" height="118" fill="none" viewBox="0 0 434 118">
  <path fill="#fff" stroke="#000" d="M.5.5h433v117H.5z"/>
  <path fill="#000" d="M34.962 68h3.516l1.44-4.02h6.252L47.586 68h3.492l-6.204-17.352h-3.708L34.962 68Zm5.748-7.08 2.316-6.9 2.292 6.9H40.71ZM53.684 68h6.576c4.74 0 6.828-1.5 6.828-4.704 0-1.608-.528-3.42-3.42-4.188 2.256-.948 3.012-2.184 3.012-3.912 0-2.928-2.16-4.548-6.708-4.548h-6.288V68Zm3.492-10.176V53.36h3.108c1.752 0 3.012.792 3.012 2.292 0 1.524-1.344 2.172-2.772 2.172h-3.348Zm0 7.464v-4.68h3.348c1.716 0 3.012.804 3.012 2.34 0 1.428-1.104 2.34-3.204 2.34h-3.156Zm20.103 2.952c4.884 0 7.944-3.384 7.944-8.88 0-5.556-3.12-8.952-7.944-8.952-4.848 0-8.004 3.408-8.004 8.952 0 5.52 3.084 8.88 8.004 8.88Zm0-2.88c-2.52 0-4.164-1.716-4.164-5.952 0-4.32 1.644-6.12 4.164-6.12 2.52 0 4.14 1.788 4.14 6.12 0 4.236-1.608 5.952-4.14 5.952Zm17.747 2.88c5.052 0 6.948-2.64 6.948-6.852v-10.74h-3.54v10.884c0 2.616-1.416 3.732-3.408 3.732-2.004 0-3.372-1.14-3.372-3.732V50.648H88.09v10.62c0 4.32 1.86 6.972 6.936 6.972Zm14.187-.24h3.516V53.768h5.124v-3.12h-13.884v3.12h5.244V68Zm14.779.444h2.448l6.06-17.796h-2.436l-6.072 17.796Zm23.291-.204c4.884 0 6.648-2.94 7.068-6.24h-3.672c-.324 1.812-1.5 3.36-3.504 3.36-2.424 0-3.9-1.812-3.9-6.132 0-4.284 1.476-5.94 3.9-5.94 2.004 0 3.18 1.296 3.504 3.108h3.672c-.348-3.408-3.156-5.988-7.068-5.988-4.884 0-7.86 3.312-7.86 8.772 0 5.46 3.012 9.06 7.86 9.06Zm10.159-.24h3.492v-6.684h3.516L167.27 68h3.636l-3.228-7.272c1.632-.804 3.048-2.16 3.048-4.896 0-3.048-1.812-5.184-5.964-5.184h-7.32V68Zm3.492-9.384v-5.292h3.456c1.608 0 2.796.996 2.796 2.592s-1.176 2.7-3.048 2.7h-3.204ZM174.153 68h12.036v-2.976l-8.544-.012v-4.308h7.308v-2.892h-7.284V53.6h8.388l.012-2.952h-11.916V68Zm15.304 0h5.064c6.216 0 9.12-3.36 9.12-8.76 0-5.184-2.688-8.412-9-8.568-1.488-.036-4.824-.024-5.184-.024V68Zm3.528-2.832V53.48h1.656c3.288 0 5.34 1.68 5.34 5.736 0 4.368-2.412 5.952-5.388 5.952h-1.608ZM206.731 68h3.492V50.648h-3.492V68Zm11.139 0h3.516V53.768h5.124v-3.12h-13.884v3.12h5.244V68Zm17.49.24c4.092 0 6.984-2.16 6.984-5.304 0-2.46-1.368-4.296-4.728-4.956l-3.012-.648c-1.62-.336-2.304-.96-2.304-2.016 0-1.116.924-2.112 3.012-2.112 1.812 0 3.156.684 3.348 2.484h3.504c-.036-2.928-2.436-5.256-6.756-5.256-3.852 0-6.792 1.992-6.792 5.232 0 2.808 1.752 4.284 4.536 4.86l3.252.708c1.5.348 2.412.864 2.412 2.052 0 1.5-1.62 2.208-3.252 2.208-2.088 0-3.516-.876-3.864-2.448h-3.588c.36 3.48 3.78 5.196 7.248 5.196ZM417 59.858 363 95.65V24.066l54 35.792Z"/>
</svg>
