<svg xmlns="http://www.w3.org/2000/svg" width="434" height="121" fill="none" viewBox="0 0 434 121">
  <path fill="#fff" stroke="#000" d="M.5.5h433v120H.5z"/>
  <path fill="#000" d="M51.354 71.952v-2.808c-1.284-.024-2.436-.624-2.82-1.596 1.944-1.62 2.892-4.008 2.892-7.188 0-5.568-3.12-8.952-7.98-8.952-4.848 0-7.992 3.384-7.992 8.952s3.108 8.88 7.992 8.88c.624 0 1.164-.048 1.98-.168 1.8 2.532 3.66 2.88 5.928 2.88Zm-7.908-5.592c-2.616 0-4.14-1.704-4.14-5.952 0-4.296 1.536-6.12 4.14-6.12 2.616 0 4.152 1.824 4.152 6.108 0 4.26-1.524 5.964-4.152 5.964Zm18.065 2.88c5.051 0 6.947-2.64 6.947-6.852v-10.74h-3.54v10.884c0 2.616-1.416 3.732-3.408 3.732-2.003 0-3.371-1.14-3.371-3.732V51.648h-3.565v10.62c0 4.32 1.86 6.972 6.937 6.972ZM71.94 69h3.493V51.648h-3.492V69Zm11.14 0h3.516V54.768h5.124v-3.12H77.835v3.12h5.245V69ZM417 61.38l-54 36.702V24.678l54 36.702Z"/>
  <path stroke="#000" d="M.5.5h433v120H.5z"/>
</svg>
