<svg xmlns="http://www.w3.org/2000/svg" width="434" height="121" fill="none" viewBox="0 0 434 121">
  <path fill="#fff" stroke="#000" d="M.5.5h433v120H.5z"/>
  <path fill="#000" d="M36.246 69h3.492v-7.452h7.596V69h3.504V51.648h-3.504v6.96h-7.596v-6.96h-3.492V69Zm18.47 0H66.75v-2.976l-8.544-.012v-4.308h7.308v-2.892H58.23V54.6h8.388l.012-2.952H54.715V69Zm15.304 0h11.064v-2.964h-7.536V51.648H70.02V69Zm13.851 0H87.4v-6.192h3.312c3.732 0 6.18-2.016 6.18-5.472 0-3.672-2.856-5.688-6.636-5.688h-6.384V69Zm3.492-8.904v-5.76h3.204c1.692 0 3.048 1.092 3.048 2.82 0 1.668-1.248 2.94-3 2.94h-3.252ZM417 61.38l-54 36.702V24.678l54 36.702Z"/>
</svg>
