<svg xmlns="http://www.w3.org/2000/svg" xmlns:xlink="http://www.w3.org/1999/xlink" width="1067" height="188" fill="none" viewBox="0 0 1067 188">
  <path fill="url(#a)" d="M879 0h188v188H879z"/>
  <g clip-path="url(#b)">
    <rect width="640" height="121" x="640" y="154" fill="#fff" rx="36" transform="rotate(-180 640 154)"/>
    <path fill="#000" d="M52.63 89h1.66l3.22-11.21L60.68 89h1.71l4.22-14.46h-1.86l-3.26 11.51-3.25-11.51h-1.45l-3.26 11.51-3.2-11.51h-1.87L52.63 89Zm15.962 0h1.84v-6.9c0-1.39 1.26-2.06 2.66-2.06 1.36 0 2.29.71 2.29 1.94V89h1.85v-7.39c0-1.89-1.59-3.08-3.61-3.08-1.66 0-2.71.8-3.23 1.65v-6.04h-1.8V89Zm14.385.2c1.48 0 2.75-.53 3.55-2.14l.14 1.94h1.58v-7.22c0-2.16-1.34-3.32-4.03-3.32-2.51 0-4.05 1.11-4.16 3.12h1.63c.25-1.23 1.25-1.75 2.44-1.76 1.59 0 2.33.8 2.33 2.06v.81l-1.84.05c-3.54.08-5.05 1.17-5.05 3.46 0 1.89 1.4 3 3.41 3Zm.55-1.33c-1.27 0-2.17-.68-2.17-1.85 0-1.53 1.19-2.12 3.57-2.16l1.53-.03v1.77c0 1.15-1.54 2.27-2.93 2.27Zm10.965 1.18c.75 0 1.27-.07 1.53-.17v-1.24h-1.13c-.97 0-1.26-.1-1.26-1.2v-6.43h2.33v-1.36h-2.33v-3h-1.36l-.45 3.01h-1.73v1.35h1.68v6.49c0 1.66.57 2.55 2.72 2.55Zm8.847-12.58h1.89v-1.92h-1.89v1.92Zm.05 12.53h1.79V78.66h-1.79V89Zm6.271 0h1.85v-8.99h2.51v-1.35h-2.54v-1.44c0-.92.25-1.37 1.1-1.37h1.54l-.01-1.31h-1.95c-1.67 0-2.5.88-2.5 2.52v1.6h-2.19v1.35h2.19V89Zm12.287 3.3c1.43 0 2.51-.55 3.32-2.52l4.35-11.12h-1.81l-3.03 7.98-3.05-7.98h-1.87l4.04 10.09-.36.98c-.21.51-.58 1.19-2.12 1.13l-1.06-.02v1.2s.38.26 1.59.26Zm13.618-3.1c3.08 0 4.71-2.17 4.71-5.33 0-3.48-1.85-5.41-4.7-5.41-3.06 0-4.75 2.17-4.75 5.41 0 3.45 1.87 5.33 4.74 5.33Zm.01-1.46c-2.07 0-2.91-1.73-2.91-3.91 0-2.46 1.03-3.92 2.91-3.92 2.03 0 2.87 1.71 2.87 3.92 0 2.43-1.02 3.91-2.87 3.91Zm10.919 1.46c1.46.01 2.72-.63 3.1-2.18l.19 1.98h1.47V78.66h-1.84v6.73c0 1.57-1.01 2.37-2.53 2.37-1.69 0-2.51-.92-2.51-2.27v-6.83h-1.85v7.02c0 2.33 1.82 3.5 3.97 3.52Zm12.665-.2h1.84v-6.91c0-1.39 1.28-2.05 2.68-2.05 1.35 0 2.28.77 2.28 2.38V89h1.85v-6.76c0-2.6-1.66-3.73-3.62-3.73-1.66 0-2.73.79-3.24 1.65v-1.5h-1.79V89Zm15.913.2c2.01 0 3.95-1.11 4.33-3.22h-1.74c-.26 1.17-1.3 1.79-2.62 1.79-2.01 0-2.98-1.55-2.98-3.51h7.41v-.68c0-3.14-1.62-5.12-4.53-5.12-3.01 0-4.75 2.21-4.75 5.47 0 3.3 1.99 5.27 4.88 5.27Zm-3-6.19c-.01-1.54.91-3.15 2.86-3.15 1.87 0 2.76 1.37 2.76 3.15h-5.62ZM184.515 89h1.69l3.72-10.34h-1.73l-2.76 8.02h-.17l-2.75-8.02h-1.74l3.74 10.34Zm11.592.2c2.01 0 3.95-1.11 4.33-3.22h-1.74c-.26 1.17-1.3 1.79-2.62 1.79-2.01 0-2.98-1.55-2.98-3.51h7.41v-.68c0-3.14-1.62-5.12-4.53-5.12-3.01 0-4.75 2.21-4.75 5.47 0 3.3 1.99 5.27 4.88 5.27Zm-3-6.19c-.01-1.54.91-3.15 2.86-3.15 1.87 0 2.76 1.37 2.76 3.15h-5.62Zm9.958 5.99h1.84v-6.43c0-1.72 1.34-2.42 2.99-2.31.21 0 .58.03.78.12v-1.79c-.17-.09-.49-.13-.79-.13-1.31 0-2.54.7-3.06 2.19v-1.99h-1.76V89Zm15.286.13c.26 0 .62-.06.93-.16v-1.2l-.56-.01c-.73-.05-1.16-.55-1.16-1.6V74.14h-1.82v12.2c0 1.45.38 2.79 2.61 2.79Zm7.307.07c2.01 0 3.95-1.11 4.33-3.22h-1.74c-.26 1.17-1.3 1.79-2.62 1.79-2.01 0-2.98-1.55-2.98-3.51h7.41v-.68c0-3.14-1.62-5.12-4.53-5.12-3.01 0-4.75 2.21-4.75 5.47 0 3.3 1.99 5.27 4.88 5.27Zm-3-6.19c-.01-1.54.91-3.15 2.86-3.15 1.87 0 2.76 1.37 2.76 3.15h-5.62ZM233.605 89h1.85v-8.99h2.51v-1.35h-2.54v-1.44c0-.92.25-1.37 1.1-1.37h1.54l-.01-1.31h-1.95c-1.67 0-2.5.88-2.5 2.52v1.6h-2.19v1.35h2.19V89Zm9.695.05c.75 0 1.27-.07 1.53-.17v-1.24h-1.13c-.97 0-1.26-.1-1.26-1.2v-6.43h2.33v-1.36h-2.33v-3h-1.36l-.45 3.01h-1.73v1.35h1.68v6.49c0 1.66.57 2.55 2.72 2.55Zm12.637 0c.75 0 1.27-.07 1.53-.17v-1.24h-1.13c-.97 0-1.26-.1-1.26-1.2v-6.43h2.33v-1.36h-2.33v-3h-1.36l-.45 3.01h-1.73v1.35h1.68v6.49c0 1.66.57 2.55 2.72 2.55Zm3.984-.05h1.84v-6.9c0-1.39 1.26-2.06 2.66-2.06 1.36 0 2.29.71 2.29 1.94V89h1.85v-7.39c0-1.89-1.59-3.08-3.61-3.08-1.66 0-2.71.8-3.23 1.65v-6.04h-1.8V89Zm15.893.2c2.01 0 3.95-1.11 4.33-3.22h-1.74c-.26 1.17-1.3 1.79-2.62 1.79-2.01 0-2.98-1.55-2.98-3.51h7.41v-.68c0-3.14-1.62-5.12-4.53-5.12-3.01 0-4.75 2.21-4.75 5.47 0 3.3 1.99 5.27 4.88 5.27Zm-3-6.19c-.01-1.54.91-3.15 2.86-3.15 1.87 0 2.76 1.37 2.76 3.15h-5.62ZM287.499 89h1.84v-6.91c0-1.45 1.27-2.06 2.33-2.06.96 0 2.1.62 2.1 1.85V89h1.84v-6.91c0-1.57 1.35-2.06 2.32-2.06 1.09 0 2.12.52 2.12 2.39V89h1.86v-6.76c0-3.06-1.91-3.78-3.37-3.78-1.37 0-2.51.68-3.15 1.69-.54-1.1-1.85-1.69-2.98-1.69-1.61 0-2.56.79-3.13 1.7v-1.5h-1.78V89Zm20.165.2c1.48 0 2.75-.53 3.55-2.14l.14 1.94h1.58v-7.22c0-2.16-1.34-3.32-4.03-3.32-2.51 0-4.05 1.11-4.16 3.12h1.63c.25-1.23 1.25-1.75 2.44-1.76 1.59 0 2.33.8 2.33 2.06v.81l-1.84.05c-3.54.08-5.05 1.17-5.05 3.46 0 1.89 1.4 3 3.41 3Zm.55-1.33c-1.27 0-2.17-.68-2.17-1.85 0-1.53 1.19-2.12 3.57-2.16l1.53-.03v1.77c0 1.15-1.54 2.27-2.93 2.27Zm7.605-11.4h1.89v-1.92h-1.89v1.92Zm.05 12.53h1.79V78.66h-1.79V89Zm5.028 0h1.84v-6.91c0-1.39 1.28-2.05 2.68-2.05 1.35 0 2.28.77 2.28 2.38V89h1.85v-6.76c0-2.6-1.66-3.73-3.62-3.73-1.66 0-2.73.79-3.24 1.65v-1.5h-1.79V89Zm16.406 0h1.84v-6.91c0-1.45 1.27-2.06 2.33-2.06.96 0 2.1.62 2.1 1.85V89h1.84v-6.91c0-1.57 1.35-2.06 2.32-2.06 1.09 0 2.12.52 2.12 2.39V89h1.86v-6.76c0-3.06-1.91-3.78-3.37-3.78-1.37 0-2.51.68-3.15 1.69-.54-1.1-1.85-1.69-2.98-1.69-1.61 0-2.56.79-3.13 1.7v-1.5h-1.78V89Zm21.675.2c2.01 0 3.95-1.11 4.33-3.22h-1.74c-.26 1.17-1.3 1.79-2.62 1.79-2.01 0-2.98-1.55-2.98-3.51h7.41v-.68c0-3.14-1.62-5.12-4.53-5.12-3.01 0-4.75 2.21-4.75 5.47 0 3.3 1.99 5.27 4.88 5.27Zm-3-6.19c-.01-1.54.91-3.15 2.86-3.15 1.87 0 2.76 1.37 2.76 3.15h-5.62Zm9.958 5.99h1.84v-6.91c0-1.39 1.28-2.05 2.68-2.05 1.35 0 2.28.77 2.28 2.38V89h1.85v-6.76c0-2.6-1.66-3.73-3.62-3.73-1.66 0-2.73.79-3.24 1.65v-1.5h-1.79V89Zm15.343.2c1.46.01 2.72-.63 3.1-2.18l.19 1.98h1.47V78.66h-1.84v6.73c0 1.57-1.01 2.37-2.53 2.37-1.69 0-2.51-.92-2.51-2.27v-6.83h-1.85v7.02c0 2.33 1.82 3.5 3.97 3.52Zm7.372-.2h2.2v-2.36h-2.2V89Zm10.029 0h1.85V74.54h-1.85V89Zm8.976.05c.75 0 1.27-.07 1.53-.17v-1.24h-1.13c-.97 0-1.26-.1-1.26-1.2v-6.43h2.33v-1.36h-2.33v-3h-1.36l-.45 3.01h-1.73v1.35h1.68v6.49c0 1.66.57 2.55 2.72 2.55Zm9.077-12.58h1.96v-1.92h-1.96v1.92Zm-.92 15.85c2.11 0 2.83-.93 2.83-2.86v-10.8h-1.85V89.4c0 .96-.33 1.33-1.26 1.4l-1.02.05v1.23s.17.24 1.3.24Zm9.744-3.12c1.46.01 2.72-.63 3.1-2.18l.19 1.98h1.47V78.66h-1.84v6.73c0 1.57-1.01 2.37-2.53 2.37-1.69 0-2.51-.92-2.51-2.27v-6.83h-1.85v7.02c0 2.33 1.82 3.5 3.97 3.52Zm11.521 0c2.52 0 3.98-1.17 3.98-3.07 0-1.02-.52-2.28-2.42-2.78l-2.08-.52c-1.14-.28-1.74-.65-1.74-1.39 0-1.1.91-1.62 2.23-1.62 1.28 0 2.04.62 2.18 1.61h1.64c-.07-1.94-1.56-2.97-3.8-2.97-2.62 0-3.95 1.28-3.94 3.09.01 1.54 1.08 2.33 2.75 2.73l2.14.53c.94.22 1.38.66 1.38 1.42 0 1.08-.93 1.59-2.33 1.59-1.31 0-2.35-.62-2.61-1.83h-1.68c.3 2.23 2.14 3.21 4.3 3.21Zm9.953-.15c.75 0 1.27-.07 1.53-.17v-1.24h-1.13c-.97 0-1.26-.1-1.26-1.2v-6.43h2.33v-1.36h-2.33v-3h-1.36l-.45 3.01h-1.73v1.35h1.68v6.49c0 1.66.57 2.55 2.72 2.55Zm8.847-.05h1.84v-6.43c0-1.72 1.34-2.42 2.99-2.31.21 0 .58.03.78.12v-1.79c-.17-.09-.49-.13-.79-.13-1.31 0-2.54.7-3.06 2.19v-1.99h-1.76V89Zm12.026.2c2.01 0 3.95-1.11 4.33-3.22h-1.74c-.26 1.17-1.3 1.79-2.62 1.79-2.01 0-2.98-1.55-2.98-3.51h7.41v-.68c0-3.14-1.62-5.12-4.53-5.12-3.01 0-4.75 2.21-4.75 5.47 0 3.3 1.99 5.27 4.88 5.27Zm-3-6.19c-.01-1.54.91-3.15 2.86-3.15 1.87 0 2.76 1.37 2.76 3.15h-5.62Zm12.721 6.19c1.48 0 2.75-.53 3.55-2.14l.14 1.94h1.58v-7.22c0-2.16-1.34-3.32-4.03-3.32-2.51 0-4.05 1.11-4.16 3.12h1.63c.25-1.23 1.25-1.75 2.44-1.76 1.59 0 2.33.8 2.33 2.06v.81l-1.84.05c-3.54.08-5.05 1.17-5.05 3.46 0 1.89 1.4 3 3.41 3Zm.55-1.33c-1.27 0-2.17-.68-2.17-1.85 0-1.53 1.19-2.12 3.57-2.16l1.53-.03v1.77c0 1.15-1.54 2.27-2.93 2.27Zm11.765 1.33c2.19 0 3.87-1.31 4.14-3.39h-1.61c-.18 1.04-1.08 1.98-2.5 1.98-1.98 0-3.02-1.55-3.02-3.94 0-2.64 1.23-3.9 3-3.9 1.42 0 2.32.89 2.5 1.98h1.64c-.28-2.11-1.93-3.47-4.15-3.47-3.05 0-4.76 2.19-4.76 5.41 0 3.47 1.96 5.33 4.76 5.33Zm10.04-.15c.75 0 1.27-.07 1.53-.17v-1.24h-1.13c-.97 0-1.26-.1-1.26-1.2v-6.43h2.33v-1.36h-2.33v-3h-1.36l-.45 3.01h-1.73v1.35h1.68v6.49c0 1.66.57 2.55 2.72 2.55Zm7.665.15c2.52 0 3.98-1.17 3.98-3.07 0-1.02-.52-2.28-2.42-2.78l-2.08-.52c-1.14-.28-1.74-.65-1.74-1.39 0-1.1.91-1.62 2.23-1.62 1.28 0 2.04.62 2.18 1.61h1.64c-.07-1.94-1.56-2.97-3.8-2.97-2.62 0-3.95 1.28-3.94 3.09.01 1.54 1.08 2.33 2.75 2.73l2.14.53c.94.22 1.38.66 1.38 1.42 0 1.08-.93 1.59-2.33 1.59-1.31 0-2.35-.62-2.61-1.83h-1.68c.3 2.23 2.14 3.21 4.3 3.21Zm-455.215 24c1.48 0 2.75-.53 3.55-2.14l.14 1.94h1.58v-7.22c0-2.16-1.34-3.32-4.03-3.32-2.51 0-4.05 1.11-4.16 3.12h1.63c.25-1.23 1.25-1.75 2.44-1.76 1.59 0 2.33.8 2.33 2.06v.81l-1.84.05c-3.54.08-5.05 1.17-5.05 3.46 0 1.89 1.4 3 3.41 3Zm.55-1.33c-1.27 0-2.17-.68-2.17-1.85 0-1.53 1.19-2.12 3.57-2.16l1.53-.03v1.77c0 1.15-1.54 2.27-2.93 2.27Zm7.605 1.13h1.84v-6.91c0-1.39 1.28-2.05 2.68-2.05 1.35 0 2.28.77 2.28 2.38V113h1.85v-6.76c0-2.6-1.66-3.73-3.62-3.73-1.66 0-2.73.79-3.24 1.65v-1.5h-1.79V113Zm15.313.2c2.42 0 3.23-1.51 3.49-2.32l.2 2.12h1.42V98.14h-1.87v6.16c-.33-.67-1.41-1.84-3.39-1.84-2.8 0-4.22 2.11-4.22 5.33 0 3.54 1.68 5.41 4.37 5.41Zm.33-1.42c-1.86 0-2.84-1.49-2.84-4.08 0-2.65 1.17-3.8 2.87-3.8 2.06 0 2.86 1.38 2.88 3.8 0 2.89-.82 4.08-2.91 4.08Zm15.597 1.42c1.48 0 2.75-.53 3.55-2.14l.14 1.94h1.58v-7.22c0-2.16-1.34-3.32-4.03-3.32-2.51 0-4.05 1.11-4.16 3.12h1.63c.25-1.23 1.25-1.75 2.44-1.76 1.59 0 2.33.8 2.33 2.06v.81l-1.84.05c-3.54.08-5.05 1.17-5.05 3.46 0 1.89 1.4 3 3.41 3Zm.55-1.33c-1.27 0-2.17-.68-2.17-1.85 0-1.53 1.19-2.12 3.57-2.16l1.53-.03v1.77c0 1.15-1.54 2.27-2.93 2.27Zm7.604 1.13h1.84v-6.43c0-1.72 1.34-2.42 2.99-2.31.21 0 .58.03.78.12v-1.79c-.17-.09-.49-.13-.79-.13-1.31 0-2.54.7-3.06 2.19v-1.99h-1.76V113Zm7.813 0h1.84v-6.43c0-1.72 1.34-2.42 2.99-2.31.21 0 .58.03.78.12v-1.79c-.17-.09-.49-.13-.79-.13-1.31 0-2.54.7-3.06 2.19v-1.99h-1.76V113Zm10.361.2c1.48 0 2.75-.53 3.55-2.14l.14 1.94h1.58v-7.22c0-2.16-1.34-3.32-4.03-3.32-2.51 0-4.05 1.11-4.16 3.12h1.63c.25-1.23 1.25-1.75 2.44-1.76 1.59 0 2.33.8 2.33 2.06v.81l-1.84.05c-3.54.08-5.05 1.17-5.05 3.46 0 1.89 1.4 3 3.41 3Zm.55-1.33c-1.27 0-2.17-.68-2.17-1.85 0-1.53 1.19-2.12 3.57-2.16l1.53-.03v1.77c0 1.15-1.54 2.27-2.93 2.27Zm7.604 1.13h1.84v-6.91c0-1.39 1.28-2.05 2.68-2.05 1.35 0 2.28.77 2.28 2.38V113h1.85v-6.76c0-2.6-1.66-3.73-3.62-3.73-1.66 0-2.73.79-3.24 1.65v-1.5h-1.79V113Zm15.913 3.42c3.43 0 5.09-1.31 5.09-3.19 0-1.65-1.22-2.67-3.38-2.8-.95-.06-1.73-.1-2.25-.13-1.44-.1-1.97-.21-1.97-.59 0-.33.43-.65 1.85-.69.17.01.46.02.62.02 2.89 0 4.31-1.44 4.31-3.27 0-.44-.13-.98-.34-1.41l1.81-.34.01-1.71c-.56.23-2.2.91-2.64 1.09-.79-.57-1.63-.9-2.97-.9-2.81 0-4.5 1.26-4.5 3.27 0 1.19.71 2.26 1.93 2.87-1.22.27-1.83.86-1.83 1.51 0 .8.71 1.09 1.07 1.3-.26.19-1.96.76-1.96 2.25 0 1.75 1.91 2.72 5.15 2.72Zm.02-8.57c-1.61 0-2.53-.75-2.53-2.06 0-1.39 1.01-2.15 2.53-2.15 1.48 0 2.48.76 2.48 2.15 0 1.36-1 2.06-2.48 2.06Zm.31 7.38c-2.49 0-3.64-.64-3.64-1.74 0-.96 1.03-1.69 1.81-1.65l2.9.19c1.26.08 1.89.65 1.89 1.47 0 1.16-1.05 1.73-2.96 1.73Zm11.78-2.03c2.01 0 3.95-1.11 4.33-3.22h-1.74c-.26 1.17-1.3 1.79-2.62 1.79-2.01 0-2.98-1.55-2.98-3.51h7.41v-.68c0-3.14-1.62-5.12-4.53-5.12-3.01 0-4.75 2.21-4.75 5.47 0 3.3 1.99 5.27 4.88 5.27Zm-3-6.19c-.01-1.54.91-3.15 2.86-3.15 1.87 0 2.76 1.37 2.76 3.15h-5.62Zm13.6 6.19c2.52 0 3.98-1.17 3.98-3.07 0-1.02-.52-2.28-2.42-2.78l-2.08-.52c-1.14-.28-1.74-.65-1.74-1.39 0-1.1.91-1.62 2.23-1.62 1.28 0 2.04.62 2.18 1.61h1.64c-.07-1.94-1.56-2.97-3.8-2.97-2.62 0-3.95 1.28-3.94 3.09.01 1.54 1.08 2.33 2.75 2.73l2.14.53c.94.22 1.38.66 1.38 1.42 0 1.08-.93 1.59-2.33 1.59-1.31 0-2.35-.62-2.61-1.83h-1.68c.3 2.23 2.14 3.21 4.3 3.21Zm11.182-12.73h1.89v-1.92h-1.89v1.92Zm.05 12.53h1.79v-10.34h-1.79V113Zm8.681.05c.75 0 1.27-.07 1.53-.17v-1.24h-1.13c-.97 0-1.26-.1-1.26-1.2v-6.43h2.33v-1.36h-2.33v-3h-1.36l-.45 3.01h-1.73v1.35h1.68v6.49c0 1.66.57 2.55 2.72 2.55Zm7.665.15c2.52 0 3.98-1.17 3.98-3.07 0-1.02-.52-2.28-2.42-2.78l-2.08-.52c-1.14-.28-1.74-.65-1.74-1.39 0-1.1.91-1.62 2.23-1.62 1.28 0 2.04.62 2.18 1.61h1.64c-.07-1.94-1.56-2.97-3.8-2.97-2.62 0-3.95 1.28-3.94 3.09.01 1.54 1.08 2.33 2.75 2.73l2.14.53c.94.22 1.38.66 1.38 1.42 0 1.08-.93 1.59-2.33 1.59-1.31 0-2.35-.62-2.61-1.83h-1.68c.3 2.23 2.14 3.21 4.3 3.21Zm10.767 0c2.01 0 3.95-1.11 4.33-3.22h-1.74c-.26 1.17-1.3 1.79-2.62 1.79-2.01 0-2.98-1.55-2.98-3.51h7.41v-.68c0-3.14-1.62-5.12-4.53-5.12-3.01 0-4.75 2.21-4.75 5.47 0 3.3 1.99 5.27 4.88 5.27Zm-3-6.19c-.01-1.54.91-3.15 2.86-3.15 1.87 0 2.76 1.37 2.76 3.15h-5.62Zm12.568 6.12c.26 0 .62-.06.93-.16v-1.2l-.56-.01c-.73-.05-1.16-.55-1.16-1.6V98.14h-1.82v12.2c0 1.45.38 2.79 2.61 2.79Zm4.356-.13h1.85v-8.99h2.51v-1.35h-2.54v-1.44c0-.92.25-1.37 1.1-1.37h1.54l-.01-1.31h-1.95c-1.67 0-2.5.88-2.5 2.52v1.6h-2.19v1.35h2.19V113Zm14.293.2c1.48 0 2.75-.53 3.55-2.14l.14 1.94h1.58v-7.22c0-2.16-1.34-3.32-4.03-3.32-2.51 0-4.05 1.11-4.16 3.12h1.63c.25-1.23 1.25-1.75 2.44-1.76 1.59 0 2.33.8 2.33 2.06v.81l-1.84.05c-3.54.08-5.05 1.17-5.05 3.46 0 1.89 1.4 3 3.41 3Zm.55-1.33c-1.27 0-2.17-.68-2.17-1.85 0-1.53 1.19-2.12 3.57-2.16l1.53-.03v1.77c0 1.15-1.54 2.27-2.93 2.27Zm11.765 1.33c2.19 0 3.87-1.31 4.14-3.39h-1.61c-.18 1.04-1.08 1.98-2.5 1.98-1.98 0-3.02-1.55-3.02-3.94 0-2.64 1.23-3.9 3-3.9 1.42 0 2.32.89 2.5 1.98h1.64c-.28-2.11-1.93-3.47-4.15-3.47-3.05 0-4.76 2.19-4.76 5.41 0 3.47 1.96 5.33 4.76 5.33Zm10.801 0c2.19 0 3.87-1.31 4.14-3.39h-1.61c-.18 1.04-1.08 1.98-2.5 1.98-1.98 0-3.02-1.55-3.02-3.94 0-2.64 1.23-3.9 3-3.9 1.42 0 2.32.89 2.5 1.98h1.64c-.28-2.11-1.93-3.47-4.15-3.47-3.05 0-4.76 2.19-4.76 5.41 0 3.47 1.96 5.33 4.76 5.33Zm10.781 0c3.08 0 4.71-2.17 4.71-5.33 0-3.48-1.85-5.41-4.7-5.41-3.06 0-4.75 2.17-4.75 5.41 0 3.45 1.87 5.33 4.74 5.33Zm.01-1.46c-2.07 0-2.91-1.73-2.91-3.91 0-2.46 1.03-3.92 2.91-3.92 2.03 0 2.87 1.71 2.87 3.92 0 2.43-1.02 3.91-2.87 3.91Zm7.158 1.26h1.84v-6.43c0-1.72 1.34-2.42 2.99-2.31.21 0 .58.03.78.12v-1.79c-.17-.09-.49-.13-.79-.13-1.31 0-2.54.7-3.06 2.19v-1.99h-1.76V113Zm11.427.2c2.42 0 3.23-1.51 3.49-2.32l.2 2.12h1.42V98.14h-1.87v6.16c-.33-.67-1.41-1.84-3.39-1.84-2.8 0-4.22 2.11-4.22 5.33 0 3.54 1.68 5.41 4.37 5.41Zm.33-1.42c-1.86 0-2.84-1.49-2.84-4.08 0-2.65 1.17-3.8 2.87-3.8 2.06 0 2.86 1.38 2.88 3.8 0 2.89-.82 4.08-2.91 4.08Zm7.97-11.31h1.89v-1.92h-1.89v1.92Zm.05 12.53h1.79v-10.34h-1.79V113Zm5.028 0h1.84v-6.91c0-1.39 1.28-2.05 2.68-2.05 1.35 0 2.28.77 2.28 2.38V113h1.85v-6.76c0-2.6-1.66-3.73-3.62-3.73-1.66 0-2.73.79-3.24 1.65v-1.5h-1.79V113Zm15.913 3.42c3.43 0 5.09-1.31 5.09-3.19 0-1.65-1.22-2.67-3.38-2.8-.95-.06-1.73-.1-2.25-.13-1.44-.1-1.97-.21-1.97-.59 0-.33.43-.65 1.85-.69.17.01.46.02.62.02 2.89 0 4.31-1.44 4.31-3.27 0-.44-.13-.98-.34-1.41l1.81-.34.01-1.71c-.56.23-2.2.91-2.64 1.09-.79-.57-1.63-.9-2.97-.9-2.81 0-4.5 1.26-4.5 3.27 0 1.19.71 2.26 1.93 2.87-1.22.27-1.83.86-1.83 1.51 0 .8.71 1.09 1.07 1.3-.26.19-1.96.76-1.96 2.25 0 1.75 1.91 2.72 5.15 2.72Zm.02-8.57c-1.61 0-2.53-.75-2.53-2.06 0-1.39 1.01-2.15 2.53-2.15 1.48 0 2.48.76 2.48 2.15 0 1.36-1 2.06-2.48 2.06Zm.31 7.38c-2.49 0-3.64-.64-3.64-1.74 0-.96 1.03-1.69 1.81-1.65l2.9.19c1.26.08 1.89.65 1.89 1.47 0 1.16-1.05 1.73-2.96 1.73Zm10.351-2.1c.26 0 .62-.06.93-.16v-1.2l-.56-.01c-.73-.05-1.16-.55-1.16-1.6V98.14h-1.82v12.2c0 1.45.38 2.79 2.61 2.79Zm4.084 3.17c1.43 0 2.51-.55 3.32-2.52l4.35-11.12h-1.81l-3.03 7.98-3.05-7.98h-1.87l4.04 10.09-.36.98c-.21.51-.58 1.19-2.12 1.13l-1.06-.02v1.2s.38.26 1.59.26Zm11.618-7.02h1.58c0-3.35 3.99-4.08 3.99-7.47 0-2.02-1.74-3.47-4.43-3.47-2.15 0-3.91 1.08-4.76 2.89l1.65.49c.44-1.12 1.79-1.97 3.09-1.97 1.52 0 2.56.82 2.56 2.14 0 2.65-3.68 3.6-3.68 7.39Zm-.3 3.72h2.19v-2.33h-2.19V113Z"/>
    <rect width="46" height="46" x="531" y="71" fill="url(#c)" rx="17"/>
  </g>
  <rect width="638" height="119" x="639" y="153" stroke="#000" stroke-width="2" rx="35" transform="rotate(-180 639 153)"/>
  <path fill="#000" d="M813.694 70.935h3.89v-10.48l2.83 10.48h2.8l2.82-10.48v10.48h3.9v-14.46h-5.76l-2.36 8.82-2.34-8.82h-5.78v14.46Zm18.945 0h10.7v-3.24h-6.81v-2.46h5.67v-3.14h-5.64v-2.4h6.74l.02-3.22h-10.68v14.46Zm12.949 0h3.89v-8.62l6.05 8.62h3.51v-14.46h-3.89v8.06l-5.64-8.06h-3.92v14.46Zm22.1.2c4.66 0 6.24-2.5 6.24-6.18v-8.48h-3.94v8.64c0 2-1.1 2.76-2.3 2.76-1.22 0-2.3-.76-2.3-2.76v-8.64h-3.94v8.48c0 3.68 1.58 6.18 6.24 6.18Zm-141.54 42c3.63 0 5.27-2.32 5.59-4.87h-2.28c-.31 1.64-1.43 3.04-3.36 3.04-2.47 0-3.84-1.73-3.84-5.64 0-3.89 1.37-5.56 3.84-5.56 1.93 0 3.05 1.27 3.36 2.92h2.28c-.28-2.62-2.48-4.75-5.59-4.75-3.95 0-6.25 2.69-6.25 7.36s2.32 7.5 6.25 7.5Zm14.065 0c3.91 0 6.34-2.73 6.34-7.4 0-4.72-2.46-7.46-6.34-7.46-3.9 0-6.39 2.75-6.39 7.46 0 4.69 2.45 7.4 6.39 7.4Zm0-1.83c-2.5 0-4.04-1.68-4.04-5.54 0-3.91 1.54-5.66 4.04-5.66s3.99 1.73 3.99 5.66c0 3.85-1.47 5.54-3.99 5.54Zm9.215 1.63h2.14v-11.01l7.52 11.01h1.92v-14.46h-2.15v10.78l-7.36-10.78h-2.07v14.46Zm15.234 0h2.14v-11.01l7.52 11.01h1.92v-14.46h-2.15v10.78l-7.36-10.78h-2.07v14.46Zm15.234 0h9.51v-1.88l-7.37-.01v-4.49h6.42v-1.83h-6.41v-4.39h7.18l.01-1.86h-9.34v14.46Zm17.912.2c3.63 0 5.27-2.32 5.59-4.87h-2.28c-.31 1.64-1.43 3.04-3.36 3.04-2.47 0-3.84-1.73-3.84-5.64 0-3.89 1.37-5.56 3.84-5.56 1.93 0 3.05 1.27 3.36 2.92h2.28c-.28-2.62-2.48-4.75-5.59-4.75-3.95 0-6.25 2.69-6.25 7.36s2.32 7.5 6.25 7.5Zm11.333-.2h2.16v-12.51h4.37v-1.95h-11.11v1.95h4.58v12.51Zm8.802 0h9.51v-1.88l-7.37-.01v-4.49h6.42v-1.83h-6.41v-4.39h7.18l.01-1.86h-9.34v14.46Zm12.598 0h3.46c5.23 0 7.68-2.6 7.68-7.31 0-4.51-2.22-7.04-7.52-7.13-1.22-.02-3.42-.02-3.62-.02v14.46Zm2.18-1.8v-10.86h1.36c3.36 0 5.35 1.4 5.35 5.36 0 4.03-2.14 5.5-5.41 5.5h-1.3Zm15.509 1.8h2.17l1.37-3.79h5.73l1.36 3.79h2.16l-5.21-14.46h-2.36l-5.22 14.46Zm4.07-5.73 2.32-6.65 2.32 6.65h-4.64Zm16.054 5.93c3.29 0 5.5-1.76 5.5-4.23 0-1.83-.98-3.32-3.61-3.91l-2.8-.69c-1.44-.35-2.16-.94-2.16-2.05 0-1.2.99-2.21 2.97-2.21 1.66 0 3.05.65 3.23 2.49h2.18c-.02-2.26-1.89-4.24-5.34-4.24-3.02 0-5.29 1.63-5.29 4.15 0 2.25 1.41 3.35 3.53 3.84l2.9.72c1.48.39 2.22.98 2.22 2.09 0 1.48-1.51 2.3-3.22 2.3-1.86 0-3.3-.83-3.64-2.38h-2.23c.36 2.73 2.93 4.12 5.76 4.12Zm-76.569 23.8h2.35l3.68-5.76 3.73 5.76h2.66l-5.07-7.61 4.57-6.85h-2.32l-3.38 5.29-3.41-5.29h-2.64l4.71 7.09-4.88 7.37Zm18.004 0h2.14v-6.13l4.93-8.33h-2.34l-3.65 6.43-3.7-6.43h-2.34l4.96 8.32v6.14Zm8.501 0h10.73v-1.86h-7.79l7.84-11.52v-1.08h-10.4v1.84h7.38l-7.76 11.49v1.13Zm12.76 0h2.47v-2.58h-2.47v2.58Zm5.604 0h9.51v-1.88l-7.37-.01v-4.49h6.42v-1.83h-6.41v-4.39h7.18l.01-1.86h-9.34v14.46Zm16.042 0h2.16v-12.51h4.37v-1.95h-11.11v1.95h4.58v12.51Zm8.802 0h2.14v-6.54h7.4v6.54h2.14v-14.46h-2.14v6.06h-7.4v-6.06h-2.14v14.46Z"/>
  <defs>
    <pattern id="a" width="1" height="1" patternContentUnits="objectBoundingBox">
      <use xlink:href="#d" transform="scale(.00048)"/>
    </pattern>
    <pattern id="c" width="1" height="1" patternContentUnits="objectBoundingBox">
      <use xlink:href="#e" transform="scale(.001)"/>
    </pattern>
    <clipPath id="b">
      <rect width="640" height="121" x="640" y="154" fill="#fff" rx="36" transform="rotate(-180 640 154)"/>
    </clipPath>
  </defs>
</svg>
