<svg xmlns="http://www.w3.org/2000/svg" width="434" height="120" fill="none" viewBox="0 0 434 120">
  <path fill="#fff" stroke="#000" d="M.5.5h433v119H.5z"/>
  <path fill="#000" d="M36.246 69h5.064c6.216 0 9.12-3.36 9.12-8.76 0-5.184-2.688-8.412-9-8.568-1.488-.036-4.824-.024-5.184-.024V69Zm3.528-2.832V54.48h1.656c3.288 0 5.34 1.68 5.34 5.736 0 4.368-2.412 5.952-5.388 5.952h-1.608ZM53.52 69h12.036v-2.976l-8.544-.012v-4.308h7.308v-2.892h-7.284V54.6h8.388l.012-2.952H53.52V69Zm21.902.24c4.092 0 6.984-2.16 6.984-5.304 0-2.46-1.368-4.296-4.728-4.956l-3.012-.648c-1.62-.336-2.304-.96-2.304-2.016 0-1.116.924-2.112 3.012-2.112 1.812 0 3.156.684 3.348 2.484h3.504c-.036-2.928-2.436-5.256-6.756-5.256-3.852 0-6.792 1.992-6.792 5.232 0 2.808 1.752 4.284 4.536 4.86l3.252.708c1.5.348 2.412.864 2.412 2.052 0 1.5-1.62 2.208-3.252 2.208-2.088 0-3.516-.876-3.864-2.448h-3.588c.36 3.48 3.78 5.196 7.248 5.196ZM85.49 69h3.492V51.648H85.49V69Zm14.402.24c2.808 0 4.188-1.32 5.088-2.508V69h2.388v-9.06l-7.26-.036v2.424h3.588l-.132 1.056c-.18 1.236-1.368 2.772-3.42 2.772-2.172 0-4.248-1.296-4.248-5.88 0-4.236 1.788-5.904 4.104-5.904 1.908 0 3.156 1.368 3.48 3.024h3.696c-.132-3.084-2.976-5.988-7.092-5.988-4.8 0-8.004 3.444-8.004 8.964 0 5.424 3.036 8.868 7.812 8.868Zm11.191-.24h3.492V57.06L122.818 69h3.156V51.648h-3.504v11.484l-7.92-11.484h-3.468V69ZM417 60.38l-54 36.702V23.678l54 36.702Z"/>
</svg>
