<svg xmlns="http://www.w3.org/2000/svg" width="434" height="120" fill="none" viewBox="0 0 434 120">
  <path fill="#fff" stroke="#000" d="M.5.5h433v119H.5z"/>
  <path fill="#000" d="M43.266 69.24c2.808 0 4.188-1.32 5.088-2.508V69h2.388v-9.06l-7.26-.036v2.424h3.588l-.132 1.056c-.18 1.236-1.368 2.772-3.42 2.772-2.172 0-4.248-1.296-4.248-5.88 0-4.236 1.788-5.904 4.104-5.904 1.908 0 3.156 1.368 3.48 3.024h3.696c-.132-3.084-2.976-5.988-7.092-5.988-4.8 0-8.004 3.444-8.004 8.964 0 5.424 3.036 8.868 7.812 8.868ZM53.337 69h3.516l1.44-4.02h6.252L65.961 69h3.492L63.25 51.648h-3.708L53.337 69Zm5.748-7.08 2.316-6.9 2.292 6.9h-4.608ZM72.06 69h11.064v-2.964h-7.536V51.648H72.06V69Zm13.851 0h11.064v-2.964h-7.536V51.648H85.91V69Zm13.852 0h12.036v-2.976l-8.544-.012v-4.308h7.308v-2.892h-7.284V54.6h8.388l.012-2.952H99.762V69Zm15.305 0h3.492v-6.684h3.516l2.82 6.684h3.636l-3.228-7.272c1.632-.804 3.048-2.16 3.048-4.896 0-3.048-1.812-5.184-5.964-5.184h-7.32V69Zm3.492-9.384v-5.292h3.456c1.608 0 2.796.996 2.796 2.592s-1.176 2.7-3.048 2.7h-3.204ZM135.336 69h3.504v-7.296l6.036-10.056h-3.828L137.1 58.68l-3.996-7.032h-3.792l6.024 10.044V69ZM417 60.38l-54 36.702V23.678l54 36.702Z"/>
</svg>
