<svg xmlns="http://www.w3.org/2000/svg" width="434" height="120" fill="none" viewBox="0 0 434 120">
  <path fill="#fff" stroke="#000" d="M.5.5h433v119H.5z"/>
  <path fill="#000" d="M42.75 69.24c4.092 0 6.984-2.16 6.984-5.304 0-2.46-1.368-4.296-4.728-4.956l-3.012-.648c-1.62-.336-2.304-.96-2.304-2.016 0-1.116.924-2.112 3.012-2.112 1.812 0 3.156.684 3.348 2.484h3.504c-.036-2.928-2.436-5.256-6.756-5.256-3.852 0-6.792 1.992-6.792 5.232 0 2.808 1.752 4.284 4.536 4.86l3.252.708c1.5.348 2.412.864 2.412 2.052 0 1.5-1.62 2.208-3.252 2.208-2.088 0-3.516-.876-3.864-2.448h-3.588c.36 3.48 3.78 5.196 7.248 5.196ZM52.817 69h12.036v-2.976l-8.544-.012v-4.308h7.308v-2.892h-7.284V54.6h8.388l.012-2.952H52.817V69Zm22.208.24c4.884 0 6.648-2.94 7.068-6.24h-3.672c-.324 1.812-1.5 3.36-3.504 3.36-2.424 0-3.9-1.812-3.9-6.132 0-4.284 1.476-5.94 3.9-5.94 2.004 0 3.18 1.296 3.504 3.108h3.672c-.348-3.408-3.156-5.988-7.068-5.988-4.884 0-7.86 3.312-7.86 8.772 0 5.46 3.012 9.06 7.86 9.06ZM85.184 69h3.492v-6.684h3.516L95.012 69h3.636l-3.228-7.272c1.632-.804 3.048-2.16 3.048-4.896 0-3.048-1.812-5.184-5.964-5.184h-7.32V69Zm3.492-9.384v-5.292h3.456c1.608 0 2.796.996 2.796 2.592s-1.176 2.7-3.048 2.7h-3.204ZM101.895 69h12.036v-2.976l-8.544-.012v-4.308h7.308v-2.892h-7.284V54.6h8.388l.012-2.952h-11.916V69Zm19.576 0h3.516V54.768h5.124v-3.12h-13.884v3.12h5.244V69Zm17.49.24c4.092 0 6.984-2.16 6.984-5.304 0-2.46-1.368-4.296-4.728-4.956l-3.012-.648c-1.62-.336-2.304-.96-2.304-2.016 0-1.116.924-2.112 3.012-2.112 1.812 0 3.156.684 3.348 2.484h3.504c-.036-2.928-2.436-5.256-6.756-5.256-3.852 0-6.792 1.992-6.792 5.232 0 2.808 1.752 4.284 4.536 4.86l3.252.708c1.5.348 2.412.864 2.412 2.052 0 1.5-1.62 2.208-3.252 2.208-2.088 0-3.516-.876-3.864-2.448h-3.588c.36 3.48 3.78 5.196 7.248 5.196ZM417 60.38l-54 36.702V23.678l54 36.702Z"/>
</svg>
