<svg xmlns="http://www.w3.org/2000/svg" width="434" height="121" fill="none" viewBox="0 0 434 121">
  <path fill="#fff" stroke="#000" d="M.5.5h433v120H.5z"/>
  <path fill="#000" d="M36.246 69H47.31v-2.964h-7.536V51.648h-3.528V69Zm13.852 0h12.036v-2.976l-8.544-.012v-4.308h7.308v-2.892h-7.284V54.6h8.388l.012-2.952H50.098V69Zm13.997 0h3.516l1.44-4.02h6.252L76.72 69h3.492l-6.204-17.352H70.3L64.095 69Zm5.748-7.08 2.316-6.9 2.292 6.9h-4.608ZM82.817 69h5.064c6.216 0 9.12-3.36 9.12-8.76 0-5.184-2.688-8.412-9-8.568-1.488-.036-4.824-.024-5.184-.024V69Zm3.528-2.832V54.48H88c3.288 0 5.34 1.68 5.34 5.736 0 4.368-2.412 5.952-5.388 5.952h-1.608ZM100.09 69h12.036v-2.976l-8.544-.012v-4.308h7.308v-2.892h-7.284V54.6h8.388l.012-2.952H100.09V69Zm15.305 0h3.492v-6.684h3.516l2.82 6.684h3.636l-3.228-7.272c1.632-.804 3.048-2.16 3.048-4.896 0-3.048-1.812-5.184-5.964-5.184h-7.32V69Zm3.492-9.384v-5.292h3.456c1.608 0 2.796.996 2.796 2.592s-1.176 2.7-3.048 2.7h-3.204ZM132.106 69h6.576c4.74 0 6.828-1.5 6.828-4.704 0-1.608-.528-3.42-3.42-4.188 2.256-.948 3.012-2.184 3.012-3.912 0-2.928-2.16-4.548-6.708-4.548h-6.288V69Zm3.492-10.176V54.36h3.108c1.752 0 3.012.792 3.012 2.292 0 1.524-1.344 2.172-2.772 2.172h-3.348Zm0 7.464v-4.68h3.348c1.716 0 3.012.804 3.012 2.34 0 1.428-1.104 2.34-3.204 2.34h-3.156Zm20.103 2.952c4.884 0 7.944-3.384 7.944-8.88 0-5.556-3.12-8.952-7.944-8.952-4.848 0-8.004 3.408-8.004 8.952 0 5.52 3.084 8.88 8.004 8.88Zm0-2.88c-2.52 0-4.164-1.716-4.164-5.952 0-4.32 1.644-6.12 4.164-6.12 2.52 0 4.14 1.788 4.14 6.12 0 4.236-1.608 5.952-4.14 5.952Zm8.918 2.64h3.516l1.44-4.02h6.252l1.416 4.02h3.492l-6.204-17.352h-3.708L164.619 69Zm5.748-7.08 2.316-6.9 2.292 6.9h-4.608ZM183.34 69h3.492v-6.684h3.516l2.82 6.684h3.636l-3.228-7.272c1.632-.804 3.048-2.16 3.048-4.896 0-3.048-1.812-5.184-5.964-5.184h-7.32V69Zm3.492-9.384v-5.292h3.456c1.608 0 2.796.996 2.796 2.592s-1.176 2.7-3.048 2.7h-3.204ZM200.051 69h5.064c6.216 0 9.12-3.36 9.12-8.76 0-5.184-2.688-8.412-9-8.568-1.488-.036-4.824-.024-5.184-.024V69Zm3.528-2.832V54.48h1.656c3.288 0 5.34 1.68 5.34 5.736 0 4.368-2.412 5.952-5.388 5.952h-1.608ZM417 60.38l-54 36.702V23.678l54 36.702Z"/>
</svg>
