<svg xmlns="http://www.w3.org/2000/svg" width="434" height="121" fill="none" viewBox="0 0 434 121">
  <path fill="#000" d="M0 0h434v121H0z"/>
  <path fill="#fff" stroke="#000" d="M.5.5h433v120H.5z"/>
  <path fill="#000" d="M42.75 69.24c4.092 0 6.984-2.16 6.984-5.304 0-2.46-1.368-4.296-4.728-4.956l-3.012-.648c-1.62-.336-2.304-.96-2.304-2.016 0-1.116.924-2.112 3.012-2.112 1.812 0 3.156.684 3.348 2.484h3.504c-.036-2.928-2.436-5.256-6.756-5.256-3.852 0-6.792 1.992-6.792 5.232 0 2.808 1.752 4.284 4.536 4.86l3.252.708c1.5.348 2.412.864 2.412 2.052 0 1.5-1.62 2.208-3.252 2.208-2.088 0-3.516-.876-3.864-2.448h-3.588c.36 3.48 3.78 5.196 7.248 5.196Zm13.8-.24h3.515V54.768h5.124v-3.12H51.305v3.12h5.244V69Zm7.662 0h3.516l1.44-4.02h6.252L76.836 69h3.492l-6.204-17.352h-3.708L64.212 69Zm5.748-7.08 2.316-6.9 2.292 6.9H69.96ZM82.934 69h3.492v-6.684h3.516L92.762 69h3.636l-3.228-7.272c1.632-.804 3.048-2.16 3.048-4.896 0-3.048-1.812-5.184-5.964-5.184h-7.32V69Zm3.492-9.384v-5.292h3.456c1.608 0 2.796.996 2.796 2.592s-1.176 2.7-3.048 2.7h-3.204ZM103.166 69h3.516V54.768h5.124v-3.12H97.922v3.12h5.244V69Zm16.448 0h3.492V57.06L131.35 69h3.156V51.648h-3.504v11.484l-7.92-11.484h-3.468V69Zm18.773 0h12.036v-2.976l-8.544-.012v-4.308h7.308v-2.892h-7.284V54.6h8.388l.012-2.952h-11.916V69Zm19.022 0h2.748l3.288-11.34L166.709 69h2.796l5.124-17.352h-3.42l-3.228 11.46-3.264-11.46h-2.532l-3.228 11.46-3.228-11.46h-3.432L157.409 69Zm32.06.24c2.808 0 4.188-1.32 5.088-2.508V69h2.388v-9.06l-7.26-.036v2.424h3.588l-.132 1.056c-.18 1.236-1.368 2.772-3.42 2.772-2.172 0-4.248-1.296-4.248-5.88 0-4.236 1.788-5.904 4.104-5.904 1.908 0 3.156 1.368 3.48 3.024h3.696c-.132-3.084-2.976-5.988-7.092-5.988-4.8 0-8.004 3.444-8.004 8.964 0 5.424 3.036 8.868 7.812 8.868ZM199.54 69h3.516l1.44-4.02h6.252l1.416 4.02h3.492l-6.204-17.352h-3.708L199.54 69Zm5.748-7.08 2.316-6.9 2.292 6.9h-4.608ZM218.262 69h3.528V55.788L225.942 69h2.748l4.176-13.272V69h3.54V51.648h-5.076l-4.008 12.372-3.972-12.372h-5.088V69Zm22.031 0h12.036v-2.976l-8.544-.012v-4.308h7.308v-2.892h-7.284V54.6h8.388l.012-2.952h-11.916V69ZM417 55.38l-54 36.702V18.678l54 36.702Z"/>
</svg>
