<svg xmlns="http://www.w3.org/2000/svg" xmlns:xlink="http://www.w3.org/1999/xlink" width="640" height="372" fill="none" viewBox="0 0 640 372">
  <rect width="640" height="372" fill="#fff" rx="36"/>
  <rect width="638" height="370" x="1" y="1" stroke="#000" stroke-width="2" rx="35"/>
  <path fill="#000" d="M71.17 187h1.84v-6.15l4.9-8.31h-2.03l-3.78 6.65-3.84-6.65h-2.02l4.93 8.3V187Zm11.398.2c3.08 0 4.71-2.17 4.71-5.33 0-3.48-1.85-5.41-4.7-5.41-3.06 0-4.75 2.17-4.75 5.41 0 3.45 1.87 5.33 4.74 5.33Zm.01-1.46c-2.07 0-2.91-1.73-2.91-3.91 0-2.46 1.03-3.92 2.91-3.92 2.03 0 2.87 1.71 2.87 3.92 0 2.43-1.02 3.91-2.87 3.91Zm10.92 1.46c1.46.01 2.72-.63 3.1-2.18l.19 1.98h1.47v-10.34h-1.84v6.73c0 1.57-1.01 2.37-2.53 2.37-1.69 0-2.51-.92-2.51-2.27v-6.83h-1.85v7.02c0 2.33 1.82 3.5 3.97 3.52Zm15.565 0c1.48 0 2.75-.53 3.55-2.14l.14 1.94h1.58v-7.22c0-2.16-1.34-3.32-4.03-3.32-2.51 0-4.05 1.11-4.16 3.12h1.63c.25-1.23 1.25-1.75 2.44-1.76 1.59 0 2.33.8 2.33 2.06v.81l-1.84.05c-3.54.08-5.05 1.17-5.05 3.46 0 1.89 1.4 3 3.41 3Zm.55-1.33c-1.27 0-2.17-.68-2.17-1.85 0-1.53 1.19-2.12 3.57-2.16l1.53-.03v1.77c0 1.15-1.54 2.27-2.93 2.27Zm7.605 1.13h1.84v-6.43c0-1.72 1.34-2.42 2.99-2.31.21 0 .58.03.78.12v-1.79c-.17-.09-.49-.13-.79-.13-1.31 0-2.54.7-3.06 2.19v-1.99h-1.76V187Zm12.026.2c2.01 0 3.95-1.11 4.33-3.22h-1.74c-.26 1.17-1.3 1.79-2.62 1.79-2.01 0-2.98-1.55-2.98-3.51h7.41v-.68c0-3.14-1.62-5.12-4.53-5.12-3.01 0-4.75 2.21-4.75 5.47 0 3.3 1.99 5.27 4.88 5.27Zm-3-6.19c-.01-1.54.91-3.15 2.86-3.15 1.87 0 2.76 1.37 2.76 3.15h-5.62Zm17.584 6.19c1.48 0 2.75-.53 3.55-2.14l.14 1.94h1.58v-7.22c0-2.16-1.34-3.32-4.03-3.32-2.51 0-4.05 1.11-4.16 3.12h1.63c.25-1.23 1.25-1.75 2.44-1.76 1.59 0 2.33.8 2.33 2.06v.81l-1.84.05c-3.54.08-5.05 1.17-5.05 3.46 0 1.89 1.4 3 3.41 3Zm.55-1.33c-1.27 0-2.17-.68-2.17-1.85 0-1.53 1.19-2.12 3.57-2.16l1.53-.03v1.77c0 1.15-1.54 2.27-2.93 2.27Zm12.715 1.33c2.91 0 4.37-2.15 4.37-5.41 0-3.51-1.65-5.33-4.23-5.33-1.97 0-3.05 1.17-3.39 1.84v-6.16h-1.86V187h1.41l.2-2.12c.26.81 1.08 2.32 3.5 2.32Zm-.33-1.42c-2.09 0-2.92-1.19-2.92-4.08.03-2.42.83-3.8 2.88-3.8 1.88 0 2.88 1.39 2.88 3.8 0 2.84-1.17 4.08-2.84 4.08Zm11.294 1.42c3.08 0 4.71-2.17 4.71-5.33 0-3.48-1.85-5.41-4.7-5.41-3.06 0-4.75 2.17-4.75 5.41 0 3.45 1.87 5.33 4.74 5.33Zm.01-1.46c-2.07 0-2.91-1.73-2.91-3.91 0-2.46 1.03-3.92 2.91-3.92 2.03 0 2.87 1.71 2.87 3.92 0 2.43-1.02 3.91-2.87 3.91Zm10.919 1.46c1.46.01 2.72-.63 3.1-2.18l.19 1.98h1.47v-10.34h-1.84v6.73c0 1.57-1.01 2.37-2.53 2.37-1.69 0-2.51-.92-2.51-2.27v-6.83h-1.85v7.02c0 2.33 1.82 3.5 3.97 3.52Zm11.592-.15c.75 0 1.27-.07 1.53-.17v-1.24h-1.13c-.97 0-1.26-.1-1.26-1.2v-6.43h2.33v-1.36h-2.33v-3h-1.36l-.45 3.01h-1.73v1.35h1.68v6.49c0 1.66.57 2.55 2.72 2.55Zm12.637 0c.75 0 1.27-.07 1.53-.17v-1.24h-1.13c-.97 0-1.26-.1-1.26-1.2v-6.43h2.33v-1.36h-2.33v-3h-1.36l-.45 3.01h-1.73v1.35h1.68v6.49c0 1.66.57 2.55 2.72 2.55Zm7.85.15c3.08 0 4.71-2.17 4.71-5.33 0-3.48-1.85-5.41-4.7-5.41-3.06 0-4.75 2.17-4.75 5.41 0 3.45 1.87 5.33 4.74 5.33Zm.01-1.46c-2.07 0-2.91-1.73-2.91-3.91 0-2.46 1.03-3.92 2.91-3.92 2.03 0 2.87 1.71 2.87 3.92 0 2.43-1.02 3.91-2.87 3.91Zm11.885 4.48h1.86v-5.09c.43.88 1.4 2.07 3.25 2.07 2.72 0 4.34-1.96 4.34-5.51 0-3.56-1.72-5.23-4.19-5.23-1.9 0-2.93 1.15-3.4 2l-.02-1.8h-1.84v13.56Zm4.76-4.46c-1.92 0-2.92-1.78-2.92-4.01 0-2.28 1-3.85 2.92-3.85 1.89 0 2.9 1.5 2.9 3.85 0 2.75-1.2 4.01-2.9 4.01Zm9.764 1.37c.26 0 .62-.06.93-.16v-1.2l-.56-.01c-.73-.05-1.16-.55-1.16-1.6v-12.02h-1.82v12.2c0 1.45.38 2.79 2.61 2.79Zm6.247.07c1.48 0 2.75-.53 3.55-2.14l.14 1.94h1.58v-7.22c0-2.16-1.34-3.32-4.03-3.32-2.51 0-4.05 1.11-4.16 3.12h1.63c.25-1.23 1.25-1.75 2.44-1.76 1.59 0 2.33.8 2.33 2.06v.81l-1.84.05c-3.54.08-5.05 1.17-5.05 3.46 0 1.89 1.4 3 3.41 3Zm.55-1.33c-1.27 0-2.17-.68-2.17-1.85 0-1.53 1.19-2.12 3.57-2.16l1.53-.03v1.77c0 1.15-1.54 2.27-2.93 2.27Zm8.302 4.43c1.43 0 2.51-.55 3.32-2.52l4.35-11.12h-1.81l-3.03 7.98-3.05-7.98h-1.87l4.04 10.09-.36.98c-.21.51-.58 1.19-2.12 1.13l-1.06-.02v1.2s.38.26 1.59.26Zm17.09-3.3h1.66l3.22-11.21 3.17 11.21h1.71l4.22-14.46h-1.86l-3.26 11.51-3.25-11.51h-1.45l-3.26 11.51-3.2-11.51h-1.87l4.17 14.46Zm20.502.22c3.21.03 5.57-1.57 5.57-4.21 0-1.88-1.25-3.13-3.15-3.65 1.87-.65 2.76-1.86 2.76-3.29 0-2.39-2.1-3.73-5.1-3.73-2.74 0-5 1.61-5 4.41h1.84c.06-2 1.6-2.87 3.15-2.87 1.98 0 3.12 1.05 3.12 2.25 0 1.35-1.42 2.49-3.32 2.52l-1.24.03v1.57l1.3.03c2.04.02 3.64.96 3.64 2.71 0 1.57-1.37 2.64-3.5 2.64-1.79 0-3.06-.99-3.33-2.79h-1.85c.09 2.67 2.12 4.35 5.11 4.38Zm8.438-.22h4.8c3.69 0 5.56-1.27 5.56-3.89 0-1.63-.76-2.99-3.04-3.48 1.98-.7 2.68-1.79 2.68-3.32 0-2.44-1.84-3.77-5.35-3.77h-4.65V187Zm1.85-8.1v-4.83h2.89c2.05 0 3.47.79 3.47 2.47 0 1.83-1.71 2.36-3.21 2.36h-3.15Zm0 6.56v-4.99h3.15c1.94 0 3.48.75 3.48 2.56 0 1.65-1.29 2.43-3.7 2.43h-2.93Zm11.705 1.54h4.8c3.69 0 5.56-1.27 5.56-3.89 0-1.63-.76-2.99-3.04-3.48 1.98-.7 2.68-1.79 2.68-3.32 0-2.44-1.84-3.77-5.35-3.77h-4.65V187Zm1.85-8.1v-4.83h2.89c2.05 0 3.47.79 3.47 2.47 0 1.83-1.71 2.36-3.21 2.36h-3.15Zm0 6.56v-4.99h3.15c1.94 0 3.48.75 3.48 2.56 0 1.65-1.29 2.43-3.7 2.43h-2.93Zm11.705 1.54h1.85v-14.46h-1.85V187Zm5.664 0h9.31v-1.65l-7.46-.02v-4.82h6.54v-1.62h-6.53v-4.72h7.25l.01-1.63h-9.12V187Zm11.492-9.74h.86l1.7-2.8v-1.92h-2.31v2.19l.86.05-1.11 2.48Zm7.668 9.94c2.52 0 3.98-1.17 3.98-3.07 0-1.02-.52-2.28-2.42-2.78l-2.08-.52c-1.14-.28-1.74-.65-1.74-1.39 0-1.1.91-1.62 2.23-1.62 1.28 0 2.04.62 2.18 1.61h1.64c-.07-1.94-1.56-2.97-3.8-2.97-2.62 0-3.95 1.28-3.94 3.09.01 1.54 1.08 2.33 2.75 2.73l2.14.53c.94.22 1.38.66 1.38 1.42 0 1.08-.93 1.59-2.33 1.59-1.31 0-2.35-.62-2.61-1.83h-1.68c.3 2.23 2.14 3.21 4.3 3.21Zm14.782-.2h1.86v-12.76h4.41v-1.7h-10.94v1.7h4.67V187Zm8.275 0h1.84v-6.9c0-1.39 1.26-2.06 2.66-2.06 1.36 0 2.29.71 2.29 1.94V187h1.85v-7.39c0-1.89-1.59-3.08-3.61-3.08-1.66 0-2.71.8-3.23 1.65v-6.04h-1.8V187Zm11.524-12.53h1.89v-1.92h-1.89v1.92Zm.05 12.53h1.79v-10.34h-1.79V187Zm5.028 0h1.84v-6.43c0-1.72 1.34-2.42 2.99-2.31.21 0 .58.03.78.12v-1.79c-.17-.09-.49-.13-.79-.13-1.31 0-2.54.7-3.06 2.19v-1.99h-1.76V187Zm11.426.2c2.42 0 3.23-1.51 3.49-2.32l.2 2.12h1.42v-14.86h-1.87v6.16c-.33-.67-1.41-1.84-3.39-1.84-2.8 0-4.22 2.11-4.22 5.33 0 3.54 1.68 5.41 4.37 5.41Zm.33-1.42c-1.86 0-2.84-1.49-2.84-4.08 0-2.65 1.17-3.8 2.87-3.8 2.06 0 2.86 1.38 2.88 3.8 0 2.89-.82 4.08-2.91 4.08Zm10.934 1.22h1.66l3.22-11.21 3.17 11.21h1.71l4.22-14.46h-1.86l-3.26 11.51-3.25-11.51h-1.45l-3.26 11.51-3.2-11.51h-1.87l4.17 14.46Zm19.414.2c2.01 0 3.95-1.11 4.33-3.22h-1.74c-.26 1.17-1.3 1.79-2.62 1.79-2.01 0-2.98-1.55-2.98-3.51h7.41v-.68c0-3.14-1.62-5.12-4.53-5.12-3.01 0-4.75 2.21-4.75 5.47 0 3.3 1.99 5.27 4.88 5.27Zm-3-6.19c-.01-1.54.91-3.15 2.86-3.15 1.87 0 2.76 1.37 2.76 3.15h-5.62Zm15.068 6.19c2.91 0 4.37-2.15 4.37-5.41 0-3.51-1.65-5.33-4.23-5.33-1.97 0-3.05 1.17-3.39 1.84v-6.16h-1.86V187h1.41l.2-2.12c.26.81 1.08 2.32 3.5 2.32Zm-.33-1.42c-2.09 0-2.92-1.19-2.92-4.08.03-2.42.83-3.8 2.88-3.8 1.88 0 2.88 1.39 2.88 3.8 0 2.84-1.17 4.08-2.84 4.08Zm12.26 1.22h1.9v-5.35h3.24c3.04 0 5.11-1.65 5.11-4.54 0-2.98-2.26-4.57-5.36-4.57h-4.89V187Zm1.89-6.91v-6.01h3.12c2.03 0 3.44 1 3.44 2.92 0 1.9-1.37 3.09-3.35 3.09h-3.21Zm10.465 6.91h1.84v-6.43c0-1.72 1.34-2.42 2.99-2.31.21 0 .58.03.78.12v-1.79c-.17-.09-.49-.13-.79-.13-1.31 0-2.54.7-3.06 2.19v-1.99h-1.76V187Zm11.796.2c3.08 0 4.71-2.17 4.71-5.33 0-3.48-1.85-5.41-4.7-5.41-3.06 0-4.75 2.17-4.75 5.41 0 3.45 1.87 5.33 4.74 5.33Zm.01-1.46c-2.07 0-2.91-1.73-2.91-3.91 0-2.46 1.03-3.92 2.91-3.92 2.03 0 2.87 1.71 2.87 3.92 0 2.43-1.02 3.91-2.87 3.91Zm10.48 1.31c.75 0 1.27-.07 1.53-.17v-1.24h-1.13c-.97 0-1.26-.1-1.26-1.2v-6.43h2.33v-1.36h-2.33v-3h-1.36l-.45 3.01h-1.73v1.35h1.68v6.49c0 1.66.57 2.55 2.72 2.55Zm7.85.15c3.08 0 4.71-2.17 4.71-5.33 0-3.48-1.85-5.41-4.7-5.41-3.06 0-4.75 2.17-4.75 5.41 0 3.45 1.87 5.33 4.74 5.33Zm.01-1.46c-2.07 0-2.91-1.73-2.91-3.91 0-2.46 1.03-3.92 2.91-3.92 2.03 0 2.87 1.71 2.87 3.92 0 2.43-1.02 3.91-2.87 3.91Zm10.48 1.31c.75 0 1.27-.07 1.53-.17v-1.24h-1.13c-.97 0-1.26-.1-1.26-1.2v-6.43h2.33v-1.36h-2.33v-3h-1.36l-.45 3.01h-1.73v1.35h1.68v6.49c0 1.66.57 2.55 2.72 2.55Zm5.013 3.25c1.43 0 2.51-.55 3.32-2.52l4.35-11.12h-1.81l-3.03 7.98-3.05-7.98h-1.87l4.04 10.09-.36.98c-.21.51-.58 1.19-2.12 1.13l-1.06-.02v1.2s.38.26 1.59.26Zm9.673-.08h1.86v-5.09c.43.88 1.4 2.07 3.25 2.07 2.72 0 4.34-1.96 4.34-5.51 0-3.56-1.72-5.23-4.19-5.23-1.9 0-2.93 1.15-3.4 2l-.02-1.8h-1.84v13.56Zm4.76-4.46c-1.92 0-2.92-1.78-2.92-4.01 0-2.28 1-3.85 2.92-3.85 1.89 0 2.9 1.5 2.9 3.85 0 2.75-1.2 4.01-2.9 4.01Zm11.524 1.44c2.01 0 3.95-1.11 4.33-3.22h-1.74c-.26 1.17-1.3 1.79-2.62 1.79-2.01 0-2.98-1.55-2.98-3.51h7.41v-.68c0-3.14-1.62-5.12-4.53-5.12-3.01 0-4.75 2.21-4.75 5.47 0 3.3 1.99 5.27 4.88 5.27Zm-3-6.19c-.01-1.54.91-3.15 2.86-3.15 1.87 0 2.76 1.37 2.76 3.15h-5.62Zm9.529 5.99h2.2v-2.36h-2.2V187ZM67.91 211h1.9v-5.35h3.24c3.04 0 5.11-1.65 5.11-4.54 0-2.98-2.26-4.57-5.36-4.57h-4.89V211Zm1.89-6.91v-6.01h3.12c2.03 0 3.44 1 3.44 2.92 0 1.9-1.37 3.09-3.35 3.09H69.8Zm13.074 7.04c.26 0 .62-.06.93-.16v-1.2l-.56-.01c-.73-.05-1.16-.55-1.16-1.6v-12.02h-1.82v12.2c0 1.45.38 2.79 2.61 2.79Zm7.307.07c2.01 0 3.95-1.11 4.33-3.22h-1.74c-.26 1.17-1.3 1.79-2.62 1.79-2.01 0-2.98-1.55-2.98-3.51h7.41v-.68c0-3.14-1.62-5.12-4.53-5.12-3.01 0-4.75 2.21-4.75 5.47 0 3.3 1.99 5.27 4.88 5.27Zm-3-6.19c-.01-1.54.91-3.15 2.86-3.15 1.87 0 2.76 1.37 2.76 3.15h-5.62Zm12.722 6.19c1.48 0 2.75-.53 3.55-2.14l.14 1.94h1.58v-7.22c0-2.16-1.34-3.32-4.03-3.32-2.51 0-4.05 1.11-4.16 3.12h1.63c.25-1.23 1.25-1.75 2.44-1.76 1.59 0 2.33.8 2.33 2.06v.81l-1.84.05c-3.54.08-5.05 1.17-5.05 3.46 0 1.89 1.4 3 3.41 3Zm.55-1.33c-1.27 0-2.17-.68-2.17-1.85 0-1.53 1.19-2.12 3.57-2.16l1.53-.03v1.77c0 1.15-1.54 2.27-2.93 2.27Zm11.227 1.33c2.52 0 3.98-1.17 3.98-3.07 0-1.02-.52-2.28-2.42-2.78l-2.08-.52c-1.14-.28-1.74-.65-1.74-1.39 0-1.1.91-1.62 2.23-1.62 1.28 0 2.04.62 2.18 1.61h1.64c-.07-1.94-1.56-2.97-3.8-2.97-2.62 0-3.95 1.28-3.94 3.09.01 1.54 1.08 2.33 2.75 2.73l2.14.53c.94.22 1.38.66 1.38 1.42 0 1.08-.93 1.59-2.33 1.59-1.31 0-2.35-.62-2.61-1.83h-1.68c.3 2.23 2.14 3.21 4.3 3.21Zm10.767 0c2.01 0 3.95-1.11 4.33-3.22h-1.74c-.26 1.17-1.3 1.79-2.62 1.79-2.01 0-2.98-1.55-2.98-3.51h7.41v-.68c0-3.14-1.62-5.12-4.53-5.12-3.01 0-4.75 2.21-4.75 5.47 0 3.3 1.99 5.27 4.88 5.27Zm-3-6.19c-.01-1.54.91-3.15 2.86-3.15 1.87 0 2.76 1.37 2.76 3.15h-5.62Zm17.585 6.19c1.48 0 2.75-.53 3.55-2.14l.14 1.94h1.58v-7.22c0-2.16-1.34-3.32-4.03-3.32-2.51 0-4.05 1.11-4.16 3.12h1.63c.25-1.23 1.25-1.75 2.44-1.76 1.59 0 2.33.8 2.33 2.06v.81l-1.84.05c-3.54.08-5.05 1.17-5.05 3.46 0 1.89 1.4 3 3.41 3Zm.55-1.33c-1.27 0-2.17-.68-2.17-1.85 0-1.53 1.19-2.12 3.57-2.16l1.53-.03v1.77c0 1.15-1.54 2.27-2.93 2.27Zm11.764 1.33c2.19 0 3.87-1.31 4.14-3.39h-1.61c-.18 1.04-1.08 1.98-2.5 1.98-1.98 0-3.02-1.55-3.02-3.94 0-2.64 1.23-3.9 3-3.9 1.42 0 2.32.89 2.5 1.98h1.64c-.28-2.11-1.93-3.47-4.15-3.47-3.05 0-4.76 2.19-4.76 5.41 0 3.47 1.96 5.33 4.76 5.33Zm10.801 0c2.19 0 3.87-1.31 4.14-3.39h-1.61c-.18 1.04-1.08 1.98-2.5 1.98-1.98 0-3.02-1.55-3.02-3.94 0-2.64 1.23-3.9 3-3.9 1.42 0 2.32.89 2.5 1.98h1.64c-.28-2.11-1.93-3.47-4.15-3.47-3.05 0-4.76 2.19-4.76 5.41 0 3.47 1.96 5.33 4.76 5.33Zm11.011 0c2.01 0 3.95-1.11 4.33-3.22h-1.74c-.26 1.17-1.3 1.79-2.62 1.79-2.01 0-2.98-1.55-2.98-3.51h7.41v-.68c0-3.14-1.62-5.12-4.53-5.12-3.01 0-4.75 2.21-4.75 5.47 0 3.3 1.99 5.27 4.88 5.27Zm-3-6.19c-.01-1.54.91-3.15 2.86-3.15 1.87 0 2.76 1.37 2.76 3.15h-5.62Zm9.958 9.21h1.86v-5.09c.43.88 1.4 2.07 3.25 2.07 2.72 0 4.34-1.96 4.34-5.51 0-3.56-1.72-5.23-4.19-5.23-1.9 0-2.93 1.15-3.4 2l-.02-1.8h-1.84v13.56Zm4.76-4.46c-1.92 0-2.92-1.78-2.92-4.01 0-2.28 1-3.85 2.92-3.85 1.89 0 2.9 1.5 2.9 3.85 0 2.75-1.2 4.01-2.9 4.01Zm10.475 1.29c.75 0 1.27-.07 1.53-.17v-1.24h-1.13c-.97 0-1.26-.1-1.26-1.2v-6.43h2.33v-1.36h-2.33v-3h-1.36l-.45 3.01h-1.73v1.35h1.68v6.49c0 1.66.57 2.55 2.72 2.55Zm12.637 0c.75 0 1.27-.07 1.53-.17v-1.24h-1.13c-.97 0-1.26-.1-1.26-1.2v-6.43h2.33v-1.36h-2.33v-3h-1.36l-.45 3.01h-1.73v1.35h1.68v6.49c0 1.66.57 2.55 2.72 2.55Zm3.983-.05h1.84v-6.9c0-1.39 1.26-2.06 2.66-2.06 1.36 0 2.29.71 2.29 1.94V211h1.85v-7.39c0-1.89-1.59-3.08-3.61-3.08-1.66 0-2.71.8-3.23 1.65v-6.04h-1.8V211Zm15.894.2c2.01 0 3.95-1.11 4.33-3.22h-1.74c-.26 1.17-1.3 1.79-2.62 1.79-2.01 0-2.98-1.55-2.98-3.51h7.41v-.68c0-3.14-1.62-5.12-4.53-5.12-3.01 0-4.75 2.21-4.75 5.47 0 3.3 1.99 5.27 4.88 5.27Zm-3-6.19c-.01-1.54.91-3.15 2.86-3.15 1.87 0 2.76 1.37 2.76 3.15h-5.62Zm18.475 6.04c.75 0 1.27-.07 1.53-.17v-1.24h-1.13c-.97 0-1.26-.1-1.26-1.2v-6.43h2.33v-1.36h-2.33v-3h-1.36l-.45 3.01h-1.73v1.35h1.68v6.49c0 1.66.57 2.55 2.72 2.55Zm8.08.15c2.01 0 3.95-1.11 4.33-3.22h-1.74c-.26 1.17-1.3 1.79-2.62 1.79-2.01 0-2.98-1.55-2.98-3.51h7.41v-.68c0-3.14-1.62-5.12-4.53-5.12-3.01 0-4.75 2.21-4.75 5.47 0 3.3 1.99 5.27 4.88 5.27Zm-3-6.19c-.01-1.54.91-3.15 2.86-3.15 1.87 0 2.76 1.37 2.76 3.15h-5.62Zm9.958 5.99h1.84v-6.43c0-1.72 1.34-2.42 2.99-2.31.21 0 .58.03.78.12v-1.79c-.17-.09-.49-.13-.79-.13-1.31 0-2.54.7-3.06 2.19v-1.99h-1.76V211Zm7.812 0h1.84v-6.91c0-1.45 1.27-2.06 2.33-2.06.96 0 2.1.62 2.1 1.85V211h1.84v-6.91c0-1.57 1.35-2.06 2.32-2.06 1.09 0 2.12.52 2.12 2.39V211h1.86v-6.76c0-3.06-1.91-3.78-3.37-3.78-1.37 0-2.51.68-3.15 1.69-.54-1.1-1.85-1.69-2.98-1.69-1.61 0-2.56.79-3.13 1.7v-1.5h-1.78V211Zm20.927.2c2.52 0 3.98-1.17 3.98-3.07 0-1.02-.52-2.28-2.42-2.78l-2.08-.52c-1.14-.28-1.74-.65-1.74-1.39 0-1.1.91-1.62 2.23-1.62 1.28 0 2.04.62 2.18 1.61h1.64c-.07-1.94-1.56-2.97-3.8-2.97-2.62 0-3.95 1.28-3.94 3.09.01 1.54 1.08 2.33 2.75 2.73l2.14.53c.94.22 1.38.66 1.38 1.42 0 1.08-.93 1.59-2.33 1.59-1.31 0-2.35-.62-2.61-1.83h-1.68c.3 2.23 2.14 3.21 4.3 3.21Zm14.083 0c1.48 0 2.75-.53 3.55-2.14l.14 1.94h1.58v-7.22c0-2.16-1.34-3.32-4.03-3.32-2.51 0-4.05 1.11-4.16 3.12h1.63c.25-1.23 1.25-1.75 2.44-1.76 1.59 0 2.33.8 2.33 2.06v.81l-1.84.05c-3.54.08-5.05 1.17-5.05 3.46 0 1.89 1.4 3 3.41 3Zm.55-1.33c-1.27 0-2.17-.68-2.17-1.85 0-1.53 1.19-2.12 3.57-2.16l1.53-.03v1.77c0 1.15-1.54 2.27-2.93 2.27Zm7.604 1.13h1.84v-6.91c0-1.39 1.28-2.05 2.68-2.05 1.35 0 2.28.77 2.28 2.38V211h1.85v-6.76c0-2.6-1.66-3.73-3.62-3.73-1.66 0-2.73.79-3.24 1.65v-1.5h-1.79V211Zm15.703.2c2.19 0 3.87-1.31 4.14-3.39h-1.61c-.18 1.04-1.08 1.98-2.5 1.98-1.98 0-3.02-1.55-3.02-3.94 0-2.64 1.23-3.9 3-3.9 1.42 0 2.32.89 2.5 1.98h1.64c-.28-2.11-1.93-3.47-4.15-3.47-3.05 0-4.76 2.19-4.76 5.41 0 3.47 1.96 5.33 4.76 5.33Zm15.352 0c2.19 0 3.87-1.31 4.14-3.39h-1.61c-.18 1.04-1.08 1.98-2.5 1.98-1.98 0-3.02-1.55-3.02-3.94 0-2.64 1.23-3.9 3-3.9 1.42 0 2.32.89 2.5 1.98h1.64c-.28-2.11-1.93-3.47-4.15-3.47-3.05 0-4.76 2.19-4.76 5.41 0 3.47 1.96 5.33 4.76 5.33Zm10.781 0c3.08 0 4.71-2.17 4.71-5.33 0-3.48-1.85-5.41-4.7-5.41-3.06 0-4.75 2.17-4.75 5.41 0 3.45 1.87 5.33 4.74 5.33Zm.01-1.46c-2.07 0-2.91-1.73-2.91-3.91 0-2.46 1.03-3.92 2.91-3.92 2.03 0 2.87 1.71 2.87 3.92 0 2.43-1.02 3.91-2.87 3.91Zm7.158 1.26h1.84v-6.91c0-1.39 1.28-2.05 2.68-2.05 1.35 0 2.28.77 2.28 2.38V211h1.85v-6.76c0-2.6-1.66-3.73-3.62-3.73-1.66 0-2.73.79-3.24 1.65v-1.5h-1.79V211Zm15.313.2c2.42 0 3.23-1.51 3.49-2.32l.2 2.12h1.42v-14.86h-1.87v6.16c-.33-.67-1.41-1.84-3.39-1.84-2.8 0-4.22 2.11-4.22 5.33 0 3.54 1.68 5.41 4.37 5.41Zm.33-1.42c-1.86 0-2.84-1.49-2.84-4.08 0-2.65 1.17-3.8 2.87-3.8 2.06 0 2.86 1.38 2.88 3.8 0 2.89-.82 4.08-2.91 4.08Zm7.97-11.31h1.89v-1.92h-1.89v1.92Zm.05 12.53h1.79v-10.34h-1.79V211Zm8.682.05c.75 0 1.27-.07 1.53-.17v-1.24h-1.13c-.97 0-1.26-.1-1.26-1.2v-6.43h2.33v-1.36h-2.33v-3h-1.36l-.45 3.01h-1.73v1.35h1.68v6.49c0 1.66.57 2.55 2.72 2.55Zm3.983-12.58h1.89v-1.92h-1.89v1.92Zm.05 12.53h1.79v-10.34h-1.79V211Zm9.032.2c3.08 0 4.71-2.17 4.71-5.33 0-3.48-1.85-5.41-4.7-5.41-3.06 0-4.75 2.17-4.75 5.41 0 3.45 1.87 5.33 4.74 5.33Zm.01-1.46c-2.07 0-2.91-1.73-2.91-3.91 0-2.46 1.03-3.92 2.91-3.92 2.03 0 2.87 1.71 2.87 3.92 0 2.43-1.02 3.91-2.87 3.91Zm7.158 1.26h1.84v-6.91c0-1.39 1.28-2.05 2.68-2.05 1.35 0 2.28.77 2.28 2.38V211h1.85v-6.76c0-2.6-1.66-3.73-3.62-3.73-1.66 0-2.73.79-3.24 1.65v-1.5h-1.79V211Zm15.166.2c2.52 0 3.98-1.17 3.98-3.07 0-1.02-.52-2.28-2.42-2.78l-2.08-.52c-1.14-.28-1.74-.65-1.74-1.39 0-1.1.91-1.62 2.23-1.62 1.28 0 2.04.62 2.18 1.61h1.64c-.07-1.94-1.56-2.97-3.8-2.97-2.62 0-3.95 1.28-3.94 3.09.01 1.54 1.08 2.33 2.75 2.73l2.14.53c.94.22 1.38.66 1.38 1.42 0 1.08-.93 1.59-2.33 1.59-1.31 0-2.35-.62-2.61-1.83h-1.68c.3 2.23 2.14 3.21 4.3 3.21Zm14.972-.15c.75 0 1.27-.07 1.53-.17v-1.24h-1.13c-.97 0-1.26-.1-1.26-1.2v-6.43h2.33v-1.36h-2.33v-3h-1.36l-.45 3.01h-1.73v1.35h1.68v6.49c0 1.66.57 2.55 2.72 2.55Zm7.85.15c3.08 0 4.71-2.17 4.71-5.33 0-3.48-1.85-5.41-4.7-5.41-3.06 0-4.75 2.17-4.75 5.41 0 3.45 1.87 5.33 4.74 5.33Zm.01-1.46c-2.07 0-2.91-1.73-2.91-3.91 0-2.46 1.03-3.92 2.91-3.92 2.03 0 2.87 1.71 2.87 3.92 0 2.43-1.02 3.91-2.87 3.91Zm11.885 4.48h1.86v-5.09c.43.88 1.4 2.07 3.25 2.07 2.72 0 4.34-1.96 4.34-5.51 0-3.56-1.72-5.23-4.19-5.23-1.9 0-2.93 1.15-3.4 2l-.02-1.8h-1.84v13.56Zm4.76-4.46c-1.92 0-2.92-1.78-2.92-4.01 0-2.28 1-3.85 2.92-3.85 1.89 0 2.9 1.5 2.9 3.85 0 2.75-1.2 4.01-2.9 4.01Zm7.154 1.24h1.84v-6.43c0-1.72 1.34-2.42 2.99-2.31.21 0 .58.03.78.12v-1.79c-.17-.09-.49-.13-.79-.13-1.31 0-2.54.7-3.06 2.19v-1.99h-1.76V211Zm11.796.2c3.08 0 4.71-2.17 4.71-5.33 0-3.48-1.85-5.41-4.7-5.41-3.06 0-4.75 2.17-4.75 5.41 0 3.45 1.87 5.33 4.74 5.33Zm.01-1.46c-2.07 0-2.91-1.73-2.91-3.91 0-2.46 1.03-3.92 2.91-3.92 2.03 0 2.87 1.71 2.87 3.92 0 2.43-1.02 3.91-2.87 3.91Zm11.319 1.46c2.19 0 3.87-1.31 4.14-3.39h-1.61c-.18 1.04-1.08 1.98-2.5 1.98-1.98 0-3.02-1.55-3.02-3.94 0-2.64 1.23-3.9 3-3.9 1.42 0 2.32.89 2.5 1.98h1.64c-.28-2.11-1.93-3.47-4.15-3.47-3.05 0-4.76 2.19-4.76 5.41 0 3.47 1.96 5.33 4.76 5.33Zm11.011 0c2.01 0 3.95-1.11 4.33-3.22h-1.74c-.26 1.17-1.3 1.79-2.62 1.79-2.01 0-2.98-1.55-2.98-3.51h7.41v-.68c0-3.14-1.62-5.12-4.53-5.12-3.01 0-4.75 2.21-4.75 5.47 0 3.3 1.99 5.27 4.88 5.27Zm-3-6.19c-.01-1.54.91-3.15 2.86-3.15 1.87 0 2.76 1.37 2.76 3.15h-5.62Zm14.328 6.19c2.01 0 3.95-1.11 4.33-3.22h-1.74c-.26 1.17-1.3 1.79-2.62 1.79-2.01 0-2.98-1.55-2.98-3.51h7.41v-.68c0-3.14-1.62-5.12-4.53-5.12-3.01 0-4.75 2.21-4.75 5.47 0 3.3 1.99 5.27 4.88 5.27Zm-3-6.19c-.01-1.54.91-3.15 2.86-3.15 1.87 0 2.76 1.37 2.76 3.15h-5.62Zm13.728 6.19c2.42 0 3.23-1.51 3.49-2.32l.2 2.12h1.42v-14.86h-1.87v6.16c-.33-.67-1.41-1.84-3.39-1.84-2.8 0-4.22 2.11-4.22 5.33 0 3.54 1.68 5.41 4.37 5.41Zm.33-1.42c-1.86 0-2.84-1.49-2.84-4.08 0-2.65 1.17-3.8 2.87-3.8 2.06 0 2.86 1.38 2.88 3.8 0 2.89-.82 4.08-2.91 4.08Zm7.404 1.22h2.2v-2.36h-2.2V211Z"/>
  <rect width="46" height="46" x="34" y="23" fill="url(#a)" rx="17"/>
  <rect width="24.79" height="24.79" x="510.5" y="33.5" stroke="#000" rx="11.5"/>
  <rect width="24.79" height="24.79" x="539.605" y="33.5" stroke="#000" rx="11.5"/>
  <rect width="24.79" height="24.79" x="568.71" y="33.5" stroke="#000" rx="11.5"/>
  <path fill="#000" d="M515.611 55.474h1.26l5.995-8.9 6.061 8.9h1.26l-6.698-9.842 6.327-9.337h-1.274l-5.676 8.422-5.717-8.422h-1.26l6.353 9.337-6.631 9.842Zm35.37-3.874h1.088c0-4.827 5.464-6.206 5.464-10.875 0-2.865-2.122-4.695-5.464-4.695-2.467 0-4.749 1.3-5.863 3.316l1.088.504c.583-1.46 2.759-2.733 4.775-2.733 2.599 0 4.27 1.38 4.27 3.608 0 4.297-5.358 5.703-5.358 10.876Zm-.239 3.874h1.592V53.43h-1.592v2.043Zm29.942-3.82h.849l.265-15.359h-1.352l.238 15.359Zm-.371 3.82h1.592V53.43h-1.592v2.043Z"/>
  <rect width="167" height="55" x="416" y="293" stroke="#000" stroke-width="2" rx="27"/>
  <path fill="#000" d="M446.336 329.24c3.9 0 6.456-2.1 6.456-4.98 0-2.1-1.104-3.876-4.188-4.596l-3.48-.9c-1.776-.444-2.7-1.2-2.7-2.628 0-1.56 1.284-2.856 3.768-2.856 2.052 0 3.84.816 4.068 3.18h2.28c-.012-2.628-2.196-5.028-6.276-5.028-3.528 0-6.192 1.944-6.192 4.884 0 2.664 1.68 3.924 4.128 4.512l3.576.924c1.872.504 2.748 1.296 2.748 2.676 0 1.884-1.884 2.964-4.092 2.964-2.292 0-4.116-1.032-4.548-3h-2.328c.444 3.192 3.408 4.848 6.78 4.848Zm14.986 0c2.412 0 4.74-1.332 5.196-3.864h-2.088c-.312 1.404-1.56 2.148-3.144 2.148-2.412 0-3.576-1.86-3.576-4.212h8.892v-.816c0-3.768-1.944-6.144-5.436-6.144-3.612 0-5.7 2.652-5.7 6.564 0 3.96 2.388 6.324 5.856 6.324Zm-3.6-7.428c-.012-1.848 1.092-3.78 3.432-3.78 2.244 0 3.312 1.644 3.312 3.78h-6.744Zm17.194 7.428c2.412 0 4.74-1.332 5.196-3.864h-2.088c-.312 1.404-1.56 2.148-3.144 2.148-2.412 0-3.576-1.86-3.576-4.212h8.892v-.816c0-3.768-1.944-6.144-5.436-6.144-3.612 0-5.7 2.652-5.7 6.564 0 3.96 2.388 6.324 5.856 6.324Zm-3.6-7.428c-.012-1.848 1.092-3.78 3.432-3.78 2.244 0 3.312 1.644 3.312 3.78h-6.744ZM493.258 329h2.232v-15.312h5.292v-2.04h-13.128v2.04h5.604V329Zm13.51.24c2.412 0 4.74-1.332 5.196-3.864h-2.088c-.312 1.404-1.56 2.148-3.144 2.148-2.412 0-3.576-1.86-3.576-4.212h8.892v-.816c0-3.768-1.944-6.144-5.436-6.144-3.612 0-5.7 2.652-5.7 6.564 0 3.96 2.388 6.324 5.856 6.324Zm-3.6-7.428c-.012-1.848 1.092-3.78 3.432-3.78 2.244 0 3.312 1.644 3.312 3.78h-6.744ZM515.117 329h2.208v-7.716c0-2.064 1.608-2.904 3.588-2.772.252 0 .696.036.936.144v-2.148c-.204-.108-.588-.156-.948-.156-1.572 0-3.048.84-3.672 2.628v-2.388h-2.112V329Zm9.375 0h2.208v-8.292c0-1.74 1.524-2.472 2.796-2.472 1.152 0 2.52.744 2.52 2.22V329h2.208v-8.292c0-1.884 1.62-2.472 2.784-2.472 1.308 0 2.544.624 2.544 2.868V329h2.232v-8.112c0-3.672-2.292-4.536-4.044-4.536-1.644 0-3.012.816-3.78 2.028-.648-1.32-2.22-2.028-3.576-2.028-1.932 0-3.072.948-3.756 2.04v-1.8h-2.136V329Zm25.113.24c3.024 0 4.776-1.404 4.776-3.684 0-1.224-.624-2.736-2.904-3.336l-2.496-.624c-1.368-.336-2.088-.78-2.088-1.668 0-1.32 1.092-1.944 2.676-1.944 1.536 0 2.448.744 2.616 1.932h1.968c-.084-2.328-1.872-3.564-4.56-3.564-3.144 0-4.74 1.536-4.728 3.708.012 1.848 1.296 2.796 3.3 3.276l2.568.636c1.128.264 1.656.792 1.656 1.704 0 1.296-1.116 1.908-2.796 1.908-1.572 0-2.82-.744-3.132-2.196h-2.016c.36 2.676 2.568 3.852 5.16 3.852Zm7.16-.24h2.64v-2.832h-2.64V329Z"/>
  <rect width="167" height="55" x="237" y="293" stroke="#000" stroke-width="2" rx="27"/>
  <path fill="#000" d="M267.336 329.24c3.9 0 6.456-2.1 6.456-4.98 0-2.1-1.104-3.876-4.188-4.596l-3.48-.9c-1.776-.444-2.7-1.2-2.7-2.628 0-1.56 1.284-2.856 3.768-2.856 2.052 0 3.84.816 4.068 3.18h2.28c-.012-2.628-2.196-5.028-6.276-5.028-3.528 0-6.192 1.944-6.192 4.884 0 2.664 1.68 3.924 4.128 4.512l3.576.924c1.872.504 2.748 1.296 2.748 2.676 0 1.884-1.884 2.964-4.092 2.964-2.292 0-4.116-1.032-4.548-3h-2.328c.444 3.192 3.408 4.848 6.78 4.848Zm14.986 0c2.412 0 4.74-1.332 5.196-3.864h-2.088c-.312 1.404-1.56 2.148-3.144 2.148-2.412 0-3.576-1.86-3.576-4.212h8.892v-.816c0-3.768-1.944-6.144-5.436-6.144-3.612 0-5.7 2.652-5.7 6.564 0 3.96 2.388 6.324 5.856 6.324Zm-3.6-7.428c-.012-1.848 1.092-3.78 3.432-3.78 2.244 0 3.312 1.644 3.312 3.78h-6.744Zm17.194 7.428c2.412 0 4.74-1.332 5.196-3.864h-2.088c-.312 1.404-1.56 2.148-3.144 2.148-2.412 0-3.576-1.86-3.576-4.212h8.892v-.816c0-3.768-1.944-6.144-5.436-6.144-3.612 0-5.7 2.652-5.7 6.564 0 3.96 2.388 6.324 5.856 6.324Zm-3.6-7.428c-.012-1.848 1.092-3.78 3.432-3.78 2.244 0 3.312 1.644 3.312 3.78h-6.744ZM314.258 329h2.232v-15.312h5.292v-2.04h-13.128v2.04h5.604V329Zm13.51.24c2.412 0 4.74-1.332 5.196-3.864h-2.088c-.312 1.404-1.56 2.148-3.144 2.148-2.412 0-3.576-1.86-3.576-4.212h8.892v-.816c0-3.768-1.944-6.144-5.436-6.144-3.612 0-5.7 2.652-5.7 6.564 0 3.96 2.388 6.324 5.856 6.324Zm-3.6-7.428c-.012-1.848 1.092-3.78 3.432-3.78 2.244 0 3.312 1.644 3.312 3.78h-6.744ZM336.117 329h2.208v-7.716c0-2.064 1.608-2.904 3.588-2.772.252 0 .696.036.936.144v-2.148c-.204-.108-.588-.156-.948-.156-1.572 0-3.048.84-3.672 2.628v-2.388h-2.112V329Zm9.375 0h2.208v-8.292c0-1.74 1.524-2.472 2.796-2.472 1.152 0 2.52.744 2.52 2.22V329h2.208v-8.292c0-1.884 1.62-2.472 2.784-2.472 1.308 0 2.544.624 2.544 2.868V329h2.232v-8.112c0-3.672-2.292-4.536-4.044-4.536-1.644 0-3.012.816-3.78 2.028-.648-1.32-2.22-2.028-3.576-2.028-1.932 0-3.072.948-3.756 2.04v-1.8h-2.136V329Zm25.113.24c3.024 0 4.776-1.404 4.776-3.684 0-1.224-.624-2.736-2.904-3.336l-2.496-.624c-1.368-.336-2.088-.78-2.088-1.668 0-1.32 1.092-1.944 2.676-1.944 1.536 0 2.448.744 2.616 1.932h1.968c-.084-2.328-1.872-3.564-4.56-3.564-3.144 0-4.74 1.536-4.728 3.708.012 1.848 1.296 2.796 3.3 3.276l2.568.636c1.128.264 1.656.792 1.656 1.704 0 1.296-1.116 1.908-2.796 1.908-1.572 0-2.82-.744-3.132-2.196h-2.016c.36 2.676 2.568 3.852 5.16 3.852Zm7.16-.24h2.64v-2.832h-2.64V329Z"/>
  <rect width="167" height="55" x="58" y="293" stroke="#000" stroke-width="2" rx="27"/>
  <path fill="#000" d="M95.136 329h2.22v-17.352h-2.22V329Zm11.337 0h2.256l1.716-4.752h7.116l1.704 4.752h2.268l-6.276-17.352h-2.508L106.473 329Zm4.56-6.792 2.964-8.388 2.952 8.388h-5.916Zm17.983 7.032c2.628 0 4.644-1.572 4.968-4.068h-1.932c-.216 1.248-1.296 2.376-3 2.376-2.376 0-3.624-1.86-3.624-4.728 0-3.168 1.476-4.68 3.6-4.68 1.704 0 2.784 1.068 3 2.376h1.968c-.336-2.532-2.316-4.164-4.98-4.164-3.661 0-5.712 2.628-5.712 6.492 0 4.164 2.352 6.396 5.712 6.396Zm12.96 0c2.628 0 4.644-1.572 4.968-4.068h-1.932c-.216 1.248-1.296 2.376-3 2.376-2.376 0-3.624-1.86-3.624-4.728 0-3.168 1.476-4.68 3.6-4.68 1.704 0 2.784 1.068 3 2.376h1.968c-.336-2.532-2.316-4.164-4.98-4.164-3.66 0-5.712 2.628-5.712 6.492 0 4.164 2.352 6.396 5.712 6.396Zm13.213 0c2.412 0 4.74-1.332 5.196-3.864h-2.088c-.312 1.404-1.56 2.148-3.144 2.148-2.412 0-3.576-1.86-3.576-4.212h8.892v-.816c0-3.768-1.944-6.144-5.436-6.144-3.612 0-5.7 2.652-5.7 6.564 0 3.96 2.388 6.324 5.856 6.324Zm-3.6-7.428c-.012-1.848 1.092-3.78 3.432-3.78 2.244 0 3.312 1.644 3.312 3.78h-6.744Zm11.95 11.052h2.232v-6.108c.516 1.056 1.68 2.484 3.9 2.484 3.264 0 5.208-2.352 5.208-6.612 0-4.272-2.064-6.276-5.028-6.276-2.28 0-3.516 1.38-4.08 2.4l-.024-2.16h-2.208v16.272Zm5.712-5.352c-2.304 0-3.504-2.136-3.504-4.812 0-2.736 1.2-4.62 3.504-4.62 2.268 0 3.48 1.8 3.48 4.62 0 3.3-1.44 4.812-3.48 4.812Zm12.571 1.548c.9 0 1.524-.084 1.836-.204v-1.488h-1.356c-1.164 0-1.512-.12-1.512-1.44v-7.716h2.796v-1.632h-2.796v-3.6h-1.632l-.54 3.612h-2.076v1.62h2.016V326c0 1.992.684 3.06 3.264 3.06Zm4.264-.06h2.64v-2.832h-2.64V329Z"/>
  <defs>
    <pattern id="a" width="1" height="1" patternContentUnits="objectBoundingBox">
      <use xlink:href="#b" transform="scale(.001)"/>
    </pattern>
  </defs>
</svg>
