<svg xmlns="http://www.w3.org/2000/svg" xmlns:xlink="http://www.w3.org/1999/xlink" width="640" height="121" fill="none" viewBox="0 0 640 121">
  <g clip-path="url(#a)">
    <rect width="640" height="121" x="640" y="121" fill="#fff" rx="36" transform="rotate(-180 640 121)"/>
    <path fill="#000" d="M49.91 56h1.9v-5.35h3.24c3.04 0 5.11-1.65 5.11-4.54 0-2.98-2.26-4.57-5.36-4.57h-4.89V56Zm1.89-6.91v-6.01h3.12c2.03 0 3.44 1 3.44 2.92 0 1.9-1.37 3.09-3.35 3.09H51.8Zm13.074 7.04c.26 0 .62-.06.93-.16v-1.2l-.56-.01c-.73-.05-1.16-.55-1.16-1.6V41.14h-1.82v12.2c0 1.45.38 2.79 2.61 2.79Zm7.307.07c2.01 0 3.95-1.11 4.33-3.22h-1.74c-.26 1.17-1.3 1.79-2.62 1.79-2.01 0-2.98-1.55-2.98-3.51h7.41v-.68c0-3.14-1.62-5.12-4.53-5.12-3.01 0-4.75 2.21-4.75 5.47 0 3.3 1.99 5.27 4.88 5.27Zm-3-6.19c-.01-1.54.91-3.15 2.86-3.15 1.87 0 2.76 1.37 2.76 3.15h-5.62Zm12.722 6.19c1.48 0 2.75-.53 3.55-2.14l.14 1.94h1.58v-7.22c0-2.16-1.34-3.32-4.03-3.32-2.51 0-4.05 1.11-4.16 3.12h1.63c.25-1.23 1.25-1.75 2.44-1.76 1.59 0 2.33.8 2.33 2.06v.81l-1.84.05c-3.54.08-5.05 1.17-5.05 3.46 0 1.89 1.4 3 3.41 3Zm.55-1.33c-1.27 0-2.17-.68-2.17-1.85 0-1.53 1.19-2.12 3.57-2.16l1.53-.03v1.77c0 1.15-1.54 2.27-2.93 2.27ZM93.68 56.2c2.52 0 3.98-1.17 3.98-3.07 0-1.02-.52-2.28-2.42-2.78l-2.08-.52c-1.14-.28-1.74-.65-1.74-1.39 0-1.1.91-1.62 2.23-1.62 1.28 0 2.04.62 2.18 1.61h1.64c-.07-1.94-1.56-2.97-3.8-2.97-2.62 0-3.95 1.28-3.94 3.09.01 1.54 1.08 2.33 2.75 2.73l2.14.53c.94.22 1.38.66 1.38 1.42 0 1.08-.93 1.59-2.33 1.59-1.31 0-2.35-.62-2.61-1.83h-1.68c.3 2.23 2.14 3.21 4.3 3.21Zm10.767 0c2.01 0 3.95-1.11 4.33-3.22h-1.74c-.26 1.17-1.3 1.79-2.62 1.79-2.01 0-2.98-1.55-2.98-3.51h7.41v-.68c0-3.14-1.62-5.12-4.53-5.12-3.01 0-4.75 2.21-4.75 5.47 0 3.3 1.99 5.27 4.88 5.27Zm-3-6.19c-.01-1.54.91-3.15 2.86-3.15 1.87 0 2.76 1.37 2.76 3.15h-5.62Zm18.591 6.19c2.19 0 3.87-1.31 4.14-3.39h-1.61c-.18 1.04-1.08 1.98-2.5 1.98-1.98 0-3.02-1.55-3.02-3.94 0-2.64 1.23-3.9 3-3.9 1.42 0 2.32.89 2.5 1.98h1.64c-.28-2.11-1.93-3.47-4.15-3.47-3.05 0-4.76 2.19-4.76 5.41 0 3.47 1.96 5.33 4.76 5.33Zm6.582-.2h1.84v-6.9c0-1.39 1.26-2.06 2.66-2.06 1.36 0 2.29.71 2.29 1.94V56h1.85v-7.39c0-1.89-1.59-3.08-3.61-3.08-1.66 0-2.71.8-3.23 1.65v-6.04h-1.8V56Zm15.663.2c3.08 0 4.71-2.17 4.71-5.33 0-3.48-1.85-5.41-4.7-5.41-3.06 0-4.75 2.17-4.75 5.41 0 3.45 1.87 5.33 4.74 5.33Zm.01-1.46c-2.07 0-2.91-1.73-2.91-3.91 0-2.46 1.03-3.92 2.91-3.92 2.03 0 2.87 1.71 2.87 3.92 0 2.43-1.02 3.91-2.87 3.91Zm11.299 1.46c3.08 0 4.71-2.17 4.71-5.33 0-3.48-1.85-5.41-4.7-5.41-3.06 0-4.75 2.17-4.75 5.41 0 3.45 1.87 5.33 4.74 5.33Zm.01-1.46c-2.07 0-2.91-1.73-2.91-3.91 0-2.46 1.03-3.92 2.91-3.92 2.03 0 2.87 1.71 2.87 3.92 0 2.43-1.02 3.91-2.87 3.91Zm10.8 1.46c2.52 0 3.98-1.17 3.98-3.07 0-1.02-.52-2.28-2.42-2.78l-2.08-.52c-1.14-.28-1.74-.65-1.74-1.39 0-1.1.91-1.62 2.23-1.62 1.28 0 2.04.62 2.18 1.61h1.64c-.07-1.94-1.56-2.97-3.8-2.97-2.62 0-3.95 1.28-3.94 3.09.01 1.54 1.08 2.33 2.75 2.73l2.14.53c.94.22 1.38.66 1.38 1.42 0 1.08-.93 1.59-2.33 1.59-1.31 0-2.35-.62-2.61-1.83h-1.68c.3 2.23 2.14 3.21 4.3 3.21Zm10.768 0c2.01 0 3.95-1.11 4.33-3.22h-1.74c-.26 1.17-1.3 1.79-2.62 1.79-2.01 0-2.98-1.55-2.98-3.51h7.41v-.68c0-3.14-1.62-5.12-4.53-5.12-3.01 0-4.75 2.21-4.75 5.47 0 3.3 1.99 5.27 4.88 5.27Zm-3-6.19c-.01-1.54.91-3.15 2.86-3.15 1.87 0 2.76 1.37 2.76 3.15h-5.62Zm17.584 6.19c1.48 0 2.75-.53 3.55-2.14l.14 1.94h1.58v-7.22c0-2.16-1.34-3.32-4.03-3.32-2.51 0-4.05 1.11-4.16 3.12h1.63c.25-1.23 1.25-1.75 2.44-1.76 1.59 0 2.33.8 2.33 2.06v.81l-1.84.05c-3.54.08-5.05 1.17-5.05 3.46 0 1.89 1.4 3 3.41 3Zm.55-1.33c-1.27 0-2.17-.68-2.17-1.85 0-1.53 1.19-2.12 3.57-2.16l1.53-.03v1.77c0 1.15-1.54 2.27-2.93 2.27Zm15.984 1.33c2.42 0 3.23-1.51 3.49-2.32l.2 2.12h1.42V41.14h-1.87v6.16c-.33-.67-1.41-1.84-3.39-1.84-2.8 0-4.22 2.11-4.22 5.33 0 3.54 1.68 5.41 4.37 5.41Zm.33-1.42c-1.86 0-2.84-1.49-2.84-4.08 0-2.65 1.17-3.8 2.87-3.8 2.06 0 2.86 1.38 2.88 3.8 0 2.89-.82 4.08-2.91 4.08Zm7.971-11.31h1.89v-1.92h-1.89v1.92Zm.05 12.53h1.79V45.66h-1.79V56Zm6.271 0h1.85v-8.99h2.51v-1.35h-2.54v-1.44c0-.92.25-1.37 1.1-1.37h1.54l-.01-1.31h-1.95c-1.67 0-2.5.88-2.5 2.52v1.6h-2.19v1.35h2.19V56Zm7.285 0h1.85v-8.99h2.51v-1.35h-2.54v-1.44c0-.92.25-1.37 1.1-1.37h1.54l-.01-1.31h-1.95c-1.67 0-2.5.88-2.5 2.52v1.6h-2.19v1.35h2.19V56Zm6.54-12.53h1.89v-1.92h-1.89v1.92Zm.05 12.53h1.79V45.66h-1.79V56Zm9.061.2c2.19 0 3.87-1.31 4.14-3.39h-1.61c-.18 1.04-1.08 1.98-2.5 1.98-1.98 0-3.02-1.55-3.02-3.94 0-2.64 1.23-3.9 3-3.9 1.42 0 2.32.89 2.5 1.98h1.64c-.28-2.11-1.93-3.47-4.15-3.47-3.05 0-4.76 2.19-4.76 5.41 0 3.47 1.96 5.33 4.76 5.33Zm10.48 0c1.46.01 2.72-.63 3.1-2.18l.19 1.98h1.47V45.66h-1.84v6.73c0 1.57-1.01 2.37-2.53 2.37-1.69 0-2.51-.92-2.51-2.27v-6.83h-1.85v7.02c0 2.33 1.82 3.5 3.97 3.52Zm10.548-.07c.26 0 .62-.06.93-.16v-1.2l-.56-.01c-.73-.05-1.16-.55-1.16-1.6V41.14h-1.82v12.2c0 1.45.38 2.79 2.61 2.79Zm6.473-.08c.75 0 1.27-.07 1.53-.17v-1.24h-1.13c-.97 0-1.26-.1-1.26-1.2v-6.43h2.33v-1.36h-2.33v-3h-1.36l-.45 3.01h-1.73v1.35h1.68v6.49c0 1.66.57 2.55 2.72 2.55Zm5.014 3.25c1.43 0 2.51-.55 3.32-2.52l4.35-11.12h-1.81l-3.03 7.98-3.05-7.98h-1.87l4.04 10.09-.36.98c-.21.51-.58 1.19-2.12 1.13l-1.06-.02v1.2s.38.26 1.59.26Zm8.247-3.3h2.2v-2.36h-2.2V56Zm13.249 0h1.86V43.24h4.41v-1.7h-10.94v1.7h4.67V56Zm8.275 0h1.84v-6.9c0-1.39 1.26-2.06 2.66-2.06 1.36 0 2.29.71 2.29 1.94V56h1.85v-7.39c0-1.89-1.59-3.08-3.61-3.08-1.66 0-2.71.8-3.23 1.65v-6.04h-1.8V56Zm11.523-12.53h1.89v-1.92h-1.89v1.92Zm.05 12.53h1.79V45.66h-1.79V56Zm8.611.2c2.52 0 3.98-1.17 3.98-3.07 0-1.02-.52-2.28-2.42-2.78l-2.08-.52c-1.14-.28-1.74-.65-1.74-1.39 0-1.1.91-1.62 2.23-1.62 1.28 0 2.04.62 2.18 1.61h1.64c-.07-1.94-1.56-2.97-3.8-2.97-2.62 0-3.95 1.28-3.94 3.09.01 1.54 1.08 2.33 2.75 2.73l2.14.53c.94.22 1.38.66 1.38 1.42 0 1.08-.93 1.59-2.33 1.59-1.31 0-2.35-.62-2.61-1.83h-1.68c.3 2.23 2.14 3.21 4.3 3.21Zm13.236-.2h1.8l2.25-7.63 2.35 7.63h1.82l3.14-10.34h-1.74l-2.26 7.93h-.17l-2.42-7.93h-1.4l-2.33 7.95h-.16l-2.36-7.95h-1.72l3.2 10.34Zm13.415-12.53h1.89v-1.92h-1.89v1.92Zm.05 12.53h1.79V45.66h-1.79V56Zm7.639.13c.26 0 .62-.06.93-.16v-1.2l-.56-.01c-.73-.05-1.16-.55-1.16-1.6V41.14h-1.82v12.2c0 1.45.38 2.79 2.61 2.79Zm5.761 0c.26 0 .62-.06.93-.16v-1.2l-.56-.01c-.73-.05-1.16-.55-1.16-1.6V41.14h-1.82v12.2c0 1.45.38 2.79 2.61 2.79Zm11.208.07c1.48 0 2.75-.53 3.55-2.14l.14 1.94h1.58v-7.22c0-2.16-1.34-3.32-4.03-3.32-2.51 0-4.05 1.11-4.16 3.12h1.63c.25-1.23 1.25-1.75 2.44-1.76 1.59 0 2.33.8 2.33 2.06v.81l-1.84.05c-3.54.08-5.05 1.17-5.05 3.46 0 1.89 1.4 3 3.41 3Zm.55-1.33c-1.27 0-2.17-.68-2.17-1.85 0-1.53 1.19-2.12 3.57-2.16l1.53-.03v1.77c0 1.15-1.54 2.27-2.93 2.27Zm8.653 1.13h1.85v-8.99h2.51v-1.35h-2.54v-1.44c0-.92.25-1.37 1.1-1.37h1.54l-.01-1.31h-1.95c-1.67 0-2.5.88-2.5 2.52v1.6h-2.19v1.35h2.19V56Zm7.422 0h1.85v-8.99h2.51v-1.35h-2.54v-1.44c0-.92.25-1.37 1.1-1.37h1.54l-.01-1.31h-1.95c-1.67 0-2.5.88-2.5 2.52v1.6h-2.19v1.35h2.19V56Zm10.763.2c2.01 0 3.95-1.11 4.33-3.22h-1.74c-.26 1.17-1.3 1.79-2.62 1.79-2.01 0-2.98-1.55-2.98-3.51h7.41v-.68c0-3.14-1.62-5.12-4.53-5.12-3.01 0-4.75 2.21-4.75 5.47 0 3.3 1.99 5.27 4.88 5.27Zm-3-6.19c-.01-1.54.91-3.15 2.86-3.15 1.87 0 2.76 1.37 2.76 3.15h-5.62Zm14.118 6.19c2.19 0 3.87-1.31 4.14-3.39h-1.61c-.18 1.04-1.08 1.98-2.5 1.98-1.98 0-3.02-1.55-3.02-3.94 0-2.64 1.23-3.9 3-3.9 1.42 0 2.32.89 2.5 1.98h1.64c-.28-2.11-1.93-3.47-4.15-3.47-3.05 0-4.76 2.19-4.76 5.41 0 3.47 1.96 5.33 4.76 5.33Zm10.041-.15c.75 0 1.27-.07 1.53-.17v-1.24h-1.13c-.97 0-1.26-.1-1.26-1.2v-6.43h2.33v-1.36h-2.33v-3h-1.36l-.45 3.01h-1.73v1.35h1.68v6.49c0 1.66.57 2.55 2.72 2.55Zm11.746.15c1.48 0 2.75-.53 3.55-2.14l.14 1.94h1.58v-7.22c0-2.16-1.34-3.32-4.03-3.32-2.51 0-4.05 1.11-4.16 3.12h1.63c.25-1.23 1.25-1.75 2.44-1.76 1.59 0 2.33.8 2.33 2.06v.81l-1.84.05c-3.54.08-5.05 1.17-5.05 3.46 0 1.89 1.4 3 3.41 3Zm.55-1.33c-1.27 0-2.17-.68-2.17-1.85 0-1.53 1.19-2.12 3.57-2.16l1.53-.03v1.77c0 1.15-1.54 2.27-2.93 2.27ZM49.53 80h1.84v-6.91c0-1.45 1.27-2.06 2.33-2.06.96 0 2.1.62 2.1 1.85V80h1.84v-6.91c0-1.57 1.35-2.06 2.32-2.06 1.09 0 2.12.52 2.12 2.39V80h1.86v-6.76c0-3.06-1.91-3.78-3.37-3.78-1.37 0-2.51.68-3.15 1.69-.54-1.1-1.85-1.69-2.98-1.69-1.61 0-2.56.79-3.13 1.7v-1.5h-1.78V80Zm21.105.2c1.46.01 2.72-.63 3.1-2.18l.19 1.98h1.47V69.66h-1.84v6.73c0 1.57-1.01 2.37-2.53 2.37-1.69 0-2.51-.92-2.51-2.27v-6.83h-1.85v7.02c0 2.33 1.82 3.5 3.97 3.52Zm10.548-.07c.26 0 .62-.06.93-.16v-1.2l-.56-.01c-.73-.05-1.16-.55-1.16-1.6V65.14h-1.82v12.2c0 1.45.38 2.79 2.61 2.79Zm6.473-.08c.75 0 1.27-.07 1.53-.17v-1.24h-1.13c-.97 0-1.26-.1-1.26-1.2v-6.43h2.33v-1.36h-2.33v-3h-1.36l-.45 3.01h-1.73v1.35h1.68v6.49c0 1.66.57 2.55 2.72 2.55Zm3.983-12.58h1.89v-1.92h-1.89v1.92ZM91.69 80h1.79V69.66h-1.79V80Zm8.682.05c.75 0 1.27-.07 1.53-.17v-1.24h-1.13c-.97 0-1.26-.1-1.26-1.2v-6.43h2.33v-1.36h-2.33v-3h-1.36l-.45 3.01h-1.73v1.35h1.68v6.49c0 1.66.57 2.55 2.72 2.55Zm7.686.15c1.46.01 2.72-.63 3.1-2.18l.19 1.98h1.47V69.66h-1.84v6.73c0 1.57-1.01 2.37-2.53 2.37-1.69 0-2.51-.92-2.51-2.27v-6.83h-1.85v7.02c0 2.33 1.82 3.5 3.97 3.52Zm11.571 0c2.42 0 3.23-1.51 3.49-2.32l.2 2.12h1.42V65.14h-1.87v6.16c-.33-.67-1.41-1.84-3.39-1.84-2.8 0-4.22 2.11-4.22 5.33 0 3.54 1.68 5.41 4.37 5.41Zm.33-1.42c-1.86 0-2.84-1.49-2.84-4.08 0-2.65 1.17-3.8 2.87-3.8 2.06 0 2.86 1.38 2.88 3.8 0 2.89-.82 4.08-2.91 4.08Zm12.204 1.42c2.01 0 3.95-1.11 4.33-3.22h-1.74c-.26 1.17-1.3 1.79-2.62 1.79-2.01 0-2.98-1.55-2.98-3.51h7.41v-.68c0-3.14-1.62-5.12-4.53-5.12-3.01 0-4.75 2.21-4.75 5.47 0 3.3 1.99 5.27 4.88 5.27Zm-3-6.19c-.01-1.54.91-3.15 2.86-3.15 1.87 0 2.76 1.37 2.76 3.15h-5.62Zm18.57 6.19c3.08 0 4.71-2.17 4.71-5.33 0-3.48-1.85-5.41-4.7-5.41-3.06 0-4.75 2.17-4.75 5.41 0 3.45 1.87 5.33 4.74 5.33Zm.01-1.46c-2.07 0-2.91-1.73-2.91-3.91 0-2.46 1.03-3.92 2.91-3.92 2.03 0 2.87 1.71 2.87 3.92 0 2.43-1.02 3.91-2.87 3.91ZM155.89 80h1.85v-8.99h2.51v-1.35h-2.54v-1.44c0-.92.25-1.37 1.1-1.37h1.54l-.01-1.31h-1.95c-1.67 0-2.5.88-2.5 2.52v1.6h-2.19v1.35h2.19V80Zm15.764 3.42c3.43 0 5.09-1.31 5.09-3.19 0-1.65-1.22-2.67-3.38-2.8-.95-.06-1.73-.1-2.25-.13-1.44-.1-1.97-.21-1.97-.59 0-.33.43-.65 1.85-.69.17.01.46.02.62.02 2.89 0 4.31-1.44 4.31-3.27 0-.44-.13-.98-.34-1.41l1.81-.34.01-1.71c-.56.23-2.2.91-2.64 1.09-.79-.57-1.63-.9-2.97-.9-2.81 0-4.5 1.26-4.5 3.27 0 1.19.71 2.26 1.93 2.87-1.22.27-1.83.86-1.83 1.51 0 .8.71 1.09 1.07 1.3-.26.19-1.96.76-1.96 2.25 0 1.75 1.91 2.72 5.15 2.72Zm.02-8.57c-1.61 0-2.53-.75-2.53-2.06 0-1.39 1.01-2.15 2.53-2.15 1.48 0 2.48.76 2.48 2.15 0 1.36-1 2.06-2.48 2.06Zm.31 7.38c-2.49 0-3.64-.64-3.64-1.74 0-.96 1.03-1.69 1.81-1.65l2.9.19c1.26.08 1.89.65 1.89 1.47 0 1.16-1.05 1.73-2.96 1.73Zm10.348-2.03c1.48 0 2.75-.53 3.55-2.14l.14 1.94h1.58v-7.22c0-2.16-1.34-3.32-4.03-3.32-2.51 0-4.05 1.11-4.16 3.12h1.63c.25-1.23 1.25-1.75 2.44-1.76 1.59 0 2.33.8 2.33 2.06v.81l-1.84.05c-3.54.08-5.05 1.17-5.05 3.46 0 1.89 1.4 3 3.41 3Zm.55-1.33c-1.27 0-2.17-.68-2.17-1.85 0-1.53 1.19-2.12 3.57-2.16l1.53-.03v1.77c0 1.15-1.54 2.27-2.93 2.27Zm7.605 1.13h1.84v-6.91c0-1.45 1.27-2.06 2.33-2.06.96 0 2.1.62 2.1 1.85V80h1.84v-6.91c0-1.57 1.35-2.06 2.32-2.06 1.09 0 2.12.52 2.12 2.39V80h1.86v-6.76c0-3.06-1.91-3.78-3.37-3.78-1.37 0-2.51.68-3.15 1.69-.54-1.1-1.85-1.69-2.98-1.69-1.61 0-2.56.79-3.13 1.7v-1.5h-1.78V80Zm21.675.2c2.01 0 3.95-1.11 4.33-3.22h-1.74c-.26 1.17-1.3 1.79-2.62 1.79-2.01 0-2.98-1.55-2.98-3.51h7.41v-.68c0-3.14-1.62-5.12-4.53-5.12-3.01 0-4.75 2.21-4.75 5.47 0 3.3 1.99 5.27 4.88 5.27Zm-3-6.19c-.01-1.54.91-3.15 2.86-3.15 1.87 0 2.76 1.37 2.76 3.15h-5.62ZM225.226 80h1.85v-8.99h2.51v-1.35h-2.54v-1.44c0-.92.25-1.37 1.1-1.37h1.54l-.01-1.31h-1.95c-1.67 0-2.5.88-2.5 2.52v1.6h-2.19v1.35h2.19V80Zm9.509.2c1.48 0 2.75-.53 3.55-2.14l.14 1.94h1.58v-7.22c0-2.16-1.34-3.32-4.03-3.32-2.51 0-4.05 1.11-4.16 3.12h1.63c.25-1.23 1.25-1.75 2.44-1.76 1.59 0 2.33.8 2.33 2.06v.81l-1.84.05c-3.54.08-5.05 1.17-5.05 3.46 0 1.89 1.4 3 3.41 3Zm.55-1.33c-1.27 0-2.17-.68-2.17-1.85 0-1.53 1.19-2.12 3.57-2.16l1.53-.03v1.77c0 1.15-1.54 2.27-2.93 2.27Zm11.764 1.33c2.19 0 3.87-1.31 4.14-3.39h-1.61c-.18 1.04-1.08 1.98-2.5 1.98-1.98 0-3.02-1.55-3.02-3.94 0-2.64 1.23-3.9 3-3.9 1.42 0 2.32.89 2.5 1.98h1.64c-.28-2.11-1.93-3.47-4.15-3.47-3.05 0-4.76 2.19-4.76 5.41 0 3.47 1.96 5.33 4.76 5.33Zm10.041-.15c.75 0 1.27-.07 1.53-.17v-1.24h-1.13c-.97 0-1.26-.1-1.26-1.2v-6.43h2.33v-1.36h-2.33v-3h-1.36l-.45 3.01h-1.73v1.35h1.68v6.49c0 1.66.57 2.55 2.72 2.55Zm7.85.15c3.08 0 4.71-2.17 4.71-5.33 0-3.48-1.85-5.41-4.7-5.41-3.06 0-4.75 2.17-4.75 5.41 0 3.45 1.87 5.33 4.74 5.33Zm.01-1.46c-2.07 0-2.91-1.73-2.91-3.91 0-2.46 1.03-3.92 2.91-3.92 2.03 0 2.87 1.71 2.87 3.92 0 2.43-1.02 3.91-2.87 3.91Zm7.158 1.26h1.84v-6.43c0-1.72 1.34-2.42 2.99-2.31.21 0 .58.03.78.12v-1.79c-.17-.09-.49-.13-.79-.13-1.31 0-2.54.7-3.06 2.19v-1.99h-1.76V80Zm11.454.2c2.52 0 3.98-1.17 3.98-3.07 0-1.02-.52-2.28-2.42-2.78l-2.08-.52c-1.14-.28-1.74-.65-1.74-1.39 0-1.1.91-1.62 2.23-1.62 1.28 0 2.04.62 2.18 1.61h1.64c-.07-1.94-1.56-2.97-3.8-2.97-2.62 0-3.95 1.28-3.94 3.09.01 1.54 1.08 2.33 2.75 2.73l2.14.53c.94.22 1.38.66 1.38 1.42 0 1.08-.93 1.59-2.33 1.59-1.31 0-2.35-.62-2.61-1.83h-1.68c.3 2.23 2.14 3.21 4.3 3.21Zm5.968-.2h2.2v-2.36h-2.2V80Z"/>
    <rect width="46" height="46" x="531" y="38" fill="url(#b)" rx="17"/>
  </g>
  <rect width="638" height="119" x="639" y="120" stroke="#000" stroke-width="2" rx="35" transform="rotate(-180 639 120)"/>
  <defs>
    <clipPath id="a">
      <rect width="640" height="121" x="640" y="121" fill="#fff" rx="36" transform="rotate(-180 640 121)"/>
    </clipPath>
    <pattern id="b" width="1" height="1" patternContentUnits="objectBoundingBox">
      <use xlink:href="#c" transform="scale(.001)"/>
    </pattern>
  </defs>
</svg>
