<svg xmlns="http://www.w3.org/2000/svg" width="113" height="193" fill="none" viewBox="0 0 113 193">
  <rect width="110" height="110" x="1.5" y="41.5" stroke="#000" stroke-width="3" rx="55"/>
  <path fill="#000" d="M24.752 101.12c2.316 0 3.744-1.62 3.744-4.44 0-2.85-1.44-4.476-3.744-4.476-2.304 0-3.768 1.632-3.768 4.476 0 2.832 1.446 4.44 3.768 4.44Zm0-.966c-1.59 0-2.544-1.068-2.544-3.462 0-2.412.954-3.522 2.544-3.522s2.526 1.098 2.526 3.522c0 2.388-.918 3.462-2.526 3.462Zm5.542.846h2.88c2.214 0 3.336-.762 3.336-2.334 0-.978-.456-1.794-1.824-2.088 1.188-.42 1.608-1.074 1.608-1.992 0-1.464-1.104-2.262-3.21-2.262h-2.79V101Zm1.11-4.86v-2.898h1.734c1.23 0 2.082.474 2.082 1.482 0 1.098-1.026 1.416-1.926 1.416h-1.89Zm0 3.936v-2.994h1.89c1.164 0 2.088.45 2.088 1.536 0 .99-.774 1.458-2.22 1.458h-1.758Zm7.697 1.044c1.464 0 1.842-.78 1.842-2.166v-6.63h-1.11v6.312c0 1.026-.246 1.416-1.026 1.416-.486 0-.786-.174-1.032-.264l-.078 1.062c.174.072.786.27 1.404.27Zm3.908-.12h5.586v-.99l-4.476-.012v-2.892h3.924v-.972h-3.918v-2.832h4.35l.006-.978H43.01V101Zm10.61.12c2.07 0 3.096-1.368 3.276-2.85h-1.182c-.198 1.014-.906 1.884-2.124 1.884-1.584 0-2.43-1.092-2.43-3.51 0-2.4.846-3.474 2.43-3.474 1.218 0 1.926.81 2.124 1.83h1.182c-.162-1.518-1.446-2.796-3.276-2.796-2.352 0-3.69 1.602-3.69 4.428 0 2.832 1.35 4.488 3.69 4.488Zm6.791-.12h1.116v-7.656h2.646v-1.02h-6.564v1.02h2.802V101Zm3.906 1.422 4.71-.006v-.87l-4.71.006v.87ZM70.982 101h1.11v-8.676h-1.11V101Zm3.398 0h1.14v-6.948L78.016 101h1.038l2.514-7.014V101h1.146v-8.676h-1.53l-2.652 7.164-2.616-7.164H74.38V101Zm13.815.12c1.368 0 2.16-.69 2.616-1.44V101h.834v-4.476l-3.264-.006v.816h2.112l-.036.768a2.154 2.154 0 0 1-2.202 2.016c-1.452 0-2.544-.978-2.544-3.456 0-2.394 1.014-3.474 2.514-3.474 1.098 0 1.92.852 2.094 1.812h1.188c-.096-1.458-1.512-2.796-3.264-2.796-2.298 0-3.732 1.656-3.732 4.482 0 2.808 1.398 4.434 3.684 4.434Z"/>
  <path stroke="#000" stroke-width="3" d="M42.278 28.5 57 3l14.722 25.5H42.278Zm29.444 136L57 190l-14.722-25.5h29.444Z"/>
</svg>
