<svg xmlns="http://www.w3.org/2000/svg" width="412" height="229" fill="none" viewBox="0 0 412 229">
  <rect width="409" height="226" x="1.5" y="1.5" fill="#fff" stroke="#000" stroke-width="3" rx="34.5"/>
  <rect width="89.373" height="89.418" x="160.905" y="69.382" stroke="#000" stroke-width="3" rx="44.687"/>
  <path fill="#000" d="M180.795 127.242c5.85 0 9.684-3.15 9.684-7.47 0-3.15-1.656-5.814-6.282-6.894l-5.22-1.35c-2.664-.666-4.05-1.8-4.05-3.942 0-2.34 1.926-4.284 5.652-4.284 3.078 0 5.76 1.224 6.102 4.77h3.42c-.018-3.942-3.294-7.542-9.414-7.542-5.292 0-9.288 2.916-9.288 7.326 0 3.996 2.52 5.886 6.192 6.768l5.364 1.386c2.808.756 4.122 1.944 4.122 4.014 0 2.826-2.826 4.446-6.138 4.446-3.438 0-6.174-1.548-6.822-4.5h-3.492c.666 4.788 5.112 7.272 10.17 7.272Zm24.65 0c6.948 0 11.232-4.86 11.232-13.32 0-8.55-4.32-13.428-11.232-13.428-6.912 0-11.304 4.896-11.304 13.428 0 8.496 4.338 13.32 11.304 13.32Zm0-2.898c-4.77 0-7.632-3.204-7.632-10.386 0-7.236 2.862-10.566 7.632-10.566s7.578 3.294 7.578 10.566c0 7.164-2.754 10.386-7.578 10.386Zm25.342 2.898c5.85 0 9.684-3.15 9.684-7.47 0-3.15-1.656-5.814-6.282-6.894l-5.22-1.35c-2.664-.666-4.05-1.8-4.05-3.942 0-2.34 1.926-4.284 5.652-4.284 3.078 0 5.76 1.224 6.102 4.77h3.42c-.018-3.942-3.294-7.542-9.414-7.542-5.292 0-9.288 2.916-9.288 7.326 0 3.996 2.52 5.886 6.192 6.768l5.364 1.386c2.808.756 4.122 1.944 4.122 4.014 0 2.826-2.826 4.446-6.138 4.446-3.438 0-6.174-1.548-6.822-4.5h-3.492c.666 4.788 5.112 7.272 10.17 7.272Z"/>
  <rect width="89.373" height="89.418" x="51.365" y="69.382" stroke="#000" stroke-width="3" rx="44.687"/>
  <path fill="#000" d="M64.304 119.002c2.316 0 3.744-1.62 3.744-4.44 0-2.85-1.44-4.476-3.744-4.476-2.304 0-3.768 1.632-3.768 4.476 0 2.832 1.446 4.44 3.768 4.44Zm0-.966c-1.59 0-2.544-1.068-2.544-3.462 0-2.412.954-3.522 2.544-3.522s2.526 1.098 2.526 3.522c0 2.388-.918 3.462-2.526 3.462Zm5.542.846h2.88c2.214 0 3.336-.762 3.336-2.334 0-.978-.456-1.794-1.824-2.088 1.188-.42 1.608-1.074 1.608-1.992 0-1.464-1.104-2.262-3.21-2.262h-2.79v8.676Zm1.11-4.86v-2.898h1.734c1.23 0 2.082.474 2.082 1.482 0 1.098-1.026 1.416-1.926 1.416h-1.89Zm0 3.936v-2.994h1.89c1.164 0 2.088.45 2.088 1.536 0 .99-.774 1.458-2.22 1.458h-1.758Zm7.697 1.044c1.464 0 1.842-.78 1.842-2.166v-6.63h-1.11v6.312c0 1.026-.246 1.416-1.026 1.416-.486 0-.786-.174-1.032-.264l-.078 1.062c.174.072.786.27 1.404.27Zm3.908-.12h5.586v-.99l-4.476-.012v-2.892h3.924v-.972h-3.918v-2.832h4.35l.006-.978H82.56v8.676Zm10.61.12c2.07 0 3.096-1.368 3.276-2.85h-1.182c-.198 1.014-.906 1.884-2.124 1.884-1.584 0-2.43-1.092-2.43-3.51 0-2.4.846-3.474 2.43-3.474 1.218 0 1.926.81 2.124 1.83h1.182c-.162-1.518-1.446-2.796-3.276-2.796-2.352 0-3.69 1.602-3.69 4.428 0 2.832 1.35 4.488 3.69 4.488Zm6.79-.12h1.117v-7.656h2.646v-1.02H97.16v1.02h2.802v7.656Zm3.907 1.422 4.71-.006v-.87l-4.71.006v.87Zm6.666-1.422h1.11v-8.676h-1.11v8.676Zm3.398 0h1.14v-6.948l2.496 6.948h1.038l2.514-7.014v7.014h1.146v-8.676h-1.53l-2.652 7.164-2.616-7.164h-1.536v8.676Zm13.815.12c1.368 0 2.16-.69 2.616-1.44v1.32h.834v-4.476l-3.264-.006v.816h2.112l-.036.768a2.154 2.154 0 0 1-2.202 2.016c-1.452 0-2.544-.978-2.544-3.456 0-2.394 1.014-3.474 2.514-3.474 1.098 0 1.92.852 2.094 1.812h1.188c-.096-1.458-1.512-2.796-3.264-2.796-2.298 0-3.732 1.656-3.732 4.482 0 2.808 1.398 4.434 3.684 4.434Z"/>
  <path stroke="#000" stroke-width="3" d="M84.899 58.204 96.46 38.169l11.562 20.035H84.899Zm23.123 111.775L96.46 190.013 84.9 169.979h23.123Z"/>
  <path fill="#000" d="M272.759 118.15h1.14v-3.21h1.944c1.824 0 3.066-.99 3.066-2.724 0-1.788-1.356-2.742-3.216-2.742h-2.934v8.676Zm1.134-4.146v-3.606h1.872c1.218 0 2.064.6 2.064 1.752 0 1.14-.822 1.854-2.01 1.854h-1.926Zm9.824 4.266c2.316 0 3.744-1.62 3.744-4.44 0-2.85-1.44-4.476-3.744-4.476-2.304 0-3.768 1.632-3.768 4.476 0 2.832 1.446 4.44 3.768 4.44Zm0-.966c-1.59 0-2.544-1.068-2.544-3.462 0-2.412.954-3.522 2.544-3.522s2.526 1.098 2.526 3.522c0 2.388-.918 3.462-2.526 3.462Zm6.987.846h.996l1.932-6.726 1.902 6.726h1.026l2.532-8.676h-1.116l-1.956 6.906-1.95-6.906h-.87l-1.956 6.906-1.92-6.906h-1.122l2.502 8.676Zm9.805 0h5.586v-.99l-4.476-.012v-2.892h3.924v-.972h-3.918v-2.832h4.35l.006-.978h-5.472v8.676Zm7.524 0h1.11v-3.738h2.334l1.584 3.738h1.176l-1.704-3.936c.828-.312 1.68-.96 1.68-2.37 0-1.476-.942-2.37-2.82-2.37h-3.36v8.676Zm1.11-4.656v-3.114h2.154c1.11 0 1.782.51 1.782 1.53 0 1.05-.744 1.584-2.046 1.584h-1.89Zm9.956 4.776c2.226 0 3.174-1.122 3.174-3.12v-5.676h-1.116v5.73c0 1.416-.756 2.094-2.058 2.094-1.302 0-2.016-.69-2.016-2.094v-5.73h-1.152v5.562c0 2.094.918 3.234 3.168 3.234Zm5.235-.12h1.14v-3.21h1.944c1.824 0 3.066-.99 3.066-2.724 0-1.788-1.356-2.742-3.216-2.742h-2.934v8.676Zm1.134-4.146v-3.606h1.872c1.218 0 2.064.6 2.064 1.752 0 1.14-.822 1.854-2.01 1.854h-1.926Zm4.833 5.568 4.71-.006v-.87l-4.71.006v.87Zm6.665-1.422h1.11v-8.676h-1.11v8.676Zm3.399 0h1.14v-6.948l2.496 6.948h1.038l2.514-7.014v7.014h1.146v-8.676h-1.53l-2.652 7.164-2.616-7.164h-1.536v8.676Zm13.815.12c1.368 0 2.16-.69 2.616-1.44v1.32h.834v-4.476l-3.264-.006v.816h2.112l-.036.768a2.154 2.154 0 0 1-2.202 2.016c-1.452 0-2.544-.978-2.544-3.456 0-2.394 1.014-3.474 2.514-3.474 1.098 0 1.92.852 2.094 1.812h1.188c-.096-1.458-1.512-2.796-3.264-2.796-2.298 0-3.732 1.656-3.732 4.482 0 2.808 1.398 4.434 3.684 4.434Z"/>
  <path stroke="#000" stroke-width="3" d="M270.444 69.382h89.373V158.8h-89.373zm32.717-11.178 11.561-20.035 11.562 20.035h-23.123Zm23.123 111.775-11.562 20.034-11.561-20.034h23.123Z"/>
  <path fill="#000" d="M172.649 210.739h.894l2.01-7.014 1.98 7.014h.924l2.52-8.676h-.948l-2.052 7.23-2.034-7.23h-.762l-2.052 7.23-2.004-7.23h-.954l2.478 8.676Zm12.207.132c1.908.018 3.27-.96 3.27-2.508 0-1.116-.726-1.89-1.92-2.214 1.122-.39 1.68-1.134 1.68-1.992 0-1.398-1.218-2.214-2.982-2.214-1.59 0-2.91.978-2.91 2.61h.942c.024-1.242 1.014-1.806 1.968-1.806 1.272 0 1.968.69 1.968 1.434 0 .846-.918 1.584-2.118 1.602l-.738.012v.822l.768.012c1.296.006 2.328.6 2.328 1.734 0 .996-.87 1.68-2.208 1.68-1.134 0-1.932-.648-2.088-1.746h-.954c.06 1.56 1.284 2.556 2.994 2.574Zm5.059-.132h2.766c2.172 0 3.312-.762 3.312-2.328 0-1.026-.504-1.818-1.848-2.094 1.2-.402 1.638-1.062 1.638-1.998 0-1.458-1.11-2.256-3.174-2.256h-2.694v8.676Zm.936-4.8v-3.078h1.782c1.326 0 2.238.492 2.238 1.578 0 1.182-1.122 1.5-2.07 1.5h-1.95Zm0 3.99v-3.168h1.95c1.242 0 2.25.456 2.25 1.632 0 1.068-.834 1.536-2.394 1.536h-1.806Zm7.114.81h2.766c2.172 0 3.312-.762 3.312-2.328 0-1.026-.504-1.818-1.848-2.094 1.2-.402 1.638-1.062 1.638-1.998 0-1.458-1.11-2.256-3.174-2.256h-2.694v8.676Zm.936-4.8v-3.078h1.782c1.326 0 2.238.492 2.238 1.578 0 1.182-1.122 1.5-2.07 1.5h-1.95Zm0 3.99v-3.168h1.95c1.242 0 2.25.456 2.25 1.632 0 1.068-.834 1.536-2.394 1.536h-1.806Zm7.115.81h.936v-8.676h-.936v8.676Zm3.317 0h5.466v-.858l-4.53-.006v-3.096h3.996v-.84h-3.996v-3.036h4.398v-.84h-5.334v8.676Zm10.371 0h.972v-3.24h2.022c1.806 0 3.06-.99 3.06-2.724 0-1.776-1.344-2.712-3.192-2.712h-2.862v8.676Zm.966-4.062v-3.804h1.944c1.32 0 2.214.618 2.214 1.848 0 1.218-.876 1.956-2.148 1.956h-2.01Zm5.282 4.062h.96l.9-2.472h3.672l.894 2.472h.966l-3.144-8.676h-1.098l-3.15 8.676Zm2.124-3.36 1.566-4.392 1.572 4.392h-3.138Zm7.003 3.36h1.728c3.162 0 4.644-1.47 4.644-4.398 0-2.784-1.32-4.23-4.512-4.266-.732-.006-1.782-.012-1.86-.012v8.676Zm.972-.828v-7.02h.804c2.286 0 3.612.84 3.612 3.48 0 2.592-1.338 3.54-3.666 3.54h-.75Z"/>
</svg>
