<svg xmlns="http://www.w3.org/2000/svg" width="192" height="18" fill="none" viewBox="0 0 192 18">
  <path fill="#000" d="M62.649 13h.894l2.01-7.014L67.533 13h.924l2.52-8.676h-.948l-2.052 7.23-2.034-7.23h-.762l-2.052 7.23-2.004-7.23h-.954L62.649 13Zm12.207.132c1.908.018 3.27-.96 3.27-2.508 0-1.116-.726-1.89-1.92-2.214 1.122-.39 1.68-1.134 1.68-1.992 0-1.398-1.218-2.214-2.982-2.214-1.59 0-2.91.978-2.91 2.61h.942c.024-1.242 1.014-1.806 1.968-1.806 1.272 0 1.968.69 1.968 1.434 0 .846-.918 1.584-2.118 1.602l-.738.012v.822l.768.012c1.296.006 2.328.6 2.328 1.734 0 .996-.87 1.68-2.208 1.68-1.134 0-1.932-.648-2.088-1.746h-.954c.06 1.56 1.284 2.556 2.994 2.574ZM79.915 13h2.766c2.172 0 3.312-.762 3.312-2.328 0-1.026-.504-1.818-1.848-2.094 1.2-.402 1.638-1.062 1.638-1.998 0-1.458-1.11-2.256-3.174-2.256h-2.694V13Zm.936-4.8V5.122h1.782c1.326 0 2.238.492 2.238 1.578 0 1.182-1.122 1.5-2.07 1.5h-1.95Zm0 3.99V9.022h1.95c1.242 0 2.25.456 2.25 1.632 0 1.068-.834 1.536-2.394 1.536H80.85Zm7.115.81h2.766c2.171 0 3.311-.762 3.311-2.328 0-1.026-.504-1.818-1.848-2.094 1.2-.402 1.639-1.062 1.639-1.998 0-1.458-1.11-2.256-3.175-2.256h-2.694V13Zm.936-4.8V5.122h1.781c1.326 0 2.238.492 2.238 1.578 0 1.182-1.122 1.5-2.07 1.5h-1.95Zm0 3.99V9.022h1.95c1.242 0 2.25.456 2.25 1.632 0 1.068-.835 1.536-2.395 1.536h-1.805Zm7.114.81h.936V4.324h-.936V13Zm3.317 0h5.466v-.858l-4.53-.006V9.04h3.996V8.2h-3.996V5.164h4.398v-.84h-5.334V13Zm10.371 0h.972V9.76h2.022c1.806 0 3.06-.99 3.06-2.724 0-1.776-1.344-2.712-3.192-2.712h-2.862V13Zm.966-4.062V5.134h1.944c1.32 0 2.214.618 2.214 1.848 0 1.218-.876 1.956-2.148 1.956h-2.01ZM115.952 13h.96l.9-2.472h3.672l.894 2.472h.966L120.2 4.324h-1.098L115.952 13Zm2.124-3.36 1.566-4.392 1.572 4.392h-3.138Zm7.003 3.36h1.728c3.162 0 4.644-1.47 4.644-4.398 0-2.784-1.32-4.23-4.512-4.266-.732-.006-1.782-.012-1.86-.012V13Zm.972-.828v-7.02h.804c2.286 0 3.612.84 3.612 3.48 0 2.592-1.338 3.54-3.666 3.54h-.75Z"/>
</svg>
