<svg xmlns="http://www.w3.org/2000/svg" width="84" height="26" fill="none" viewBox="0 0 84 26">
  <rect width="24.79" height="24.79" x=".5" y=".5" stroke="#000" rx="11.5"/>
  <rect width="24.79" height="24.79" x="29.605" y=".5" stroke="#000" rx="11.5"/>
  <rect width="24.79" height="24.79" x="58.71" y=".5" stroke="#000" rx="11.5"/>
  <path fill="#000" d="M5.61 22.474h1.26l5.996-8.9 6.061 8.9h1.26l-6.698-9.842 6.327-9.337h-1.274l-5.676 8.422-5.717-8.422H5.89l6.353 9.337-6.631 9.842ZM40.981 18.6h1.088c0-4.827 5.464-6.206 5.464-10.875 0-2.865-2.122-4.695-5.464-4.695-2.467 0-4.749 1.3-5.863 3.316l1.088.504c.584-1.46 2.759-2.733 4.775-2.733 2.6 0 4.27 1.38 4.27 3.608 0 4.297-5.358 5.703-5.358 10.876Zm-.239 3.874h1.592V20.43h-1.592v2.043Zm29.942-3.82h.85l.264-15.359h-1.352l.238 15.359Zm-.371 3.82h1.592V20.43h-1.592v2.043Z"/>
</svg>
